<svg width="58" height="58" viewBox="0 0 58 58" fill="none" xmlns="http://www.w3.org/2000/svg">
<circle cx="29" cy="29" r="29" fill="white"/>
<g clip-path="url(#clip0_1_2754)">
<g style="mix-blend-mode:multiply">
<path d="M43.9101 22.2004L43.7375 22.0441C42.7999 21.2344 41.9146 20.4716 40.7442 19.8979C39.4265 19.2601 37.9979 18.9225 36.7357 18.6349C36.0365 18.4983 35.3246 18.4349 34.6119 18.4457C34.387 18.4457 34.1653 18.4364 33.9515 18.4254C33.0756 18.3863 32.2458 18.5677 31.4507 18.738L31.4111 18.7474C31.5661 18.2052 31.7701 17.6779 32.0209 17.1718C32.4716 16.2389 33.0014 15.3452 33.6046 14.5004C33.641 14.4503 33.687 14.3972 33.7361 14.344C33.9831 14.0486 34.3553 13.6078 34.3236 13.031C34.3236 12.2666 33.7677 11.693 33.394 11.3115L33.3575 11.274C33.181 11.0855 32.9676 10.9342 32.7303 10.8292C32.493 10.7241 32.2366 10.6676 31.9765 10.6628C31.5394 10.6628 31.1195 10.831 30.8061 11.1318C30.5638 11.3623 30.4032 11.6638 30.3484 11.9915L30.3342 12.0478C30.0507 13.2233 29.6421 14.4003 29.2477 15.5383C28.9848 16.2964 28.714 17.0795 28.4764 17.8674C28.3687 18.2253 28.2753 18.5755 28.1977 18.9147C27.9902 18.8912 27.7812 18.8647 27.5642 18.8365C26.7958 18.7227 26.0208 18.658 25.244 18.6427H25.1949C23.9453 18.6427 22.634 18.9209 21.0692 19.5009C19.751 20.0081 18.5384 20.7499 17.4915 21.6892C17.1249 22.0119 16.7927 22.3707 16.5001 22.76C13.6588 25.5737 13.6921 30.4194 13.7697 31.8497C13.9978 35.992 16.1073 40.447 19.5583 44.0781C20.8649 45.4521 22.634 47.0997 24.7245 47.6499L24.8718 47.689C25.4415 47.8669 26.0327 47.9689 26.6298 47.9923C26.997 47.9935 27.3622 47.937 27.7115 47.825C28.0118 47.7226 28.3022 47.5939 28.5794 47.4405C28.7267 47.3623 28.866 47.2841 29.0022 47.231C29.3434 47.1119 29.7053 47.062 30.0665 47.0841H30.4355C30.9518 47.0841 31.457 47.2873 31.9923 47.4983C32.4066 47.6735 32.8345 47.8152 33.272 47.9219C33.3333 47.9362 33.396 47.9436 33.4589 47.9438H33.5286C33.7223 47.9753 33.9183 47.991 34.1146 47.9907C34.7137 47.9672 35.307 47.8652 35.8789 47.6874L36.0182 47.6499C38.1072 47.0997 39.8763 45.4521 41.1829 44.0781C44.6339 40.4485 46.7434 35.992 46.9715 31.8497C47.1584 28.6187 46.4409 24.3794 43.9101 22.2004Z" fill="white"/>
<path d="M43.842 22.1394L43.6693 21.9831C42.7318 21.1749 41.8464 20.4105 40.6761 19.8369C39.3584 19.1897 37.9298 18.8537 36.6676 18.5598C35.9684 18.4227 35.2565 18.3588 34.5438 18.3691C34.3189 18.3691 34.0971 18.3597 33.8833 18.3503C33.0075 18.3097 32.1761 18.4879 31.3826 18.663L31.343 18.6723C31.4991 18.1343 31.7037 17.6112 31.9543 17.1092C32.4045 16.176 32.9343 15.2823 33.5381 14.4378C33.5745 14.3862 33.6204 14.333 33.6695 14.2815C33.9166 13.986 34.2872 13.5437 34.2571 12.9669C34.2571 12.2025 33.7012 11.6288 33.3274 11.2474L33.291 11.2099C33.1143 11.0246 32.9017 10.8761 32.6659 10.7733C32.43 10.6705 32.1757 10.6154 31.9179 10.6112C31.4808 10.6112 31.0609 10.7794 30.7475 11.0801C30.5055 11.3109 30.3451 11.6123 30.2898 11.9399L30.2756 11.9962C29.9757 13.1782 29.613 14.3438 29.1891 15.4882C28.9262 16.2448 28.6538 17.0279 28.4178 17.8157C28.3122 18.1742 28.2193 18.5238 28.1391 18.8646L27.5056 18.7849C26.7372 18.6711 25.9622 18.6063 25.1854 18.5911H25.1363C23.8867 18.5911 22.5753 18.8693 21.0185 19.4492C19.7005 19.9569 18.488 20.6986 17.4408 21.6376C17.0692 21.9594 16.7317 22.3176 16.4336 22.7068C13.5923 25.5205 13.6256 30.3662 13.7032 31.798C13.9312 35.9388 16.0408 40.3953 19.4918 44.0249C20.7984 45.3989 22.5674 47.0481 24.6564 47.5983L24.8037 47.6374C25.376 47.8153 25.9699 47.9167 26.5696 47.9391C26.9368 47.9401 27.3019 47.8837 27.6513 47.7718C27.9517 47.6697 28.2422 47.541 28.5192 47.3873C28.6665 47.3091 28.8058 47.231 28.942 47.1778C29.2832 47.0587 29.6452 47.0088 30.0063 47.0309H30.3706C30.8853 47.0309 31.3921 47.2341 31.9274 47.4451C32.3425 47.618 32.7703 47.7596 33.2071 47.8687C33.2683 47.883 33.331 47.8904 33.394 47.8906C33.4172 47.8921 33.4404 47.8921 33.4636 47.8906C33.6568 47.9221 33.8523 47.9377 34.048 47.9375C34.6472 47.9147 35.2406 47.8127 35.8123 47.6342L35.9517 47.5983C38.0407 47.0465 39.8097 45.3989 41.1163 44.0249C44.5673 40.3953 46.6769 35.9388 46.905 31.798C47.0855 28.5576 46.3665 24.3184 43.842 22.1394Z" fill="#F1F1F1"/>
<path d="M43.7739 22.0738L43.6013 21.9175C42.6637 21.1219 41.7736 20.3543 40.608 19.7838C39.2903 19.1367 37.8617 18.8021 36.5995 18.5067C35.9001 18.3717 35.1882 18.3099 34.4757 18.3223C34.2508 18.3223 34.0291 18.3129 33.8153 18.3035C32.9394 18.2629 32.108 18.4395 31.3145 18.6161L31.2749 18.6239C31.43 18.0825 31.6335 17.5558 31.8831 17.0499C32.3332 16.1166 32.8631 15.2229 33.4668 14.3785C33.5033 14.3284 33.5492 14.2737 33.5967 14.2221C33.8453 13.9267 34.2175 13.4843 34.1859 12.9075C34.1859 12.1432 33.63 11.5695 33.2562 11.1881L33.2198 11.149C33.043 10.9639 32.8303 10.8157 32.5945 10.7131C32.3586 10.6106 32.1043 10.5557 31.8466 10.5519C31.4096 10.5523 30.9899 10.7205 30.6763 11.0208C30.4343 11.2516 30.2738 11.553 30.2186 11.8806C30.2186 11.8993 30.2075 11.9181 30.2043 11.9368C29.9044 13.1188 29.5417 14.2845 29.1178 15.4289C28.8549 16.1854 28.5825 16.9686 28.3466 17.7564C28.2373 18.1144 28.1454 18.4645 28.0678 18.8053L27.4343 18.7271C26.6652 18.6097 25.889 18.5424 25.111 18.5255H25.0619C23.8123 18.5255 22.5009 18.8053 20.9362 19.3836C19.6182 19.8913 18.4056 20.633 17.3585 21.572C16.9923 21.8951 16.6601 22.2538 16.3671 22.6428C13.5258 25.4564 13.5575 30.31 13.6367 31.734C13.8647 35.8764 15.9743 40.3313 19.4253 43.9609C20.7319 45.3349 22.5009 46.984 24.5899 47.5343L24.7372 47.5734C25.3075 47.7507 25.8992 47.8522 26.4967 47.875C26.8639 47.8759 27.2288 47.82 27.5784 47.7093C27.8786 47.6071 28.1686 47.4778 28.4447 47.3232C28.5936 47.2467 28.733 47.1669 28.8692 47.1138C29.2106 46.9959 29.5724 46.9464 29.9335 46.9684H30.3025C30.8188 46.9684 31.324 47.1701 31.8593 47.3811C32.274 47.5551 32.7019 47.6968 33.139 47.8047C33.2002 47.819 33.2629 47.8263 33.3259 47.8266C33.3491 47.828 33.3724 47.828 33.3956 47.8266C33.5893 47.8581 33.7852 47.8738 33.9816 47.8735C34.5807 47.8507 35.1741 47.7487 35.7458 47.5702L35.8852 47.5343C37.9742 46.984 39.7432 45.3349 41.0498 43.9609C44.5008 40.3313 46.6104 35.8748 46.8385 31.734C47.0158 28.4968 46.3047 24.2622 43.7739 22.0738Z" fill="#E2E2E2"/>
<path d="M43.7057 22.0175L43.5331 21.8612C42.5955 21.053 41.7102 20.2887 40.5398 19.715C39.2221 19.0678 37.792 18.7333 36.5313 18.4379C35.8322 18.3008 35.1203 18.2369 34.4075 18.2472C34.1811 18.2472 33.9609 18.2378 33.7471 18.2284C32.8713 18.1878 32.0414 18.3707 31.2464 18.5411L31.2068 18.5489C31.3614 18.0073 31.565 17.4805 31.8149 16.9748C32.2651 16.0416 32.7949 15.1479 33.3987 14.3034C33.4351 14.2534 33.481 14.2002 33.5285 14.1471C33.7772 13.8516 34.1478 13.4093 34.1177 12.8325C34.1177 12.0681 33.5618 11.4944 33.188 11.113L33.15 11.0755C32.9736 10.8898 32.7611 10.741 32.5252 10.6382C32.2893 10.5353 32.0348 10.4804 31.7769 10.4768C31.3403 10.477 30.921 10.6452 30.6081 10.9457C30.3659 11.1757 30.2053 11.4767 30.1504 11.8039C30.1504 11.8242 30.1393 11.843 30.1361 11.8602C29.8365 13.0423 29.4738 14.2079 29.0497 15.3522C28.7868 16.1104 28.5144 16.8919 28.2768 17.6813C28.1691 18.0377 28.0773 18.3879 27.9997 18.7286L27.3662 18.6505C26.5984 18.5362 25.8239 18.4709 25.0476 18.4551H24.9985C23.7489 18.4551 22.4375 18.7349 20.8807 19.3148C19.5621 19.8213 18.3493 20.5631 17.303 21.5032C16.9364 21.8259 16.6042 22.1847 16.3116 22.574C13.4703 25.3876 13.502 30.2334 13.5812 31.6636C13.8092 35.806 15.9188 40.2609 19.3698 43.8921C20.6764 45.2661 22.4454 46.9137 24.5344 47.4639L24.6817 47.503C25.252 47.6803 25.8438 47.7818 26.4413 47.8047C26.8084 47.8055 27.1734 47.7496 27.523 47.639C27.8231 47.5367 28.1131 47.4075 28.3893 47.2529C28.5381 47.1763 28.6775 47.0965 28.8137 47.045C29.1543 46.9258 29.5158 46.8758 29.8764 46.898H30.247C30.7617 46.898 31.2685 47.1012 31.8038 47.3107C32.2182 47.4854 32.6462 47.6271 33.0835 47.7343C33.1447 47.7491 33.2074 47.757 33.2704 47.7578H33.3401C33.5333 47.7887 33.7288 47.8038 33.9245 47.8031C34.5236 47.7803 35.1169 47.6789 35.6888 47.5014L35.8297 47.4639C37.9187 46.9137 39.6878 45.2661 40.9944 43.8921C44.4454 40.2625 46.5549 35.806 46.783 31.6636C46.9477 28.4358 46.2366 24.1965 43.7057 22.0175Z" fill="#D4D4D4"/>
<path d="M43.6377 21.958L43.465 21.8017C42.5274 20.992 41.6421 20.2292 40.4717 19.6555C39.1541 19.0068 37.7239 18.6723 36.4633 18.3769C35.764 18.2405 35.0522 18.1766 34.3394 18.1862C34.113 18.1862 33.8928 18.1862 33.679 18.1674C32.8032 18.1268 31.9733 18.3097 31.1783 18.48L31.1387 18.4894C31.2931 17.9473 31.4966 17.4199 31.7468 16.9138C32.197 15.9806 32.7268 15.0869 33.3306 14.2424C33.367 14.1923 33.4129 14.1392 33.4605 14.0861C33.7091 13.7906 34.0797 13.3498 34.0496 12.773C34.0496 12.0086 33.4937 11.435 33.12 11.0536L33.0819 11.016C32.9054 10.8309 32.6931 10.6826 32.4575 10.5798C32.222 10.4769 31.9679 10.4217 31.7104 10.4174C31.2733 10.4173 30.8534 10.5856 30.54 10.8863C30.2977 11.1168 30.1371 11.4183 30.0823 11.746C30.0761 11.7644 30.0713 11.7832 30.0681 11.8023C29.802 12.9809 29.376 14.1548 28.9816 15.2928C28.7187 16.0509 28.4463 16.8341 28.2087 17.6219C28.101 17.9783 28.0092 18.33 27.9316 18.6692C27.7241 18.6457 27.5151 18.6192 27.2981 18.591C26.5303 18.4767 25.7558 18.4114 24.9795 18.3956H24.9304C23.6808 18.3956 22.3694 18.6739 20.8031 19.2538C19.4843 19.7627 18.2716 20.5066 17.2254 21.4485C16.8589 21.7711 16.5267 22.1299 16.234 22.5192C13.3896 25.3422 13.4244 30.1911 13.5004 31.6089C13.7285 35.7512 15.838 40.2062 19.289 43.8373C20.5956 45.2114 22.3647 46.8589 24.4537 47.4091L24.6009 47.4482C25.1707 47.6256 25.7619 47.727 26.3589 47.7499C26.7266 47.7516 27.0923 47.6957 27.4422 47.5842C27.7422 47.4816 28.0322 47.3524 28.3085 47.1981C28.4574 47.1215 28.5968 47.0418 28.733 46.9902C29.0735 46.871 29.435 46.821 29.7957 46.8433H30.1663C30.681 46.8433 31.1878 47.0465 31.7231 47.2575C32.138 47.4309 32.5658 47.5725 33.0028 47.6811C33.0641 47.6947 33.1268 47.702 33.1896 47.703H33.2593C33.4525 47.7345 33.648 47.7501 33.8437 47.7499C34.4434 47.7264 35.0372 47.6244 35.6096 47.4466L35.749 47.4091C37.838 46.8589 39.607 45.2114 40.9136 43.8373C44.3646 40.2077 46.4742 35.7512 46.7022 31.6089C46.8796 28.3747 46.1685 24.1371 43.6377 21.958Z" fill="#C5C5C5"/>
<path d="M43.568 21.8971L43.3969 21.7408C42.4593 20.9326 41.574 20.1683 40.4036 19.5946C39.0812 18.9553 37.6558 18.6192 36.3888 18.3222C35.6896 18.1852 34.9778 18.1212 34.265 18.1315C34.0385 18.1315 33.8184 18.1221 33.6046 18.1127C32.7288 18.0721 31.8989 18.2534 31.1038 18.4254L31.0642 18.4347C31.2189 17.8927 31.4224 17.3653 31.6724 16.8591C32.1229 15.9265 32.6527 15.0334 33.2561 14.1892C33.2926 14.1377 33.3385 14.0845 33.386 14.0329C33.6347 13.7375 34.0053 13.2951 33.9752 12.7183C33.9752 11.954 33.4193 11.3803 33.0455 10.9989L33.0075 10.9614C32.8311 10.7764 32.6191 10.6282 32.3838 10.5254C32.1485 10.4226 31.8948 10.3672 31.6376 10.3627C31.201 10.3629 30.7817 10.5311 30.4687 10.8316C30.2267 11.0624 30.0663 11.3638 30.011 11.6913C30.0048 11.7097 30 11.7285 29.9968 11.7476C29.6969 12.9296 29.3342 14.0953 28.9103 15.2397C28.6474 15.9962 28.375 16.7794 28.1375 17.5672C28.0298 17.9252 27.9379 18.2753 27.8587 18.6161L27.2252 18.5363C26.4573 18.4231 25.6829 18.3589 24.9066 18.3441H24.8575C23.6079 18.3441 22.2966 18.6223 20.7302 19.2022C19.4125 19.7094 18.2003 20.4512 17.1541 21.3906C16.7875 21.7133 16.4553 22.0721 16.1627 22.4614C13.3215 25.2751 13.3531 30.1208 13.4323 31.5526C13.6604 35.6934 15.7699 40.1499 19.2209 43.7795C20.5275 45.1535 22.2966 46.8011 24.3856 47.3529L24.5328 47.392C25.1026 47.5693 25.6938 47.6708 26.2908 47.6936C26.6586 47.6949 27.0242 47.6384 27.3741 47.5264C27.6738 47.4237 27.9637 47.295 28.2404 47.1419C28.3893 47.0637 28.5286 46.9855 28.6649 46.9324C29.0054 46.8132 29.3669 46.7632 29.7275 46.7855H30.0981C30.6129 46.7855 31.1197 46.9887 31.655 47.1997C32.0699 47.3731 32.4977 47.5147 32.9346 47.6233C32.9959 47.6376 33.0586 47.645 33.1215 47.6452H33.1912C33.3844 47.6766 33.5798 47.6923 33.7756 47.6921C34.3745 47.672 34.9679 47.5726 35.5399 47.3967L35.6809 47.3607C37.7698 46.8089 39.5389 45.1614 40.8455 43.7874C44.2965 40.1577 46.406 35.7012 46.6341 31.5605C46.8115 28.3154 46.1004 24.0761 43.568 21.8971Z" fill="#B7B7B7"/>
<path d="M43.4999 21.8361L43.3288 21.6798C42.3912 20.8717 41.5043 20.1073 40.3355 19.5336C39.0163 18.8865 37.5877 18.552 36.3271 18.2565C35.6279 18.1196 34.916 18.0556 34.2032 18.0658C33.9768 18.0658 33.755 18.0564 33.5428 18.0471C32.667 18.0064 31.8355 18.1877 31.0421 18.3597H31.0009C31.1565 17.8182 31.3606 17.2915 31.6106 16.7856C32.0608 15.8524 32.5906 14.9587 33.1944 14.1142C33.2308 14.0642 33.2767 14.0095 33.3243 13.9579C33.5729 13.6624 33.9435 13.2201 33.9134 12.6433C33.9134 11.8789 33.3575 11.3052 32.9838 10.9238L32.9457 10.8863C32.7689 10.7012 32.5563 10.553 32.3205 10.4504C32.0846 10.3479 31.8303 10.2931 31.5726 10.2892C31.136 10.2894 30.7167 10.4576 30.4038 10.7581C30.1609 10.9876 30.0003 11.2888 29.9461 11.6163C29.9399 11.6347 29.9351 11.6535 29.9319 11.6726C29.632 12.8546 29.2693 14.0202 28.8454 15.1646C28.5825 15.9212 28.3101 16.7043 28.0725 17.4921C27.967 17.8496 27.874 18.1992 27.7938 18.541L27.1603 18.4629C26.3926 18.3478 25.618 18.2825 24.8417 18.2675H24.791C23.5414 18.2675 22.2317 18.5473 20.6732 19.1256C19.3556 19.6331 18.1435 20.3748 17.0971 21.314C16.7301 21.6368 16.3979 21.9962 16.1057 22.3863C13.2644 25.2 13.2961 30.0457 13.3753 31.476C13.6018 35.6168 15.7129 40.0733 19.1639 43.7029C20.4705 45.0769 22.2396 46.726 24.3285 47.2763L24.4758 47.3153C25.0456 47.4927 25.6368 47.5942 26.2338 47.617C26.6014 47.618 26.967 47.5621 27.3171 47.4513C27.6126 47.3542 27.8989 47.2313 28.1723 47.084C28.3212 47.0058 28.4606 46.9277 28.5968 46.8745C28.9375 46.756 29.2989 46.7065 29.6595 46.7292H30.0301C30.5448 46.7292 31.0516 46.9308 31.5869 47.1418C32.0014 47.315 32.4286 47.4566 32.865 47.5654C32.9268 47.5797 32.99 47.5871 33.0534 47.5873C33.0766 47.5888 33.0999 47.5888 33.1231 47.5873C33.3163 47.6188 33.5118 47.6345 33.7075 47.6342C34.3067 47.6116 34.9001 47.5096 35.4718 47.331L35.6112 47.295C37.7018 46.7448 39.4692 45.0957 40.7774 43.7217C44.2284 40.0921 46.338 35.6355 46.566 31.4948C46.7434 28.2544 46.0323 24.0151 43.4999 21.8361Z" fill="#A8A8A8"/>
<path d="M43.4318 21.7753L43.2607 21.6189C42.3215 20.8108 41.4362 20.0464 40.2674 19.4727C38.9482 18.8256 37.5196 18.4911 36.2589 18.1957C35.5591 18.0602 34.8467 17.9978 34.1335 18.0096C33.9086 18.0096 33.6869 18.0003 33.4747 17.9909C32.5989 17.9502 31.7674 18.1316 30.974 18.3035H30.9328C31.0884 17.762 31.2925 17.2353 31.5425 16.7294C31.9927 15.7962 32.5225 14.9025 33.1263 14.058C33.1627 14.008 33.2086 13.9549 33.2561 13.9017C33.5048 13.6063 33.8754 13.1639 33.8453 12.5871C33.8453 11.8227 33.2878 11.2491 32.9141 10.8676L32.8776 10.8301C32.7011 10.6445 32.4886 10.4959 32.2527 10.3931C32.0168 10.2902 31.7624 10.2352 31.5045 10.2314C31.0675 10.2319 30.6478 10.4001 30.3341 10.7004C30.0923 10.9304 29.9323 11.2314 29.878 11.5586C29.878 11.5773 29.8669 11.5961 29.8622 11.6148C29.5637 12.7972 29.201 13.9629 28.7757 15.1069C28.5144 15.8634 28.242 16.6466 28.0044 17.4344C27.8988 17.7918 27.8059 18.1415 27.7257 18.4833C27.5198 18.4598 27.3107 18.4317 27.0922 18.4051C26.3244 18.2908 25.5499 18.2255 24.7736 18.2097H24.7229C23.4733 18.2097 22.162 18.4895 20.6051 19.0695C19.287 19.576 18.0748 20.3178 17.029 21.2579C16.662 21.5801 16.3298 21.9389 16.0376 22.3286C13.1963 25.1423 13.228 29.988 13.3072 31.4183C13.5337 35.5606 15.6448 40.0156 19.0958 43.6467C20.3929 45.0364 22.1604 46.6839 24.2493 47.2404L24.3966 47.2795C24.9664 47.4568 25.5576 47.5583 26.1546 47.5812C26.5222 47.5821 26.8878 47.5262 27.2379 47.4155C27.5379 47.3129 27.8279 47.1837 28.1042 47.0294C28.2515 46.9528 28.3924 46.8731 28.5286 46.8199C28.8695 46.7021 29.2308 46.6527 29.5913 46.6745H29.9619C30.4767 46.6745 30.9835 46.8762 31.5188 47.0872C31.933 47.261 32.3603 47.4027 32.7969 47.5108C32.8586 47.5251 32.9219 47.5325 32.9853 47.5327C33.0085 47.5342 33.0318 47.5342 33.055 47.5327C33.2481 47.565 33.4436 47.5807 33.6394 47.5796C34.2385 47.5567 34.8318 47.4553 35.4037 47.2779L35.5431 47.2404C37.6336 46.6902 39.4011 45.0426 40.7093 43.6671C44.1603 40.039 46.2698 35.5825 46.4979 31.4402C46.6832 28.1935 45.9642 23.9496 43.4318 21.7753Z" fill="#9A9A9A"/>
<path d="M43.3574 21.7158L43.199 21.5673C42.2488 20.7576 41.3682 19.9948 40.1994 19.4164C38.8801 18.7693 37.4516 18.4348 36.1909 18.1393C35.4911 18.0031 34.7788 17.9392 34.0655 17.9486C33.8406 17.9486 33.6189 17.9408 33.4067 17.9299C32.5308 17.8892 31.6994 18.0721 30.9059 18.2425L30.8647 18.2519C31.0224 17.7124 31.228 17.1878 31.4792 16.684C31.9294 15.7508 32.4592 14.8571 33.063 14.0126C33.0994 13.9626 33.1453 13.9095 33.1929 13.8563C33.4415 13.5609 33.8121 13.1185 33.7804 12.5433C33.7804 11.7773 33.2245 11.2037 32.8508 10.8238L32.8143 10.7863C32.6376 10.601 32.425 10.4526 32.1892 10.3497C31.9534 10.2469 31.699 10.1918 31.4412 10.1876C31.0042 10.1881 30.5845 10.3562 30.2708 10.6566C30.029 10.8872 29.869 11.1887 29.8147 11.5163C29.8147 11.5351 29.8036 11.5538 29.7989 11.5726C29.5007 12.7545 29.138 13.9197 28.7124 15.0631C28.44 15.8212 28.1676 16.6028 27.93 17.3843C27.8223 17.7407 27.7289 18.0924 27.6513 18.4316C27.4454 18.4082 27.2364 18.3816 27.0178 18.3535C26.2509 18.2419 25.4775 18.1793 24.7024 18.1659H24.6517C23.4021 18.1737 22.0907 18.4457 20.5339 19.0256C19.2159 19.5324 18.0037 20.2742 16.9578 21.214C16.5881 21.5354 16.2532 21.8937 15.9585 22.2832C13.1156 25.0969 13.1489 29.9426 13.2281 31.3729C13.4545 35.5152 15.5657 39.9702 19.0151 43.6014C20.3233 44.9754 22.0923 46.6229 24.1813 47.1731L24.3286 47.2122C24.9009 47.3903 25.4948 47.4917 26.0945 47.5139C26.4622 47.5156 26.8278 47.4597 27.1778 47.3482C27.4778 47.2456 27.7677 47.1164 28.0441 46.9621C28.1929 46.8855 28.3323 46.8058 28.4685 46.7542C28.8091 46.635 29.1706 46.585 29.5312 46.6073H29.8955C30.4102 46.6073 30.917 46.8105 31.4523 47.0215C31.8668 47.1946 32.2941 47.3363 32.7304 47.4451C32.7918 47.4587 32.8544 47.466 32.9173 47.467H32.9885C33.1817 47.4986 33.3772 47.5143 33.573 47.5139C34.1721 47.4905 34.7654 47.3885 35.3373 47.2107L35.4766 47.1731C37.5672 46.6229 39.3346 44.9754 40.6428 43.6014C44.0922 39.9717 46.2081 35.5168 46.4299 31.3729C46.6072 28.1325 45.8914 23.8948 43.3574 21.7158Z" fill="#8B8B8B"/>
<path d="M43.2956 21.6549L43.1246 21.5064C42.1854 20.6982 41.2985 19.9339 40.1313 19.3602C38.812 18.7131 37.3834 18.377 36.1228 18.0815C35.4229 17.9458 34.7106 17.8824 33.9974 17.8924C33.7725 17.8924 33.5508 17.883 33.3385 17.8721C32.4627 17.833 31.6313 18.0096 30.8362 18.1847L30.7966 18.1941C30.9523 17.6521 31.1563 17.1248 31.4064 16.6184C31.8551 15.6853 32.3828 14.7911 32.9838 13.9455C33.0202 13.8954 33.0661 13.8423 33.1137 13.7892C33.3623 13.4937 33.7329 13.0514 33.7012 12.4746C33.7012 11.7102 33.1453 11.1365 32.7716 10.7551L32.7351 10.7176C32.5584 10.5323 32.3458 10.3838 32.11 10.281C31.8742 10.1782 31.6198 10.1231 31.362 10.1189C30.9249 10.119 30.5051 10.2872 30.1916 10.5878C29.9512 10.8181 29.7919 11.1183 29.7371 11.4444C29.7371 11.4632 29.726 11.482 29.7213 11.5007C29.4212 12.6849 29.0564 13.8522 28.6285 14.9975C28.3656 15.7556 28.0947 16.5387 27.8572 17.3265C27.7495 17.6829 27.656 18.0347 27.5784 18.3739C27.3725 18.3504 27.1635 18.3238 26.9449 18.2957C26.1771 18.1819 25.4026 18.1172 24.6263 18.1019H24.5756C23.3261 18.1019 22.0147 18.3801 20.4579 18.96C19.1399 19.4668 17.9277 20.2086 16.8818 21.1484C16.5142 21.4741 16.1819 21.8366 15.8903 22.2301C13.0475 25.0438 13.0808 29.8895 13.16 31.312C13.3864 35.4543 15.4976 39.9093 18.947 43.5405C20.2552 44.9145 22.0242 46.562 24.1132 47.1138L24.2605 47.1513C24.83 47.3299 25.4213 47.4319 26.0184 47.4546C26.3862 47.4556 26.7518 47.3991 27.1017 47.2873C27.4014 47.1846 27.6913 47.0559 27.968 46.9028C28.1153 46.8246 28.2563 46.7465 28.3925 46.6933C28.7331 46.5741 29.0945 46.5241 29.4552 46.5464H29.8258C30.3405 46.5464 30.8457 46.7496 31.3826 46.9606C31.7971 47.1337 32.2244 47.2754 32.6607 47.3842C32.7221 47.3978 32.7847 47.4051 32.8476 47.4061H32.9173C33.111 47.4376 33.3069 47.4533 33.5033 47.453C34.1025 47.4304 34.6959 47.3284 35.2676 47.1497L35.4069 47.1138C37.4975 46.562 39.2649 44.9145 40.5731 43.5405C44.0241 39.9108 46.1337 35.4543 46.3602 31.312C46.5391 28.0732 45.828 23.8339 43.2956 21.6549Z" fill="#7D7D7D"/>
<path d="M43.2275 21.5939L43.0549 21.4375C42.1173 20.6294 41.232 19.865 40.0631 19.2913C38.7439 18.6442 37.3153 18.3097 36.0547 18.0143C35.355 17.8772 34.6426 17.8133 33.9293 17.8236C33.7044 17.8236 33.4827 17.8142 33.2704 17.8048C32.3946 17.7642 31.5631 17.9408 30.7681 18.1174L30.7285 18.1268C30.8842 17.5853 31.0882 17.0586 31.3383 16.5527C31.7874 15.619 32.3173 14.7252 32.922 13.8813C32.9584 13.8297 33.0044 13.7766 33.0519 13.725C33.3005 13.4296 33.6711 12.9872 33.6394 12.4104C33.6394 11.646 33.0835 11.0723 32.7098 10.6909L32.667 10.6628C32.4902 10.4777 32.2776 10.3295 32.0418 10.2269C31.8059 10.1244 31.5516 10.0695 31.2939 10.0657C30.8568 10.0656 30.4369 10.2339 30.1235 10.5346C29.8819 10.7654 29.722 11.0669 29.6674 11.3943C29.6674 11.4131 29.6563 11.4319 29.6516 11.4506C29.3531 12.633 28.9904 13.7987 28.5651 14.9427C28.3022 15.6992 28.0314 16.4824 27.7938 17.2702C27.6861 17.6256 27.5948 17.9762 27.5198 18.3222L26.8863 18.2425C26.1181 18.126 25.3431 18.0586 24.5661 18.0408H24.5107C23.2659 18.0471 21.9545 18.3222 20.3929 18.899C19.0753 19.4064 17.8632 20.1482 16.8168 21.0874C16.4498 21.4096 16.1176 21.7685 15.8254 22.1581C12.9826 24.9718 13.0158 29.8175 13.095 31.2494C13.3215 35.3902 15.431 39.8467 18.882 43.4763C20.1902 44.8503 21.9577 46.4994 24.0482 47.0496L24.1955 47.0887C24.764 47.2679 25.3541 47.3715 25.9503 47.3967C26.318 47.3976 26.6835 47.3417 27.0336 47.231C27.3334 47.1277 27.6233 46.9985 27.8999 46.8449C28.0472 46.7667 28.1882 46.6885 28.3244 46.6354C28.6651 46.5168 29.0265 46.4674 29.3871 46.49H29.7577C30.2724 46.49 30.7776 46.6932 31.3145 46.9043C31.729 47.0774 32.1562 47.219 32.5926 47.3279C32.6538 47.3422 32.7165 47.3495 32.7795 47.3498C32.8032 47.3512 32.827 47.3512 32.8507 47.3498C33.0439 47.3813 33.2394 47.397 33.4351 47.3967C34.0348 47.371 34.6282 47.2658 35.1994 47.084L35.3388 47.0481C37.4278 46.4978 39.1968 44.8487 40.505 43.4747C43.956 39.8451 46.0656 35.3886 46.292 31.2478C46.471 28.0137 45.7599 23.7729 43.2275 21.5939Z" fill="#6E6E6E"/>
<path d="M43.1593 21.533L42.9867 21.3767C42.0491 20.5685 41.1638 19.8042 39.995 19.2305C38.6757 18.5833 37.2472 18.2488 35.9865 17.9534C35.2845 17.8185 34.5699 17.7572 33.8548 17.7705C33.6299 17.7705 33.4082 17.7611 33.196 17.7518C32.3186 17.7111 31.4887 17.8924 30.6936 18.0644H30.654C30.809 17.5227 31.0131 16.9959 31.2638 16.4903C31.712 15.5577 32.2391 14.664 32.8396 13.8189C32.8776 13.7689 32.9235 13.7142 32.9711 13.6626C33.2197 13.3671 33.5903 12.9248 33.5586 12.348C33.5586 11.5836 33.0027 11.0099 32.629 10.6285L32.5925 10.591C32.416 10.4054 32.2035 10.2568 31.9676 10.1539C31.7317 10.0511 31.4773 9.99611 31.2194 9.99231C30.7824 9.99244 30.3625 10.1607 30.049 10.4613C29.8066 10.6908 29.6465 10.9921 29.5929 11.3194C29.5929 11.3382 29.5818 11.3569 29.5771 11.3757C29.2936 12.5512 28.8866 13.7282 28.4906 14.8678C28.2277 15.6243 27.9569 16.4074 27.7193 17.1953C27.6138 17.5527 27.5208 17.9023 27.4406 18.2441L26.8071 18.166C26.0394 18.0509 25.2648 17.9856 24.4885 17.9706H24.4473C23.1977 17.9706 21.8864 18.2504 20.3295 18.8288C19.0098 19.3396 17.7966 20.0857 16.7503 21.0297C16.3829 21.3521 16.0506 21.7115 15.7588 22.102C12.9081 24.9156 12.9493 29.7614 13.0269 31.1917C13.2549 35.334 15.3645 39.7889 18.8155 43.4186C20.1237 44.7941 21.8911 46.4417 23.9817 46.9919L24.129 47.031C24.6987 47.2083 25.29 47.3098 25.8869 47.3327C26.2546 47.3335 26.6201 47.2776 26.9702 47.167C27.2702 47.0644 27.5602 46.9352 27.8365 46.7809C27.9838 46.7043 28.1248 46.6246 28.2594 46.5714C28.6009 46.4537 28.9627 46.4043 29.3237 46.426H29.6943C30.209 46.426 30.7142 46.6277 31.2495 46.8387C31.6637 47.0139 32.0917 47.1556 32.5292 47.2623C32.5904 47.2766 32.6531 47.284 32.7161 47.2842C32.7393 47.2857 32.7626 47.2857 32.7858 47.2842C32.9795 47.3157 33.1754 47.3314 33.3717 47.3311C33.9708 47.3082 34.5641 47.2068 35.1361 47.0294L35.2754 46.9919C37.3644 46.4417 39.1334 44.7941 40.4416 43.4186C43.8926 39.7889 46.0022 35.3324 46.2287 31.1917C46.4029 27.9513 45.6918 23.712 43.1593 21.533Z" fill="#606060"/>
</g>
<path d="M43.1593 21.533L42.9867 21.3767C42.0491 20.5685 41.1638 19.8042 39.995 19.2305C38.6757 18.5833 37.2472 18.2488 35.9865 17.9534C35.2845 17.8185 34.5699 17.7572 33.8548 17.7705C33.6299 17.7705 33.4082 17.7611 33.196 17.7518C32.3186 17.7111 31.4887 17.8924 30.6936 18.0644H30.654C30.809 17.5227 31.0131 16.9959 31.2638 16.4903C31.712 15.5577 32.2391 14.664 32.8396 13.8189C32.8776 13.7689 32.9235 13.7142 32.9711 13.6626C33.2197 13.3671 33.5903 12.9248 33.5586 12.348C33.5586 11.5836 33.0027 11.0099 32.629 10.6285L32.5925 10.591C32.416 10.4054 32.2035 10.2568 31.9676 10.1539C31.7317 10.0511 31.4773 9.99611 31.2194 9.99231C30.7824 9.99244 30.3625 10.1607 30.049 10.4613C29.8066 10.6908 29.6465 10.9921 29.5929 11.3194C29.5929 11.3382 29.5818 11.3569 29.5771 11.3757C29.2936 12.5512 28.8866 13.7282 28.4906 14.8678C28.2277 15.6243 27.9569 16.4074 27.7193 17.1953C27.6138 17.5527 27.5208 17.9023 27.4406 18.2441L26.8071 18.166C26.0394 18.0509 25.2648 17.9856 24.4885 17.9706H24.4473C23.1977 17.9706 21.8864 18.2504 20.3295 18.8288C19.0098 19.3396 17.7966 20.0857 16.7503 21.0297C16.3829 21.3521 16.0506 21.7115 15.7588 22.102C12.9081 24.9156 12.9493 29.7614 13.0269 31.1917C13.2549 35.334 15.3645 39.7889 18.8155 43.4186C20.1237 44.7941 21.8911 46.4417 23.9817 46.9919L24.129 47.031C24.6987 47.2083 25.29 47.3098 25.8869 47.3327C26.2546 47.3335 26.6201 47.2776 26.9702 47.167C27.2702 47.0644 27.5602 46.9352 27.8365 46.7809C27.9838 46.7043 28.1248 46.6246 28.2594 46.5714C28.6009 46.4537 28.9627 46.4043 29.3237 46.426H29.6943C30.209 46.426 30.7142 46.6277 31.2495 46.8387C31.6637 47.0139 32.0917 47.1556 32.5292 47.2623C32.5904 47.2766 32.6531 47.284 32.7161 47.2842C32.7393 47.2857 32.7626 47.2857 32.7858 47.2842C32.9795 47.3157 33.1754 47.3314 33.3717 47.3311C33.9708 47.3082 34.5641 47.2068 35.1361 47.0294L35.2754 46.9919C37.3644 46.4417 39.1334 44.7941 40.4416 43.4186C43.8926 39.7889 46.0022 35.3324 46.2287 31.1917C46.4029 27.9513 45.6918 23.712 43.1593 21.533Z" fill="white"/>
<path d="M42.6542 22.105C41.6913 21.2766 40.8028 20.4809 39.653 19.9166C38.4335 19.3179 37.1316 19.0084 35.8092 18.6989C34.9872 18.5067 34.0101 18.5426 33.1659 18.5082C31.6281 18.4379 30.1663 19.1616 28.6285 19.1116C27.2268 19.0647 25.8537 18.7302 24.4521 18.738C23.1202 18.7458 21.8278 19.0913 20.5909 19.5493C19.3613 20.0277 18.2308 20.7244 17.2555 21.6048C16.9133 21.9053 16.6048 22.2412 16.3354 22.6068C14.1783 24.7077 13.643 28.3904 13.7903 31.1588C14.0294 35.5356 16.3892 39.7717 19.3714 42.9073C20.6606 44.2626 22.3061 45.7757 24.175 46.2665C25.0587 46.4994 25.8331 46.7355 26.7311 46.4525C27.1635 46.3165 27.5357 46.0633 27.949 45.8851C28.4938 45.6506 29.1131 45.6741 29.6912 45.6788C30.7824 45.6788 31.674 46.304 32.7003 46.5369C32.7218 46.538 32.7428 46.5307 32.7589 46.5166C33.5508 46.6917 34.2666 46.4791 35.0696 46.2665C36.9368 45.7757 38.5839 44.2626 39.8731 42.9073C42.8537 39.7717 45.2135 35.5293 45.4543 31.1588C45.6158 28.2685 45.0346 24.1543 42.6542 22.105Z" fill="#5E2C00"/>
<path d="M44.8017 32.2341C43.9949 36.4513 41.8389 40.3018 38.6504 43.2199C37.4262 44.3329 35.8709 45.6412 34.1494 45.9585C33.2752 46.2321 32.3661 46.1148 31.457 45.8022C30.8061 45.574 30.1029 45.1582 29.3981 45.1676C28.7646 45.1676 28.1834 45.4208 27.5911 45.6271C27.4469 45.6975 27.3012 45.7663 27.1508 45.8257C26.5553 46.0648 26.2005 46.0726 25.567 46.0242C23.6665 45.8819 21.9355 44.436 20.6036 43.223C17.4123 40.3047 15.2535 36.4531 14.4443 32.2341C13.89 29.3111 14.2559 24.7998 16.7424 22.6833C19.1338 19.7931 23.4654 18.6035 27.1191 19.557C27.4543 19.6205 27.7946 19.6534 28.1359 19.6555C29.2619 19.6415 30.3357 19.3304 31.438 19.1397C32.4675 18.9472 33.5188 18.8946 34.5627 18.9834C36.3999 19.1678 38.3495 19.6274 39.9 20.6528C40.6396 21.1358 41.3333 21.4485 41.932 22.1315C42.2487 22.3301 42.6256 22.8021 42.9044 23.0507C45.0314 25.2891 45.3275 29.4705 44.8017 32.2341Z" fill="#ED1C28"/>
<g style="mix-blend-mode:screen">
<path d="M15.6242 35.8935C14.4855 31.8949 14.5473 26.9242 17.2983 23.5446C18.6071 21.9553 20.3685 20.7896 22.3552 20.198C23.5011 19.8398 24.6977 19.6651 25.8996 19.6806C26.4284 19.7044 26.9582 19.6835 27.4834 19.618C27.363 19.6024 27.2442 19.5852 27.1255 19.5649C23.4654 18.602 19.1338 19.7915 16.7503 22.6818C14.2638 24.7983 13.8995 29.3095 14.4523 32.2326C14.753 33.8054 15.2443 35.3368 15.9157 36.7938C15.8 36.4968 15.7098 36.1967 15.6242 35.8935Z" fill="#FDE8E9"/>
</g>
<g style="mix-blend-mode:multiply">
<path d="M42.8981 23.0507C42.6193 22.8022 42.2376 22.3301 41.9256 22.1316C41.3333 21.4453 40.6396 21.1421 39.9 20.6544C38.3495 19.629 36.3999 19.1694 34.5628 18.985C33.5189 18.8962 32.4675 18.9488 31.438 19.1413C30.3294 19.332 29.262 19.643 28.1359 19.6571C27.892 19.6583 27.6484 19.6405 27.4074 19.604C27.4518 19.6524 27.4856 19.7093 27.5069 19.7711C27.5281 19.833 27.5362 19.8985 27.5307 19.9635C27.5252 20.0286 27.5062 20.0919 27.4749 20.1494C27.4436 20.2069 27.4007 20.2575 27.3488 20.298C26.8198 20.8201 25.6478 20.9936 26.0438 21.9862C26.0628 22.0331 26.085 22.08 26.1071 22.1238L26.1214 22.1488C26.1372 22.1785 26.1546 22.2066 26.1721 22.2347C26.3059 22.4352 26.4911 22.597 26.709 22.7037C26.8024 22.7521 26.899 22.7928 26.9956 22.8319C27.587 22.973 28.2024 22.9863 28.7995 22.8709C29.8004 22.6959 30.8045 22.3504 31.834 22.4348H31.8577C32.5503 22.4004 33.2415 22.525 33.8771 22.7986C34.5127 23.0723 35.0754 23.4876 35.521 24.012C36.8371 25.6189 37.4737 27.8245 37.8332 29.8222C38.25 32.2378 38.3129 34.6999 38.0201 37.133C37.8221 38.8947 37.4183 40.7533 36.373 42.2305C35.8867 42.9449 35.2423 43.5409 34.4883 43.9734C33.5729 44.4736 32.6259 44.5783 31.598 44.4423C30.5701 44.3063 29.528 43.9734 28.4764 44.1C27.3678 44.236 26.3859 44.9175 25.2424 44.9441C24.1417 44.9691 23.1693 44.4501 22.2824 43.8499C21.3588 43.2193 20.5089 42.4895 19.7484 41.674C17.9344 39.7344 16.4213 37.5405 15.2584 35.1635C16.3515 38.2361 18.188 40.9989 20.6083 43.2121C21.9403 44.4251 23.6666 45.8694 25.5718 46.0133C26.2053 46.0617 26.5585 46.0539 27.1556 45.8147C27.306 45.7553 27.4517 45.6866 27.5959 45.6162C28.1882 45.4099 28.7647 45.1629 29.4029 45.1567C30.1109 45.1473 30.814 45.5631 31.4618 45.7913C32.3756 46.1039 33.2847 46.2243 34.1542 45.9476C35.8757 45.635 37.431 44.3219 38.6552 43.209C41.8399 40.2931 43.994 36.4468 44.8017 32.2342C45.3275 29.4705 45.0314 25.2891 42.8981 23.0507Z" fill="#DB4726"/>
</g>
<path d="M32.2235 13.389C32.4247 13.1123 32.8317 12.7497 32.7969 12.3745C32.8143 11.8899 32.3566 11.4366 32.0446 11.124C31.655 10.7223 31.0246 10.6019 30.5891 11.0161C30.4456 11.152 30.3591 11.3361 30.3468 11.532C30.3397 11.5408 30.3343 11.5509 30.331 11.5617C29.8558 13.5578 29.0544 15.457 28.4621 17.4219C28.0583 18.7615 27.6702 20.6623 28.1565 22.1113C27.5564 21.9483 26.9838 21.6991 26.4571 21.372C26.5501 21.5146 26.6561 21.6486 26.7738 21.7721C26.8884 21.8899 27.0159 21.9947 27.1539 22.0847C27.3123 22.1801 27.4596 22.2676 27.6148 22.352C27.8903 22.4679 28.1864 22.5285 28.4859 22.5302C29.3562 22.5377 30.202 22.2453 30.8773 21.7033C30.4466 21.8409 30.049 21.9972 29.6357 22.0973C29.395 20.0214 29.6135 18.1253 30.5764 16.1667C31.045 15.1965 31.596 14.2673 32.2235 13.389Z" fill="#5E2C00"/>
<path d="M29.14 22.1863C28.9771 22.1989 28.8135 22.1989 28.6506 22.1863C28.5398 21.511 28.383 20.8545 28.3782 20.1542C28.3782 19.06 28.6396 17.9658 28.9547 16.9248C29.4568 15.2522 30.2059 13.6281 30.4229 11.8899C30.4623 11.9664 30.516 12.0348 30.5812 12.0915C30.4767 11.7789 30.4672 11.3803 30.6699 11.1615C31.0088 10.7926 31.5362 11.052 31.8451 11.3303C32.1539 11.6085 32.7747 12.2463 32.4786 12.6793C32.2949 12.9419 31.9148 12.9763 31.5901 12.8965C31.5758 12.9372 31.5758 12.9731 31.6059 12.995C31.6966 13.0591 31.802 13.0997 31.9126 13.1134C32.0233 13.127 32.1356 13.1132 32.2394 13.0732C32.1143 13.2092 31.9876 13.3358 31.8957 13.4483C31.6179 13.827 31.3615 14.2204 31.1276 14.6269C30.5778 15.4702 30.1127 16.3644 29.7387 17.2968C29.2097 18.6114 28.733 20.6482 29.14 22.1863Z" fill="#843A1C"/>
<g style="mix-blend-mode:screen">
<path d="M29.1638 17.747C29.4805 16.6996 29.8828 15.6633 30.2946 14.6488C30.5381 14 30.866 13.3852 31.2702 12.8199C31.088 12.3197 31.012 11.7961 31.4396 11.6835C31.815 11.585 32.1222 11.7289 32.3899 11.9696C32.2349 11.7385 32.0502 11.5283 31.8403 11.3443C31.5236 11.0661 31.0041 10.8066 30.6652 11.1755C30.4624 11.3943 30.4719 11.7929 30.5765 12.1056C30.5113 12.0488 30.4575 11.9804 30.4181 11.9039C30.2122 13.6328 29.4568 15.26 28.9547 16.9326C28.638 17.9783 28.3703 19.0647 28.3782 20.162C28.4008 20.7403 28.4739 21.3156 28.5968 21.8815C28.5422 20.4813 28.734 19.0824 29.1638 17.747Z" fill="#843A1C"/>
</g>
</g>
<defs>
<clipPath id="clip0_1_2754">
<rect width="34" height="38" fill="white" transform="translate(13 10)"/>
</clipPath>
</defs>
</svg>
