<svg width="58" height="58" viewBox="0 0 58 58" fill="none" xmlns="http://www.w3.org/2000/svg">
<circle cx="29" cy="29" r="29" fill="white"/>
<g clip-path="url(#clip0_1_2654)">
<g style="mix-blend-mode:multiply">
<path d="M9.10815 37.2419C9.39401 37.299 9.68502 37.3261 9.97648 37.323C10.4887 37.3119 10.9997 37.2673 11.5062 37.1898L11.7956 37.1507C11.8709 37.141 11.9441 37.1195 12.0127 37.087C12.072 37.087 12.1314 37.074 12.1907 37.0638C12.8275 36.9708 13.4564 36.8299 14.0721 36.6424C14.1458 37.244 14.3235 37.8281 14.5974 38.3687C14.6177 38.4078 14.638 38.4454 14.6626 38.486L14.6712 38.5019L14.7103 38.5685C14.7552 38.6409 14.8044 38.7133 14.855 38.7916L14.8681 38.8075C14.9158 38.8727 14.9694 38.9393 15.033 39.0102L15.0649 39.0464C15.2299 39.2252 15.416 39.3833 15.6192 39.5171C15.8089 39.6413 16.0112 39.7452 16.2227 39.827C16.6002 39.9925 17.0038 40.0906 17.4152 40.1167C17.5905 40.5951 17.8254 41.0496 18.1142 41.4693C17.0823 43.6417 17.0881 45.3636 18.1373 46.3615C18.662 46.8686 19.3588 47.1588 20.0882 47.1739C20.1825 47.1737 20.2767 47.1684 20.3704 47.158C21.4167 47.0334 22.0491 46.1442 22.4341 45.4824C22.7556 44.8874 23.0164 44.2615 23.2127 43.6142L23.2764 43.6229C24.1255 43.7404 24.9799 43.8154 25.8365 43.8473H25.9002C26.1462 43.8473 26.3937 43.8473 26.6411 43.8473C26.7772 43.8473 26.9176 43.8328 27.0753 43.8184H27.1231C27.9867 43.7526 28.8173 43.4582 29.5298 42.9654C30.109 42.5709 30.6174 42.0813 31.0334 41.5171C31.4126 41.0175 31.757 40.4918 32.0914 39.9849C32.3808 39.5432 32.6847 39.0855 32.9988 38.6612C33.1772 38.4137 33.3705 38.1772 33.5776 37.953C33.796 37.7367 34.0388 37.5467 34.3013 37.3868L34.3302 37.3694C34.8279 37.082 35.311 36.7697 35.7774 36.4338C35.7615 37.3622 35.9004 38.2601 36.3751 39.0406C36.7905 39.73 37.4084 40.2282 37.954 40.667L38.2623 40.9147C39.0498 41.5236 39.8062 42.1718 40.5286 42.8567L40.6429 42.9712C40.9082 43.2684 41.2262 43.5139 41.5807 43.6953C41.7291 43.7684 41.8869 43.8206 42.0496 43.8502C42.1414 43.8665 42.2343 43.8747 42.3275 43.8748C43.1495 43.8748 43.9194 43.2622 44.4202 42.8611L44.507 42.7916C45.6675 41.8756 46.5686 40.6719 47.1207 39.2999C47.4603 38.4763 47.5824 37.579 47.4752 36.6945C47.4195 36.3215 47.3011 35.9606 47.125 35.6272C46.5633 34.5886 46.1811 33.4624 45.9947 32.2962C45.8732 31.4896 46.2306 30.5294 46.5447 29.6894L46.6199 29.491C46.7111 29.2535 46.8124 29.0044 46.9094 28.7481C47.4651 27.378 48.1583 25.6749 47.9007 24.0906V24.0674C47.8891 23.9964 47.8747 23.9226 47.8602 23.8574C47.8457 23.7922 47.8255 23.7126 47.8067 23.6445V23.6315C47.6492 23.0764 47.371 22.563 46.9919 22.1282C45.8529 20.8074 44.1163 20.2281 42.5837 19.7082C42.2045 19.5793 41.8441 19.4591 41.504 19.3317L41.4722 19.3186L41.3275 19.2607L41.3087 19.252C41.2233 19.2173 41.1393 19.1825 41.0612 19.1463L41.0062 19.1202L40.8615 19.0507C40.3894 18.8074 39.9582 18.4917 39.5836 18.1152C39.4027 17.937 39.2261 17.756 39.0496 17.5735C38.6453 17.1426 38.2187 16.7332 37.7717 16.3469C36.7571 15.5015 35.5877 14.862 34.3287 14.4642L34.3085 14.4569L34.0364 14.3744L33.7904 14.3063L33.7267 14.2904C32.7533 14.0369 31.7513 13.9099 30.7454 13.9124C28.4976 13.9242 26.2885 14.4993 24.3198 15.5851C23.6831 15.9251 23.0714 16.3098 22.4891 16.7364C22.0461 16.5657 21.5759 16.4764 21.1012 16.4729C20.6092 16.4679 20.123 16.5788 19.6817 16.7967C19.2405 17.0146 18.8567 17.3333 18.5614 17.727C18.188 18.2136 17.9825 18.777 17.7943 19.2737C17.748 19.4012 17.7003 19.5272 17.6496 19.6503C17.3602 20.3744 17.0288 21.1217 16.5975 22.008C15.9882 23.2651 15.266 24.5772 14.3239 26.1398C13.8811 26.8755 13.1502 27.4896 12.4425 28.0833L12.4208 28.1007C12.0026 28.4526 11.5626 28.8017 11.1371 29.1391C10.6856 29.4968 10.2182 29.8632 9.76663 30.2484L9.72901 30.2803C9.04592 30.8596 8.27021 31.5098 7.84763 32.4164C7.40189 33.3868 7.23112 35.0493 7.79408 36.2224C7.91801 36.4835 8.10149 36.7117 8.32974 36.8888C8.55799 37.0659 8.82463 37.1869 9.10815 37.2419Z" fill="white"/>
<path d="M8.97934 37.1593C9.26535 37.2151 9.55628 37.2418 9.84767 37.2389C10.36 37.2285 10.871 37.1839 11.3774 37.1057L11.6668 37.0681C11.7418 37.0585 11.8147 37.0365 11.8825 37.0029C11.9432 37.0029 12.0026 36.9898 12.0619 36.9812C12.6988 36.8877 13.3277 36.7464 13.9433 36.5583C14.0217 37.1606 14.2028 37.745 14.4788 38.286L14.5439 38.4033L14.554 38.4193C14.567 38.4424 14.5801 38.4656 14.5931 38.4844C14.638 38.5583 14.6872 38.6292 14.7378 38.7075L14.7508 38.7248C14.8 38.7886 14.8536 38.8552 14.9173 38.9276L14.9491 38.9623C15.1136 39.1415 15.2992 39.3001 15.5019 39.4345C15.6928 39.5567 15.8949 39.6604 16.1054 39.7444C16.4847 39.9063 16.8881 40.0041 17.2994 40.034C17.4745 40.5123 17.7088 40.9667 17.9969 41.3867C16.9665 43.559 16.9709 45.281 18.0215 46.2788C18.5469 46.7885 19.2465 47.079 19.9782 47.0913C20.0749 47.0916 20.1716 47.0858 20.2676 47.0739C21.3139 46.9493 21.9464 46.0601 22.3313 45.3983C22.6526 44.8036 22.9134 44.1782 23.1099 43.5315H23.1722C23.9812 43.6343 24.8509 43.7328 25.7323 43.756H25.796C26.0434 43.756 26.2909 43.756 26.5384 43.756C26.6744 43.756 26.8134 43.7415 26.9726 43.7256H27.0203C27.8795 43.6536 28.7051 43.3586 29.4155 42.8697C29.9933 42.474 30.501 41.9845 30.9177 41.4214C31.2968 40.9218 31.6413 40.3975 31.977 39.8907C32.2665 39.4489 32.5704 38.9913 32.8844 38.5655C33.0624 38.3176 33.2557 38.081 33.4633 37.8573C33.6814 37.6408 33.9243 37.4507 34.1869 37.2911L34.2159 37.2737C34.7136 36.9863 35.1966 36.674 35.6631 36.3381C35.6472 37.2679 35.7875 38.1658 36.2622 38.9536C36.6776 39.643 37.2955 40.1397 37.8397 40.5786L38.1479 40.8262C38.9483 41.4692 39.7037 42.076 40.4099 42.7683L40.5243 42.8827C40.7922 43.1777 41.1102 43.4228 41.4635 43.6068C41.6121 43.6785 41.7692 43.7311 41.931 43.7632C42.0232 43.7794 42.1166 43.7877 42.2103 43.7878C43.0323 43.7878 43.8022 43.1738 44.3029 42.7741L44.3883 42.706C45.5482 41.7885 46.4494 40.5846 47.0034 39.2129C47.3392 38.3903 47.4592 37.4954 47.3522 36.6133C47.2986 36.2405 47.1806 35.8798 47.0034 35.5474C46.4448 34.5075 46.0628 33.3818 45.8732 32.2165C45.7502 31.4098 46.1076 30.4511 46.4231 29.6097L46.4984 29.4113C46.5881 29.1737 46.6894 28.9261 46.7878 28.6683C47.345 27.2997 48.0382 25.5952 47.7792 24.0108V23.9876C47.7676 23.9162 47.7545 23.8467 47.7401 23.7791C47.7242 23.7067 47.7068 23.6343 47.6865 23.5662V23.5532C47.5263 22.9987 47.2484 22.4855 46.8717 22.0484C45.7357 20.7335 43.999 20.1498 42.4679 19.6342C42.0873 19.5068 41.7283 19.3851 41.3883 19.2577L41.355 19.2461L41.2102 19.1867L41.19 19.1795C41.106 19.1447 41.0221 19.1085 40.944 19.0723L40.8875 19.0463C40.8369 19.0231 40.7848 18.9985 40.7428 18.9767C40.2694 18.7348 39.8376 18.419 39.4635 18.0412C39.284 17.8631 39.1074 17.682 38.9309 17.501C38.5261 17.0701 38.0991 16.6606 37.6515 16.2743C36.6353 15.4323 35.467 14.7932 34.2101 14.3916H34.1884C34.0972 14.3627 34.0046 14.3352 33.9163 14.3105L33.6717 14.241L33.6225 14.228C32.6491 13.9746 31.6471 13.8476 30.6412 13.85C28.3919 13.8591 26.1808 14.4322 24.2098 15.5169C23.5733 15.8571 22.9615 16.2418 22.3791 16.6683C21.9361 16.4976 21.4659 16.4083 20.9912 16.4047C20.4993 16.4001 20.0131 16.5111 19.572 16.729C19.1308 16.9468 18.747 17.2653 18.4514 17.6589C18.0765 18.1455 17.8725 18.7088 17.6843 19.2056C17.6366 19.333 17.5903 19.459 17.5396 19.5821C17.2502 20.3062 16.9173 21.0535 16.4875 21.9398C15.8768 23.1969 15.1546 24.5104 14.2139 26.0716C13.7711 26.8073 13.0402 27.4214 12.3325 28.0152L12.3108 28.0325C11.8911 28.3845 11.4512 28.7335 11.0257 29.0709C10.5742 29.4286 10.1082 29.795 9.65519 30.1817L9.61901 30.2121C8.93448 30.7914 8.16022 31.4431 7.73763 32.3497C7.29045 33.3186 7.12112 34.9812 7.68408 36.1542C7.80792 36.4103 7.98928 36.6343 8.21397 36.8087C8.43867 36.9831 8.70062 37.1031 8.97934 37.1593Z" fill="#F1F1F1"/>
<path d="M8.85197 37.0753C9.13783 37.1323 9.42883 37.1595 9.7203 37.1564C10.2329 37.1469 10.7444 37.1038 11.2515 37.0275L11.5409 36.9884C11.6157 36.9786 11.6884 36.9571 11.7565 36.9247C11.8173 36.9247 11.8766 36.9117 11.936 36.9015C12.5728 36.8084 13.2017 36.6675 13.8174 36.4801C13.8921 37.0814 14.0698 37.6654 14.3427 38.2064C14.363 38.2455 14.3847 38.2817 14.4078 38.3237L14.418 38.3396C14.431 38.3628 14.444 38.3874 14.4556 38.4062C14.5019 38.4787 14.5511 38.5511 14.6075 38.6293L14.6206 38.6452C14.6698 38.7089 14.7233 38.7755 14.7855 38.848L14.8188 38.8842C14.9837 39.0625 15.1693 39.2205 15.3717 39.3548C15.5622 39.4776 15.7644 39.5814 15.9752 39.6648C16.3542 39.8274 16.7577 39.9253 17.1691 39.9544C17.3445 40.4326 17.5789 40.8869 17.8667 41.3071C16.8363 43.4794 16.8406 45.2013 17.8913 46.1977C18.4146 46.7063 19.1113 46.9972 19.8407 47.0116C19.9374 47.0121 20.0341 47.0063 20.1301 46.9943C21.1764 46.8712 21.8103 45.9805 22.1938 45.3201C22.5165 44.7257 22.7774 44.0996 22.9724 43.4519L23.0361 43.4606C23.8852 43.5782 24.7397 43.6531 25.5962 43.685H25.6599C25.9074 43.685 26.1549 43.6923 26.4009 43.685C26.5456 43.685 26.6773 43.6706 26.8351 43.6546H26.8843C27.7436 43.5834 28.5693 43.2883 29.2794 42.7987C29.857 42.4028 30.3646 41.9133 30.7816 41.3505C31.1608 40.8494 31.5052 40.3251 31.841 39.8183C32.1304 39.3766 32.4329 38.9189 32.7484 38.4946C32.9263 38.2466 33.1197 38.0101 33.3273 37.7864C33.5452 37.5697 33.7881 37.3796 34.0509 37.2201L34.0798 37.2028C34.5778 36.9157 35.0608 36.6034 35.527 36.2672C35.5111 37.1955 35.65 38.0934 36.1247 38.8813C36.5415 39.5706 37.1595 40.0688 37.7036 40.5062L38.0119 40.7538C38.7977 41.3611 39.5527 42.0073 40.2739 42.6901L40.3882 42.8031C40.6561 43.098 40.9741 43.3432 41.3275 43.5272C41.4752 43.6022 41.6325 43.6567 41.7949 43.6894C41.8871 43.7057 41.9806 43.7139 42.0742 43.714C42.8948 43.714 43.6662 43.1014 44.1654 42.7003L44.2523 42.6307C45.414 41.7103 46.3155 40.5022 46.8674 39.126C47.202 38.3031 47.322 37.4085 47.2162 36.5264C47.1618 36.1536 47.0433 35.7929 46.8659 35.4605C46.3084 34.4202 45.927 33.2947 45.7371 32.1296C45.6141 31.3229 45.9716 30.3628 46.2871 29.5156L46.3609 29.3186C46.452 29.0811 46.5533 28.832 46.6575 28.5757C47.2147 27.2056 47.9065 25.5011 47.6489 23.9167V23.895C47.6373 23.824 47.6243 23.7501 47.6084 23.685C47.5924 23.6198 47.5751 23.5401 47.5548 23.4721C47.5548 23.4721 47.5548 23.4634 47.5548 23.459C47.398 22.903 47.1191 22.3889 46.7386 21.9543C45.5938 20.6408 43.8572 20.0557 42.3289 19.5401C41.9483 19.4127 41.5894 19.2925 41.2479 19.165L41.216 19.152L41.0713 19.0941L41.051 19.0854C40.9656 19.0506 40.8832 19.0144 40.8036 18.9797L40.7486 18.9536L40.6038 18.8826C40.1307 18.6417 39.6992 18.3263 39.326 17.9485C39.1451 17.7704 38.9685 17.5879 38.7934 17.4069C38.3886 16.9759 37.9616 16.5665 37.514 16.1802C36.4969 15.3386 35.3283 14.6995 34.0711 14.2975H34.0509C33.9597 14.2671 33.8671 14.2411 33.7788 14.215L33.5342 14.1455L33.4836 14.1339C32.5101 13.8803 31.5081 13.7533 30.5023 13.7559C28.2532 13.7655 26.0423 14.338 24.0709 15.4214C23.4349 15.7644 22.8236 16.1515 22.2416 16.58C21.7981 16.4089 21.3275 16.3191 20.8523 16.3149C20.3604 16.3103 19.8744 16.4216 19.4334 16.6397C18.9924 16.8578 18.6089 17.1767 18.3139 17.5705C17.939 18.0571 17.735 18.6205 17.5468 19.1172C17.4991 19.2432 17.4528 19.3707 17.4021 19.4938C17.1127 20.2179 16.7798 20.9652 16.3485 21.8515C15.7393 23.1086 15.0171 24.4207 14.0764 25.9833C13.6336 26.719 12.9027 27.3331 12.195 27.9254L12.1748 27.9442C11.7551 28.2961 11.3151 28.6452 10.8896 28.9826C10.4381 29.3403 9.97067 29.7067 9.51914 30.0919L9.48151 30.1224C8.79842 30.7017 8.02416 31.3534 7.60013 32.2599C7.15439 33.2288 6.98362 34.8928 7.54658 36.0645C7.67063 36.3229 7.85321 36.5489 8.07982 36.7244C8.30643 36.8998 8.57081 37.02 8.85197 37.0753Z" fill="#E2E2E2"/>
<path d="M8.7246 36.9928C9.01062 37.0486 9.30155 37.0753 9.59293 37.0725C10.1052 37.0613 10.6162 37.0168 11.1226 36.9392L11.4121 36.9016C11.4874 36.8911 11.5606 36.8692 11.6292 36.8364L11.8072 36.8147C12.4441 36.7214 13.073 36.5801 13.6886 36.3918C13.764 36.9935 13.9417 37.5778 14.2139 38.1195C14.2356 38.1572 14.2559 38.1949 14.2805 38.2354L14.2891 38.2513C14.3022 38.276 14.3166 38.2991 14.3282 38.318C14.3731 38.3904 14.4223 38.4628 14.4802 38.541C14.4838 38.5473 14.4882 38.5531 14.4932 38.5584C14.541 38.6221 14.5945 38.6887 14.6582 38.7597L14.69 38.7959C14.8554 38.9747 15.0415 39.1332 15.2443 39.268C15.4349 39.3908 15.637 39.4946 15.8478 39.5779C16.2266 39.7398 16.6295 39.8377 17.0403 39.8676C17.2153 40.3461 17.4502 40.8006 17.7393 41.2202C16.7074 43.3926 16.7132 45.1145 17.7625 46.1123C18.2865 46.6206 18.9837 46.911 19.7133 46.9248C19.8076 46.9246 19.9018 46.9193 19.9955 46.9089C21.0418 46.7843 21.6743 45.8951 22.0592 45.2333C22.3807 44.6382 22.6416 44.0123 22.8378 43.365L22.9015 43.3737C23.7506 43.4913 24.6051 43.5662 25.4616 43.5982H25.5253C25.7713 43.5982 26.0188 43.5982 26.2663 43.5982C26.4023 43.5982 26.5427 43.5837 26.7005 43.5692H26.7482C27.6074 43.4985 28.4332 43.204 29.1434 42.7148C29.7211 42.3191 30.2289 41.8296 30.6456 41.2665C31.0247 40.7669 31.3692 40.2427 31.7049 39.7358C31.9944 39.2926 32.2983 38.8364 32.6123 38.4106C32.7908 38.1631 32.9841 37.9266 33.1912 37.7025C33.4099 37.4866 33.6527 37.2966 33.9148 37.1362L33.9438 37.1188C34.4415 36.8314 34.9245 36.5191 35.391 36.1833C35.3751 37.1116 35.514 38.0095 35.9887 38.7973C36.404 39.4881 37.022 39.9849 37.5676 40.4237L37.8744 40.6713C38.6609 41.2804 39.4163 41.9285 40.1378 42.6134L40.2522 42.7278C40.5196 43.0227 40.8371 43.2678 41.19 43.4519C41.3389 43.5236 41.4965 43.5757 41.6589 43.6069C41.7505 43.6239 41.8435 43.6321 41.9367 43.6315C42.7587 43.6315 43.5287 43.0189 44.0294 42.6178L44.1162 42.5497C45.2754 41.6318 46.1761 40.428 46.7299 39.0566C47.07 38.232 47.1935 37.3341 47.0888 36.4483C47.0347 36.0749 46.9162 35.7138 46.7386 35.3809C46.1811 34.3405 45.7992 33.215 45.6083 32.05C45.4867 31.2433 45.8442 30.2832 46.1582 29.4432L46.2335 29.2448C46.3247 29.0073 46.426 28.7582 46.5229 28.5018C47.0787 27.1333 47.7719 25.4287 47.5143 23.8443V23.8212C47.5027 23.7502 47.4882 23.6763 47.4738 23.6112C47.4593 23.546 47.439 23.4663 47.4202 23.3983V23.3852C47.2633 22.8272 46.9856 22.3105 46.6069 21.8718C45.4723 20.5568 43.7356 19.9732 42.203 19.4576C41.8224 19.3302 41.4635 19.2085 41.1234 19.0811L41.0916 19.0695L40.9396 19.0101L40.9193 19.0014C40.8354 18.9667 40.7515 18.9319 40.6733 18.8957L40.6169 18.8697L40.4721 18.8001C39.9992 18.5582 39.5679 18.2424 39.1943 17.8646C39.0134 17.6864 38.8368 17.5054 38.6602 17.3229C38.2556 16.8924 37.8291 16.483 37.3823 16.0963C36.3573 15.2665 35.1909 14.6287 33.9394 14.2136L33.9192 14.2063L33.6471 14.1252C33.5646 14.1006 33.4835 14.0775 33.4011 14.0557L33.3519 14.0427C32.3784 13.7892 31.3764 13.6622 30.3706 13.6647C28.1213 13.6738 25.9101 14.2469 23.9392 15.3316C23.3026 15.6745 22.6908 16.0616 22.1084 16.4902C21.6655 16.3194 21.1953 16.2302 20.7206 16.2266C20.2285 16.2207 19.7419 16.3307 19.3001 16.5479C18.8584 16.765 18.4739 17.0831 18.1778 17.4765C17.8044 17.9631 17.5989 18.5264 17.4108 19.0232C17.3645 19.1506 17.3167 19.2766 17.2661 19.3997C16.9766 20.1238 16.6452 20.8711 16.2139 21.7574C15.6047 23.0145 14.8825 24.3266 13.9404 25.8892C13.4975 26.6249 12.7667 27.239 12.059 27.8328L12.0373 27.8501C11.619 28.2021 11.1791 28.5511 10.7536 28.8885C10.3021 29.2462 9.83462 29.6126 9.38309 29.9979L9.34546 30.0297C8.66238 30.609 7.88667 31.2593 7.46408 32.1673C7.01834 33.1362 6.84757 34.7987 7.41054 35.9718C7.53467 36.2329 7.71818 36.4612 7.94638 36.6385C8.17458 36.8158 8.4411 36.9372 8.7246 36.9928Z" fill="#D4D4D4"/>
<path d="M8.59727 36.9087C8.88311 36.9659 9.17413 36.9931 9.4656 36.9898C9.97785 36.9786 10.4888 36.9341 10.9953 36.8566L11.2847 36.8175C11.3595 36.8076 11.4323 36.7861 11.5004 36.7538C11.5612 36.7538 11.6205 36.7393 11.6798 36.7306C12.3165 36.6369 12.9454 36.4961 13.5612 36.3092C13.6383 36.9128 13.8185 37.4987 14.0938 38.0413L14.1589 38.1586L14.169 38.1745C14.1821 38.1977 14.1965 38.2208 14.2081 38.2397C14.253 38.3135 14.3036 38.3845 14.3528 38.4641L14.3659 38.4801C14.4151 38.5438 14.4686 38.6104 14.5323 38.6828L14.5641 38.7176C14.7286 38.8968 14.9143 39.0553 15.117 39.1897C15.3079 39.3119 15.5099 39.4157 15.7205 39.4996C16.0997 39.6615 16.5032 39.7593 16.9144 39.7893C17.0901 40.2673 17.3244 40.7216 17.612 41.1419C16.5816 43.3143 16.5859 45.0348 17.6366 46.0326C18.1599 46.5412 18.8566 46.8321 19.586 46.8465C19.6827 46.8468 19.7794 46.841 19.8754 46.8291C20.9217 46.706 21.5542 45.8154 21.9391 45.1535C22.2606 44.559 22.5215 43.9336 22.7177 43.2867L22.7814 43.2954C23.63 43.413 24.484 43.4879 25.3401 43.5199H25.4038C25.6512 43.5199 25.8987 43.5199 26.1462 43.5199C26.2822 43.5199 26.4212 43.5054 26.5804 43.4895H26.6281C27.4874 43.4182 28.3132 43.1232 29.0233 42.6336C29.6005 42.2372 30.1081 41.7478 30.5255 41.1854C30.9046 40.6843 31.2491 40.16 31.5848 39.6531C31.8743 39.2114 32.1782 38.7538 32.4922 38.3295C32.6698 38.0812 32.8632 37.8447 33.0711 37.6213C33.2887 37.4041 33.5317 37.214 33.7947 37.055L33.8251 37.0376C34.3232 36.7502 34.8062 36.4375 35.2723 36.1006C35.2578 37.0304 35.3968 37.9283 35.8715 38.7161C36.2868 39.4055 36.9048 39.9022 37.4489 40.341L37.7572 40.5887C38.5427 41.1978 39.2971 41.846 40.0177 42.5308C40.0568 42.567 40.0944 42.6061 40.1321 42.6437C40.4 42.9387 40.718 43.1839 41.0713 43.3678C41.2208 43.4379 41.379 43.4875 41.5417 43.5156C41.6339 43.5318 41.7273 43.54 41.821 43.5402C42.643 43.5402 43.4129 42.9276 43.9136 42.5264L43.999 42.4569C45.1571 41.5375 46.0559 40.3321 46.6069 38.9594C46.9426 38.1368 47.0632 37.2421 46.9571 36.3599C46.9026 35.9857 46.7841 35.6236 46.6069 35.2896C46.049 34.2494 45.667 33.1238 45.4766 31.9587C45.3536 31.1506 45.7111 30.1918 46.0266 29.3519L46.1018 29.1549C46.1916 28.9174 46.2929 28.6683 46.3985 28.4105C46.9542 27.0419 47.6474 25.3374 47.3884 23.753V23.7313C47.3754 23.6603 47.3623 23.5865 47.3479 23.5213C47.3334 23.4561 47.3131 23.3765 47.2943 23.3084V23.2954C47.1341 22.7409 46.8562 22.2277 46.4795 21.7907C45.3435 20.4771 43.6083 19.892 42.0757 19.3765C41.6951 19.249 41.3361 19.1288 40.9961 18.9999L40.9628 18.9883L40.818 18.9304L40.7978 18.9217L40.5518 18.816L40.4953 18.7899L40.3506 18.719C39.8772 18.4784 39.4457 18.163 39.0727 17.7848C38.8918 17.6067 38.7152 17.4242 38.5387 17.2432C38.1343 16.8119 37.7072 16.4025 37.2593 16.0166C36.2427 15.175 35.0746 14.536 33.8179 14.1339H33.7962C33.705 14.1034 33.6124 14.0774 33.5241 14.0513L33.2795 13.9818L33.2303 13.9688C32.2568 13.7158 31.2548 13.5892 30.249 13.5922C27.9998 13.6009 25.7887 14.1735 23.8176 15.2577C23.1806 15.5998 22.5688 15.9869 21.9869 16.4163C21.544 16.2452 21.0738 16.1554 20.599 16.1512C20.1071 16.1466 19.6209 16.2577 19.1798 16.4755C18.7386 16.6934 18.3548 17.0119 18.0592 17.4054C17.6843 17.8935 17.4803 18.4554 17.2921 18.9536C17.2444 19.0796 17.1981 19.207 17.1474 19.3301C16.858 20.0542 16.5251 20.8015 16.0953 21.6878C15.4846 22.9434 14.7624 24.257 13.8217 25.8182C13.3789 26.5539 12.648 27.1679 11.9403 27.7617L11.9186 27.7791C11.4989 28.1325 11.059 28.4815 10.6335 28.8189C10.182 29.1766 9.71597 29.543 9.26299 29.9283L9.22681 29.9587C8.54228 30.538 7.76802 31.1897 7.34543 32.0963C6.89969 33.0651 6.72892 34.7291 7.29188 35.9008C7.41637 36.1586 7.59914 36.384 7.82571 36.5589C8.05228 36.7339 8.31644 36.8536 8.59727 36.9087Z" fill="#C5C5C5"/>
<path d="M8.46845 36.8263C8.75448 36.882 9.0454 36.9087 9.33678 36.9059C9.84904 36.8949 10.36 36.8504 10.8665 36.7727L11.1559 36.735C11.2308 36.7247 11.3035 36.7027 11.3716 36.6699C11.4323 36.6699 11.4917 36.6568 11.551 36.6481C12.1877 36.5539 12.8166 36.4125 13.4324 36.2253C13.507 36.8266 13.6847 37.4106 13.9577 37.9515C13.978 37.9907 13.9997 38.0283 14.0229 38.0689L14.0315 38.0848C14.046 38.108 14.059 38.1326 14.0706 38.1514C14.1169 38.2238 14.1676 38.2962 14.2226 38.3744L14.2356 38.3904C14.2848 38.4555 14.3384 38.5222 14.4006 38.5931L14.4339 38.6293C14.5981 38.8084 14.7837 38.9665 14.9867 39.1C15.1773 39.2228 15.3794 39.3266 15.5902 39.4099C15.9692 39.5726 16.3728 39.6705 16.7841 39.6996C16.9596 40.1777 17.1939 40.6321 17.4817 41.0522C16.4513 43.2246 16.4556 44.9465 17.5063 45.9443C18.0298 46.4525 18.7265 46.7429 19.4557 46.7568C19.5524 46.7568 19.649 46.7515 19.7451 46.7409C20.79 46.6163 21.4239 45.7271 21.8074 45.0653C22.1291 44.4707 22.3891 43.8447 22.5831 43.197L22.6468 43.2057C23.4959 43.3233 24.3503 43.3982 25.2069 43.4302H25.2706C25.5181 43.4302 25.7656 43.4302 26.013 43.4302C26.1476 43.4302 26.288 43.4157 26.44 43.4012H26.4892C27.3478 43.3276 28.1728 43.0333 28.8843 42.5468C29.4615 42.1503 29.969 41.6609 30.3865 41.0986C30.7657 40.5989 31.1101 40.0747 31.4459 39.5678C31.7353 39.1246 32.0392 38.6684 32.3533 38.2426C32.5309 37.9944 32.7242 37.7578 32.9322 37.5345C33.1501 37.3178 33.393 37.1277 33.6558 36.9682L33.6847 36.9508C34.1827 36.6637 34.6657 36.3515 35.1319 36.0153C35.116 36.9436 35.2549 37.8415 35.7296 38.6221C36.1464 39.3129 36.7644 39.8096 37.3085 40.2484L37.6342 40.5033C38.4205 41.112 39.1755 41.7602 39.8961 42.4454C39.9338 42.4831 39.9729 42.5207 40.0105 42.5598C40.2788 42.8544 40.5967 43.0995 40.9497 43.2839C41.0981 43.3559 41.2552 43.408 41.4172 43.4389C41.5094 43.4552 41.6028 43.4634 41.6965 43.4635C42.5171 43.4635 43.2884 42.8509 43.7877 42.4498L43.8745 42.3802C45.0344 41.4632 45.9356 40.2599 46.4897 38.8886C46.8249 38.0658 46.9449 37.1711 46.8384 36.289C46.785 35.9154 46.6664 35.5542 46.4882 35.2216C45.9307 34.1813 45.5493 33.0558 45.3594 31.8907C45.2364 31.084 45.5938 30.1239 45.9093 29.2839L45.9831 29.0855C46.0743 28.848 46.1756 28.5989 46.2798 28.3425C46.837 26.9725 47.5288 25.2694 47.2712 23.685V23.6618C47.2596 23.5909 47.2466 23.517 47.2306 23.4519C47.2147 23.3867 47.1959 23.307 47.1771 23.239C47.1771 23.239 47.1771 23.2303 47.1771 23.2259C47.0131 22.6732 46.735 22.1611 46.3609 21.7227C45.2262 20.4077 43.4896 19.824 41.9584 19.3085C41.5778 19.1796 41.2175 19.0594 40.8774 18.9319L40.8455 18.9189L40.7008 18.861L40.682 18.8523C40.5966 18.8175 40.5141 18.7828 40.4345 18.7466L40.3795 18.7205L40.2348 18.651C39.7535 18.4056 39.3151 18.0838 38.9366 17.698C38.7557 17.5199 38.5792 17.3389 38.4041 17.1564C37.9989 16.7258 37.5719 16.3164 37.1247 15.9297C36.1102 15.0844 34.9408 14.4449 33.6818 14.047L33.6616 14.0398C33.5689 14.0108 33.4778 13.9833 33.3895 13.9587C33.3012 13.9341 33.2259 13.9109 33.1449 13.8892L33.0957 13.8762C32.1202 13.6233 31.1163 13.4972 30.1086 13.5011C27.8593 13.5102 25.6482 14.0833 23.6772 15.168C23.0421 15.5077 22.4318 15.8919 21.8508 16.3179C21.4073 16.1471 20.9367 16.0578 20.4615 16.0543C19.9698 16.0494 19.4837 16.1604 19.0428 16.3783C18.6018 16.5962 18.2182 16.9148 17.9231 17.3085C17.5483 17.7951 17.3442 18.3584 17.1561 18.8552C17.1083 18.9826 17.062 19.1086 17.0114 19.2317C16.7219 19.9558 16.3891 20.7031 15.9578 21.5894C15.3485 22.8465 14.6263 24.1586 13.6857 25.7212C13.2428 26.4569 12.512 27.071 11.8043 27.6648L11.784 27.6821C11.3643 28.0341 10.9244 28.3831 10.4989 28.7205C10.0474 29.0782 9.57991 29.4446 9.12838 29.8299L9.0922 29.8617C8.40767 30.441 7.63341 31.0913 7.21082 31.9993C6.76364 32.9682 6.59286 34.6308 7.15583 35.8038C7.27964 36.065 7.46286 36.2935 7.6908 36.471C7.91874 36.6486 8.18507 36.7703 8.46845 36.8263Z" fill="#B7B7B7"/>
<path d="M8.3411 36.7379C8.62712 36.7937 8.91805 36.8204 9.20943 36.8176C9.72172 36.8071 10.2327 36.7626 10.7391 36.6843L11.0286 36.6467C11.104 36.6371 11.1774 36.6151 11.2457 36.5815C11.3055 36.5757 11.3648 36.5685 11.4237 36.5598C12.0606 36.4665 12.6895 36.3252 13.3051 36.1369C13.381 36.7386 13.5591 37.323 13.8318 37.8646C13.8506 37.9023 13.8724 37.9399 13.897 37.9819L13.9056 37.9979L13.9447 38.063C13.9896 38.1369 14.0402 38.2079 14.0967 38.2861C14.0999 38.2926 14.1043 38.2985 14.1097 38.3034C14.1575 38.3672 14.211 38.4338 14.2747 38.5062L14.3065 38.541C14.4715 38.7202 14.6576 38.8787 14.8608 39.0131C15.051 39.1356 15.2527 39.2394 15.4628 39.323C15.8419 39.4854 16.2455 39.5833 16.6568 39.6126C16.8321 40.0916 17.067 40.5465 17.3558 40.9667C16.3239 43.1391 16.3297 44.8596 17.379 45.8574C17.9028 46.3661 18.6 46.657 19.3298 46.6713C19.4266 46.6717 19.5232 46.6659 19.6192 46.6539C20.6656 46.5294 21.298 45.6402 21.683 44.9783C22.0043 44.3832 22.2651 43.7574 22.4616 43.1101L22.5253 43.1174C23.3743 43.2357 24.2287 43.3106 25.0854 43.3418H25.149C25.3951 43.3418 25.6426 43.3418 25.89 43.3418C26.0261 43.3418 26.1664 43.3274 26.3242 43.3114H26.3719C27.2311 43.2395 28.0567 42.9445 28.7671 42.4555C29.345 42.0599 29.8527 41.5704 30.2693 41.0073C30.6485 40.5062 30.9929 39.9819 31.3287 39.4751C31.6181 39.0334 31.922 38.5757 32.2361 38.1499C32.4149 37.9027 32.6082 37.6662 32.8149 37.4417C33.0337 37.2259 33.2764 37.0359 33.5386 36.8755L33.5675 36.8581C34.0652 36.5707 34.5483 36.2584 35.0147 35.9226C34.9988 36.8523 35.1377 37.7502 35.6124 38.5381C36.0278 39.2274 36.6457 39.7242 37.1913 40.163L37.4996 40.4106C38.2984 41.0536 39.0553 41.6604 39.7616 42.3527L39.8759 42.4671C40.1429 42.7624 40.4605 43.0076 40.8137 43.1912C40.9629 43.2627 41.1204 43.3153 41.2826 43.3476C41.3743 43.3639 41.4673 43.3722 41.5605 43.3723C42.3825 43.3723 43.1524 42.7582 43.6531 42.3585L43.74 42.2904C44.8994 41.3728 45.8002 40.169 46.3536 38.7973C46.6894 37.9747 46.8099 37.0799 46.7039 36.1977C46.6497 35.8248 46.5312 35.4641 46.3536 35.1318C45.7963 34.0913 45.4144 32.9659 45.2234 31.8009C45.1018 30.9942 45.4593 30.0355 45.7733 29.1941L45.8486 28.9957C45.9397 28.7582 46.041 28.5105 46.138 28.2527C46.6937 26.8841 47.3869 25.1796 47.1293 23.5952V23.572C47.1178 23.5011 47.1033 23.4272 47.0888 23.3635C47.0743 23.2998 47.0555 23.2187 47.0353 23.1506V23.1376C46.8799 22.5812 46.6014 22.0669 46.2205 21.6329C45.0859 20.3179 43.3492 19.7342 41.8166 19.2187C41.436 19.0912 41.0771 18.9696 40.737 18.8421L40.7052 18.8305L40.5604 18.7712L40.5416 18.7639C40.4562 18.7292 40.3723 18.6929 40.2941 18.6582L40.2392 18.6307C40.1871 18.6075 40.1364 18.5829 40.0944 18.5612C39.6179 18.3191 39.1834 18.0017 38.8079 17.6213C38.627 17.4431 38.4504 17.2606 38.2738 17.0796C37.8699 16.6483 37.4434 16.2389 36.9959 15.853C35.9763 15.0152 34.8084 14.3765 33.553 13.9703H33.5328C33.4401 13.9398 33.3475 13.9152 33.2607 13.8892C33.1739 13.8631 33.0972 13.8414 33.0147 13.8196L32.9655 13.8066C31.992 13.5531 30.99 13.4261 29.9842 13.4286C27.7349 13.4377 25.5237 14.0108 23.5528 15.0955C22.9162 15.4384 22.3044 15.8255 21.722 16.2541C21.2791 16.0834 20.8089 15.9941 20.3342 15.9905C19.8422 15.9859 19.3561 16.097 18.9149 16.3148C18.4738 16.5327 18.0899 16.8512 17.7943 17.2447C17.4209 17.7313 17.2154 18.2947 17.0273 18.7914C16.981 18.9189 16.9332 19.0449 16.8826 19.168C16.5931 19.8921 16.2603 20.6394 15.829 21.5257C15.2197 22.7828 14.4976 24.0963 13.5554 25.6575C13.1126 26.3932 12.3817 27.0072 11.674 27.601L11.6523 27.6184C11.2341 27.9703 10.7941 28.3193 10.3687 28.6568C9.91712 29.0159 9.44967 29.3809 8.99814 29.7676L8.96051 29.798C8.27743 30.3773 7.50172 31.029 7.07913 31.9356C6.63339 32.9044 6.46262 34.567 7.02559 35.7401C7.15267 35.997 7.33764 36.2208 7.56593 36.394C7.79422 36.5672 8.05959 36.6849 8.3411 36.7379Z" fill="#A8A8A8"/>
<path d="M8.21374 36.6582C8.49958 36.7154 8.7906 36.7426 9.08207 36.7393C9.59432 36.7281 10.1053 36.6836 10.6118 36.6061L10.9012 36.567C10.976 36.5571 11.0487 36.5356 11.1169 36.5033C11.1776 36.5033 11.237 36.4902 11.2963 36.4801C11.9331 36.3871 12.562 36.2463 13.1777 36.0587C13.2532 36.6599 13.4308 37.2437 13.703 37.785C13.7233 37.8241 13.745 37.8603 13.7681 37.9023L13.7783 37.9182C13.7913 37.9414 13.8043 37.966 13.8174 37.9848C13.8622 38.0572 13.9114 38.1296 13.9621 38.2078L13.9751 38.2238C14.0243 38.2889 14.0779 38.3541 14.1415 38.4265L14.1734 38.4627C14.3379 38.6415 14.5235 38.7995 14.7262 38.9334C14.9226 39.0566 15.1306 39.1604 15.3471 39.2433C15.7261 39.4058 16.1297 39.5037 16.541 39.533C16.7164 40.0111 16.9508 40.4655 17.2386 40.8856C16.2082 43.058 16.2125 44.7799 17.2632 45.7763C17.7861 46.2823 18.481 46.5715 19.2082 46.5859C19.305 46.5862 19.4016 46.5804 19.4977 46.5685C20.544 46.4454 21.1764 45.5547 21.5614 44.8943C21.8829 44.2993 22.1437 43.6734 22.34 43.0261L22.4022 43.0348C23.2112 43.1376 24.081 43.2361 24.9623 43.2593H25.026C25.2735 43.2593 25.521 43.2593 25.7684 43.2593C25.9045 43.2593 26.0434 43.2448 26.1954 43.2289H26.2446C27.1039 43.1576 27.9297 42.8625 28.6397 42.373C29.2173 41.977 29.725 41.4875 30.1419 40.9247C30.5211 40.4236 30.8655 39.8994 31.2013 39.3925C31.4907 38.958 31.7946 38.4931 32.1087 38.0688C32.2863 37.8206 32.4796 37.584 32.6876 37.3606C32.9052 37.1435 33.1481 36.9534 33.4112 36.7944L33.4401 36.777C33.9381 36.4899 34.4211 36.1776 34.8873 35.8414C34.8729 36.7698 35.0118 37.6677 35.4865 38.4555C35.9018 39.1448 36.5198 39.643 37.064 40.0804L37.3722 40.3281C38.1582 40.9376 38.9132 41.5863 39.6342 42.2716L39.7485 42.3845C40.0164 42.6795 40.3344 42.9247 40.6878 43.1087C40.8359 43.1814 40.9931 43.234 41.1552 43.2651C41.2475 43.2813 41.3409 43.2895 41.4345 43.2897C42.2566 43.2897 43.0265 42.6771 43.5272 42.2759L43.6126 42.2064C44.7724 41.2894 45.6737 40.0861 46.2277 38.7147C46.5644 37.8898 46.6849 36.9925 46.5779 36.1079C46.5229 35.7352 46.4044 35.3747 46.2277 35.042C45.6691 34.002 45.2872 32.8764 45.0974 31.7111C44.9744 30.9044 45.3319 29.9442 45.6474 29.097L45.7226 28.9001C45.8124 28.6626 45.9137 28.4135 46.0121 28.1571C46.5693 26.7871 47.2625 25.084 47.0034 23.4982V23.4764C46.9904 23.4055 46.9774 23.3316 46.9629 23.2664C46.9484 23.2013 46.9282 23.1216 46.9079 23.0536C46.9086 23.0492 46.9086 23.0448 46.9079 23.0405C46.748 22.4864 46.47 21.9736 46.0931 21.5373C44.9571 20.2281 43.2204 19.6386 41.6864 19.1245C41.3057 18.9956 40.9468 18.8754 40.6067 18.748L40.5734 18.7349L40.4287 18.677L40.4085 18.6683C40.3245 18.6336 40.2406 18.5988 40.1624 18.5626L40.106 18.5365L39.9613 18.4656C39.4876 18.2247 39.0557 17.9093 38.6819 17.5314C38.5025 17.3533 38.3259 17.1708 38.1494 16.9898C37.745 16.5585 37.3179 16.1491 36.87 15.7632C35.8535 14.9215 34.6853 14.2825 33.4286 13.8805L33.4068 13.8732C33.3157 13.8428 33.223 13.8167 33.1348 13.7907L32.8902 13.7212L32.841 13.7096C31.8675 13.4562 30.8656 13.3291 29.8597 13.3316C27.6106 13.341 25.3996 13.9135 23.4283 14.997C22.7916 15.3397 22.1798 15.7268 21.5976 16.1556C21.1546 15.9845 20.6845 15.8947 20.2097 15.8906C19.7166 15.8844 19.2291 15.9946 18.7865 16.2123C18.344 16.4299 17.9589 16.7489 17.6626 17.1433C17.2878 17.6299 17.0837 18.1933 16.8956 18.69C16.8478 18.816 16.8015 18.9435 16.7509 19.0666C16.4614 19.7907 16.1286 20.538 15.6987 21.4243C15.088 22.6814 14.3658 23.9935 13.4252 25.5561C12.9823 26.2918 12.2515 26.9058 11.5438 27.4982L11.5221 27.517C11.1024 27.8689 10.6624 28.2179 10.2369 28.5554C9.78542 28.9131 9.31941 29.2795 8.86644 29.6647L8.83026 29.6966C8.14572 30.2759 7.37146 30.9261 6.94888 31.8327C6.50169 32.8016 6.33236 34.4656 6.89388 35.6372C7.01801 35.8994 7.20225 36.1285 7.4316 36.3059C7.66096 36.4834 7.92895 36.6041 8.21374 36.6582Z" fill="#9A9A9A"/>
<path d="M8.08499 36.5757C8.371 36.6315 8.66193 36.6581 8.95331 36.6553C9.46557 36.6443 9.97656 36.5998 10.483 36.5221L10.7725 36.4844C10.8473 36.4741 10.9201 36.4521 10.9881 36.4193C11.0474 36.4193 11.1082 36.4062 11.1675 36.3975C11.8044 36.304 12.4333 36.1626 13.0489 35.9747C13.1237 36.5765 13.3014 37.1609 13.5743 37.7024C13.5945 37.7401 13.6162 37.7777 13.6394 37.8183L13.6495 37.8342C13.6625 37.8588 13.6756 37.882 13.6871 37.9008C13.7335 37.9747 13.7812 38.0456 13.8391 38.1238L13.8521 38.1412C13.9013 38.2049 13.9534 38.2716 14.0171 38.3425L14.0504 38.3787C14.2146 38.5583 14.4002 38.7168 14.6032 38.8508C14.7938 38.9736 14.9959 39.0774 15.2067 39.1608C15.5859 39.3228 15.9894 39.4207 16.4007 39.4504C16.5758 39.9287 16.8101 40.3831 17.0982 40.8031C16.0678 42.9754 16.0722 44.6974 17.1228 45.6952C17.6463 46.2034 18.343 46.4937 19.0722 46.5076C19.1689 46.5076 19.2656 46.5023 19.3617 46.4917C20.4066 46.3672 21.039 45.478 21.424 44.8161C21.7467 44.2217 22.0076 43.5956 22.2026 42.9479L22.2662 42.9566C23.1153 43.0742 23.9698 43.1491 24.8264 43.1811H24.89C25.1375 43.1811 25.385 43.1811 25.631 43.1811C25.767 43.1811 25.9074 43.1666 26.0652 43.1521H26.1144C26.9735 43.08 27.799 42.785 28.5095 42.2962C29.0867 41.8997 29.5943 41.4103 30.0117 40.848C30.3909 40.3483 30.7353 39.8241 31.0711 39.3172C31.3605 38.874 31.663 38.4178 31.9785 37.992C32.1565 37.7441 32.3498 37.5076 32.5574 37.2839C32.7761 37.068 33.0189 36.878 33.281 36.7176L33.3099 36.7002C33.8077 36.4128 34.2907 36.1006 34.7571 35.7647C34.7412 36.693 34.8801 37.5909 35.3548 38.3787C35.7716 39.0695 36.3896 39.5663 36.9337 40.0051L37.242 40.2527C38.0283 40.8614 38.7833 41.5096 39.504 42.1948L39.6183 42.3092C39.8866 42.6038 40.2045 42.8489 40.5576 43.0333C40.7062 43.105 40.8632 43.1576 41.025 43.1897C41.1173 43.2056 41.2107 43.2134 41.3043 43.2129C42.1249 43.2129 42.8963 42.6003 43.3956 42.1992L43.4824 42.1311C44.6454 41.2088 45.5478 39.9987 46.1004 38.6206C46.4369 37.7956 46.5569 36.8982 46.4492 36.0138C46.3957 35.6407 46.2771 35.2799 46.099 34.9479C45.5416 33.9075 45.1602 32.782 44.9701 31.6169C44.8471 30.8103 45.2046 29.8501 45.5201 29.0101L45.5939 28.8117C45.685 28.5742 45.7864 28.3251 45.8833 28.0688C46.4477 26.706 47.1395 25.0072 46.8819 23.4141V23.391C46.8703 23.32 46.8573 23.2462 46.8414 23.181C46.8255 23.1158 46.8066 23.0362 46.7878 22.9681C46.7878 22.9681 46.7878 22.9594 46.7878 22.9551C46.6238 22.4024 46.3457 21.8902 45.9716 21.4518C44.837 20.1368 43.1003 19.5532 41.5692 19.0376C41.1886 18.9101 40.8296 18.7885 40.4881 18.6611L40.4563 18.6495L40.3115 18.5901L40.2913 18.5814C40.2059 18.5466 40.1234 18.5119 40.0438 18.4757L39.9888 18.4496C39.9367 18.4264 39.8861 18.4018 39.8441 18.3801C39.3712 18.1381 38.9398 17.8223 38.5662 17.4445C38.3853 17.2664 38.2087 17.0854 38.0322 16.9029C37.6275 16.4723 37.201 16.0629 36.7543 15.6762C35.7372 14.8346 34.5685 14.1956 33.3114 13.7935L33.2911 13.7863C33.1999 13.7573 33.1073 13.7298 33.019 13.7052C32.9308 13.6806 32.8555 13.6574 32.7745 13.6357L32.7238 13.6227C31.7504 13.3691 30.7484 13.2421 29.7425 13.2447C27.4932 13.2538 25.2821 13.8269 23.3111 14.9116C22.6752 15.2522 22.064 15.6369 21.4818 16.0629C21.0383 15.8923 20.5677 15.803 20.0925 15.7994C19.6008 15.7947 19.1149 15.9058 18.6739 16.1237C18.233 16.3415 17.8494 16.66 17.5541 17.0535C17.1793 17.5401 16.9752 18.1035 16.7871 18.6002C16.7393 18.7277 16.693 18.8537 16.6424 18.9768C16.3529 19.7009 16.0201 20.4482 15.5888 21.3345C14.9795 22.5916 14.2574 23.9037 13.3167 25.4663C12.8738 26.202 12.143 26.816 11.4353 27.4098L11.415 27.4272C10.9953 27.7791 10.5554 28.1281 10.1299 28.4656C9.67837 28.8233 9.21092 29.1897 8.75939 29.5749L8.72176 29.6068C8.03867 30.1861 7.26441 30.8363 6.84038 31.7444C6.39464 32.7132 6.22532 34.3758 6.78683 35.5489C6.90869 35.8091 7.08944 36.0374 7.31476 36.2157C7.54009 36.3939 7.80379 36.5171 8.08499 36.5757Z" fill="#8B8B8B"/>
<path d="M7.95761 36.4917C8.24347 36.5487 8.53447 36.5759 8.82594 36.5728C9.33819 36.5616 9.84917 36.5171 10.3556 36.4395L10.6451 36.4004C10.7203 36.3907 10.7936 36.3692 10.8622 36.3367C10.9215 36.3367 10.9808 36.3222 11.0402 36.3135C11.6768 36.2197 12.3057 36.0788 12.9216 35.8921C12.9966 36.4932 13.1738 37.0771 13.4454 37.6184L13.512 37.7357L13.5207 37.7516C13.5337 37.7748 13.5482 37.798 13.5598 37.8168C13.6046 37.8907 13.6553 37.9616 13.7117 38.0413L13.7248 38.0572C13.7725 38.1209 13.8261 38.1876 13.8897 38.26L13.9216 38.2947C14.0876 38.4736 14.2747 38.6317 14.4788 38.7654C14.6693 38.8882 14.8715 38.992 15.0822 39.0753C15.461 39.2372 15.864 39.335 16.2748 39.365C16.4504 39.8433 16.6852 40.2977 16.9738 40.7176C15.9419 42.89 15.9477 44.6105 16.9969 45.6083C17.5208 46.117 18.218 46.4078 18.9478 46.4222C19.0445 46.4225 19.1412 46.4167 19.2372 46.4048C20.2835 46.2817 20.916 45.3911 21.3009 44.7292C21.6224 44.1347 21.8833 43.5093 22.0795 42.8624L22.1432 42.8711C22.9923 42.9887 23.8467 43.0636 24.7033 43.0956H24.767C25.013 43.0956 25.2605 43.0956 25.508 43.0956C25.644 43.0956 25.7844 43.0811 25.9421 43.0652H25.9899C26.845 42.9909 27.666 42.6949 28.372 42.2064C28.9496 41.8104 29.4572 41.321 29.8742 40.7582C30.2534 40.2571 30.5978 39.7328 30.9336 39.2259C31.223 38.7842 31.5269 38.3266 31.841 37.9023C32.0195 37.6547 32.2128 37.4182 32.4199 37.1941C32.6378 36.9773 32.8807 36.7872 33.1435 36.6278L33.1724 36.6104C33.6705 36.323 34.1535 36.0103 34.6196 35.6734C34.6037 36.6032 34.7427 37.5011 35.2173 38.2889C35.6327 38.9783 36.2506 39.475 36.7962 39.9138L37.1045 40.1615C37.9034 40.8045 38.6588 41.4113 39.3665 42.105L39.4808 42.218C39.7479 42.5133 40.0654 42.7585 40.4186 42.9421C40.5673 43.0149 40.725 43.0675 40.8875 43.0985C40.9793 43.1148 41.0722 43.123 41.1654 43.1231C41.9874 43.1231 42.7573 42.5105 43.2581 42.1094L43.3449 42.0398C44.5047 41.1226 45.4055 39.9186 45.9586 38.5467C46.298 37.7235 46.4215 36.8272 46.3175 35.9428C46.2631 35.5699 46.1446 35.2093 45.9672 34.8769C45.4099 33.8364 45.028 32.7109 44.837 31.546C44.7154 30.7379 45.0729 29.7791 45.3869 28.9392L45.4622 28.7422C45.5533 28.5047 45.6546 28.2556 45.7588 27.9978C46.3146 26.6292 47.0078 24.9247 46.7502 23.3403V23.3186C46.7386 23.2476 46.7241 23.1737 46.7097 23.1086C46.6952 23.0434 46.6749 22.9638 46.6561 22.8957V22.8826C46.4965 22.328 46.2185 21.8146 45.8413 21.3779C44.7067 20.0644 42.9701 19.4793 41.4375 18.9637C41.0568 18.8363 40.6979 18.7161 40.3578 18.5872L40.326 18.5756L40.1813 18.5177L40.161 18.509L39.915 18.4033L39.86 18.3772L39.7153 18.3062C39.2421 18.0653 38.8107 17.7499 38.4374 17.3721C38.2565 17.194 38.0799 17.0115 37.9034 16.8305C37.4995 16.3992 37.0729 15.9897 36.6255 15.6038C35.608 14.7628 34.4394 14.1238 33.1826 13.7211H33.1623C33.0697 13.6907 32.977 13.6647 32.8902 13.6386C32.8034 13.6125 32.7267 13.5908 32.6442 13.5691L32.595 13.5575C31.6217 13.3033 30.6196 13.1763 29.6137 13.1795C27.3645 13.1882 25.1534 13.7608 23.1823 14.845C22.5458 15.1879 21.934 15.5751 21.3516 16.0036C20.9087 15.8323 20.4385 15.7425 19.9637 15.7385C19.4718 15.7339 18.9856 15.845 18.5445 16.0628C18.1033 16.2807 17.7194 16.5992 17.4238 16.9927C17.0505 17.4808 16.845 18.0441 16.6568 18.5409C16.6105 18.6669 16.5627 18.7943 16.5121 18.9174C16.2227 19.6415 15.8898 20.3888 15.46 21.2751C14.8507 22.5307 14.1285 23.8443 13.1864 25.4069C12.7436 26.1412 12.0127 26.7552 11.305 27.349L11.2833 27.3664C10.8651 27.7197 10.4251 28.0688 9.99963 28.4062C9.5481 28.7639 9.08065 29.1303 8.62912 29.5156L8.59149 29.546C7.90841 30.1253 7.1327 30.777 6.71012 31.6836C6.26437 32.6524 6.0936 34.3164 6.65657 35.4881C6.78152 35.7443 6.96395 35.9683 7.18963 36.1423C7.41532 36.3164 7.67815 36.436 7.95761 36.4917Z" fill="#7D7D7D"/>
<path d="M7.83025 36.4092C8.11626 36.4651 8.40719 36.4917 8.69858 36.4889C9.21082 36.4777 9.7218 36.4332 10.2283 36.3556L10.5177 36.318C10.5926 36.3076 10.6653 36.2856 10.7334 36.2528C10.7941 36.2528 10.8535 36.2398 10.9128 36.2311C11.5495 36.137 12.1784 35.9956 12.7942 35.8082C12.8706 36.4094 13.0487 36.9932 13.321 37.5345C13.3412 37.5736 13.3629 37.6112 13.3861 37.6518L13.3962 37.6677C13.4093 37.6909 13.4223 37.7155 13.4353 37.7343C13.4802 37.8067 13.5294 37.8792 13.5873 37.9574L13.5988 37.9747C13.648 38.0385 13.7016 38.1051 13.7653 38.176L13.7971 38.2122C13.9616 38.391 14.1473 38.5491 14.3499 38.6829C14.5411 38.805 14.7431 38.9093 14.9534 38.9943C15.3327 39.1562 15.7361 39.254 16.1474 39.2839C16.3228 39.7621 16.5571 40.2165 16.8449 40.6366C15.8145 42.8089 15.8189 44.5309 16.8695 45.5287C17.3936 46.0367 18.0909 46.3266 18.8204 46.3397C18.9171 46.3398 19.0137 46.3344 19.1098 46.3238C20.1562 46.1992 20.7886 45.31 21.1736 44.6482C21.4951 44.0532 21.7559 43.4273 21.9522 42.78L22.0144 42.7887C22.8234 42.8915 23.6932 42.99 24.5745 43.0131H24.6382C24.8857 43.0131 25.1331 43.0131 25.3806 43.0131C25.5167 43.0131 25.6556 42.9987 25.8148 42.9842H25.8625C26.7216 42.9128 27.5472 42.6183 28.2577 42.1297C28.8348 41.7332 29.3424 41.2439 29.7599 40.6815C30.1391 40.1818 30.4835 39.6576 30.8192 39.1507C31.1087 38.7075 31.4126 38.2514 31.7266 37.8256C31.9042 37.5773 32.0976 37.3408 32.3055 37.1174C32.5235 36.9007 32.7664 36.7106 33.0291 36.5511L33.0581 36.5337C33.556 36.2467 34.0391 35.9344 34.5053 35.5982C34.4894 36.5265 34.6298 37.4244 35.1044 38.2122C35.5198 38.9031 36.1378 39.3998 36.6819 39.8386L36.9902 40.0863C37.7765 40.6949 38.5315 41.3431 39.2522 42.0283L39.3665 42.1427C39.6348 42.4373 39.9527 42.6824 40.3057 42.8669C40.4541 42.9388 40.6113 42.9909 40.7732 43.0218C40.8653 43.0388 40.9588 43.047 41.0525 43.0464C41.8745 43.0464 42.6444 42.4338 43.1452 42.0327L43.2305 41.9632C44.3904 41.0462 45.2916 39.8428 45.8457 38.4715C46.1814 37.6489 46.3015 36.754 46.1944 35.8719C46.1408 35.4986 46.0228 35.1374 45.8457 34.8046C45.2871 33.7646 44.9051 32.6389 44.7154 31.4736C44.5924 30.667 44.9498 29.7068 45.2653 28.8668L45.3406 28.6684C45.4303 28.4309 45.5316 28.1818 45.63 27.9255C46.1858 26.5554 46.879 24.8523 46.6199 23.2679V23.2448C46.6083 23.1738 46.5953 23.1 46.5808 23.0348C46.5664 22.9696 46.5461 22.89 46.5273 22.8219V22.8089C46.3674 22.2548 46.0894 21.7419 45.7125 21.3056C44.5808 19.9732 42.8441 19.3896 41.3058 18.874C40.9251 18.7451 40.5662 18.6249 40.2261 18.4975L40.1928 18.4844L40.0481 18.4265L40.0279 18.4178C39.9439 18.3831 39.86 18.3483 39.7818 18.3121L39.7254 18.286L39.5807 18.2165C39.1075 17.9749 38.6761 17.6591 38.3028 17.281C38.1219 17.1028 37.9453 16.9218 37.7688 16.7393C37.364 16.3084 36.937 15.899 36.4894 15.5127C35.47 14.6753 34.3026 14.0367 33.048 13.63L33.0262 13.6227C32.9351 13.5923 32.8424 13.5662 32.7542 13.5416C32.6659 13.517 32.5906 13.4938 32.5096 13.4721L32.4604 13.4591C31.4869 13.2057 30.485 13.0786 29.4791 13.0811C27.2298 13.0902 25.0186 13.6633 23.0477 14.748C22.4108 15.0877 21.799 15.4724 21.217 15.8993C20.7739 15.7287 20.3038 15.6394 19.8291 15.6358C19.3355 15.6307 18.8477 15.7423 18.4054 15.9615C17.963 16.1807 17.5786 16.5013 17.2834 16.8972C16.9101 17.3838 16.7046 17.9471 16.5164 18.4439C16.4687 18.5713 16.4224 18.6973 16.3717 18.8204C16.0823 19.5445 15.7494 20.2918 15.3196 21.1782C14.7089 22.4352 13.9867 23.7473 13.046 25.31C12.6032 26.0457 11.8723 26.6597 11.1646 27.2535L11.1429 27.2709C10.7232 27.6228 10.2833 27.9718 9.8578 28.3092C9.40626 28.667 8.94026 29.0334 8.48728 29.4186L8.4511 29.4504C7.76657 30.0297 6.99231 30.68 6.56972 31.588C6.12254 32.5569 5.95321 34.2195 6.51618 35.3925C6.64046 35.6531 6.8241 35.8808 7.05233 36.0573C7.28055 36.2339 7.547 36.3544 7.83025 36.4092Z" fill="#6E6E6E"/>
<path d="M7.70145 36.3252C7.98747 36.3809 8.27839 36.4076 8.56978 36.4048C9.082 36.3942 9.59298 36.3502 10.0995 36.273L10.3889 36.2339C10.4637 36.2241 10.5364 36.2025 10.6046 36.1702L10.784 36.147C11.4208 36.0535 12.0497 35.9121 12.6654 35.7241C12.7393 36.3261 12.917 36.9107 13.1907 37.4519L13.2559 37.5692L13.2645 37.5851L13.3036 37.6503C13.3499 37.7241 13.3991 37.7951 13.4556 37.8733L13.4686 37.8907C13.5164 37.9559 13.5713 38.021 13.6336 38.0934L13.6669 38.1282C13.831 38.3077 14.0167 38.4663 14.2197 38.6003C14.4096 38.7242 14.6119 38.8281 14.8232 38.9102C15.2014 39.0753 15.6054 39.1733 16.0171 39.1999C16.1925 39.6785 16.4269 40.1334 16.7147 40.554C15.6843 42.7263 15.6886 44.4468 16.7393 45.4447C17.2626 45.9532 17.9593 46.2441 18.6887 46.2586C18.783 46.2586 18.8773 46.2528 18.9709 46.2412C20.0172 46.1166 20.6497 45.2274 21.0346 44.5656C21.3571 43.9715 21.618 43.346 21.8132 42.6988L21.8769 42.7061C22.7259 42.8244 23.5804 42.8993 24.437 42.9305H24.5007C24.7482 42.9305 24.9957 42.9305 25.2417 42.9305C25.3792 42.9305 25.5181 42.9161 25.6758 42.9001H25.7251C26.5848 42.8307 27.411 42.5355 28.1202 42.0442C28.6988 41.6495 29.2067 41.1599 29.6224 40.596C30.0016 40.0949 30.346 39.5706 30.6818 39.0638C30.9712 38.6221 31.2737 38.1644 31.5892 37.7386C31.7675 37.491 31.9608 37.2545 32.168 37.0304C32.3868 36.8146 32.6296 36.6245 32.8917 36.4642L32.9206 36.4468C33.4185 36.1597 33.9016 35.8475 34.3678 35.5113C34.3519 36.441 34.4908 37.3389 34.9655 38.1268C35.3823 38.8161 35.9988 39.3129 36.5444 39.7517L36.8527 39.9993C37.653 40.6423 38.4084 41.2491 39.1147 41.9414L39.229 42.0558C39.4947 42.3531 39.8132 42.5986 40.1683 42.7799C40.3162 42.8531 40.4735 42.9057 40.6357 42.9363C40.7279 42.9527 40.8214 42.9609 40.915 42.961C41.7356 42.961 42.5069 42.3469 43.0062 41.9472L43.0931 41.8791C44.2541 40.9627 45.1556 39.7585 45.7082 38.386C46.0439 37.5634 46.164 36.6685 46.057 35.7864C46.0058 35.4108 45.8902 35.0467 45.7154 34.7104C45.152 33.6721 44.7684 32.5459 44.5808 31.3794C44.4578 30.5728 44.8153 29.6141 45.1307 28.7726L45.2046 28.5742C45.2957 28.3367 45.397 28.0891 45.494 27.8313C46.0512 26.4627 46.7429 24.7581 46.4853 23.1738V23.1506C46.4738 23.0796 46.4607 23.0058 46.4448 22.9421C46.4289 22.8783 46.4115 22.7972 46.3913 22.7292C46.3913 22.7292 46.3913 22.7205 46.3913 22.7161C46.2332 22.1605 45.9545 21.6467 45.575 21.2114C44.4404 19.8964 42.7038 19.3128 41.1726 18.7972C40.792 18.6698 40.4331 18.5481 40.0915 18.4207L40.0597 18.4091L39.915 18.3497L39.8947 18.3425C39.8093 18.3077 39.7268 18.2715 39.6473 18.2368L39.5923 18.2092C39.5402 18.1861 39.4895 18.1614 39.4475 18.1397C38.9755 17.8969 38.5443 17.5817 38.1696 17.2056C37.9887 17.0275 37.8122 16.845 37.6356 16.664C37.2317 16.2327 36.8051 15.8232 36.3577 15.4373C35.3431 14.592 34.1737 13.9525 32.9148 13.5546H32.8946C32.8019 13.5257 32.7108 13.4981 32.6225 13.4735C32.5342 13.4489 32.4589 13.4257 32.3779 13.404L32.3272 13.391C31.3538 13.1374 30.3518 13.0104 29.346 13.013C27.0967 13.0221 24.8855 13.5952 22.9146 14.6799C22.2785 15.0228 21.6672 15.4099 21.0853 15.8385C20.6418 15.6678 20.1711 15.5785 19.696 15.5749C19.2042 15.5703 18.7183 15.6814 18.2774 15.8992C17.8364 16.1171 17.4528 16.4356 17.1575 16.8291C16.7827 17.3157 16.5787 17.879 16.3905 18.3758C16.3428 18.5032 16.2965 18.6292 16.2458 18.7523C15.9564 19.4764 15.6235 20.2237 15.1922 21.11C14.583 22.3671 13.8608 23.6807 12.9201 25.2418C12.4773 25.9775 11.7464 26.5916 11.0387 27.1854L11.0185 27.2028C10.5988 27.5547 10.1588 27.9037 9.73334 28.2411C9.28181 28.6003 8.81436 28.9652 8.36282 29.3519L8.3252 29.3823C7.64211 29.9616 6.86786 30.6133 6.44382 31.5199C5.99808 32.4888 5.8273 34.1528 6.39027 35.3244C6.51657 35.5814 6.70073 35.8055 6.92825 35.9791C7.15576 36.1528 7.42044 36.2712 7.70145 36.3252Z" fill="#606060"/>
</g>
<path d="M7.70145 36.3252C7.98747 36.3809 8.27839 36.4076 8.56978 36.4048C9.082 36.3942 9.59298 36.3502 10.0995 36.273L10.3889 36.2339C10.4637 36.2241 10.5364 36.2025 10.6046 36.1702L10.784 36.147C11.4208 36.0535 12.0497 35.9121 12.6654 35.7241C12.7393 36.3261 12.917 36.9107 13.1907 37.4519L13.2559 37.5692L13.2645 37.5851L13.3036 37.6503C13.3499 37.7241 13.3991 37.7951 13.4556 37.8733L13.4686 37.8907C13.5164 37.9559 13.5713 38.021 13.6336 38.0934L13.6669 38.1282C13.831 38.3077 14.0167 38.4663 14.2197 38.6003C14.4096 38.7242 14.6119 38.8281 14.8232 38.9102C15.2014 39.0753 15.6054 39.1733 16.0171 39.1999C16.1925 39.6785 16.4269 40.1334 16.7147 40.554C15.6843 42.7263 15.6886 44.4468 16.7393 45.4447C17.2626 45.9532 17.9593 46.2441 18.6887 46.2586C18.783 46.2586 18.8773 46.2528 18.9709 46.2412C20.0172 46.1166 20.6497 45.2274 21.0346 44.5656C21.3571 43.9715 21.618 43.346 21.8132 42.6988L21.8769 42.7061C22.7259 42.8244 23.5804 42.8993 24.437 42.9305H24.5007C24.7482 42.9305 24.9957 42.9305 25.2417 42.9305C25.3792 42.9305 25.5181 42.9161 25.6758 42.9001H25.7251C26.5848 42.8307 27.411 42.5355 28.1202 42.0442C28.6988 41.6495 29.2067 41.1599 29.6224 40.596C30.0016 40.0949 30.346 39.5706 30.6818 39.0638C30.9712 38.6221 31.2737 38.1644 31.5892 37.7386C31.7675 37.491 31.9608 37.2545 32.168 37.0304C32.3868 36.8146 32.6296 36.6245 32.8917 36.4642L32.9206 36.4468C33.4185 36.1597 33.9016 35.8475 34.3678 35.5113C34.3519 36.441 34.4908 37.3389 34.9655 38.1268C35.3823 38.8161 35.9988 39.3129 36.5444 39.7517L36.8527 39.9993C37.653 40.6423 38.4084 41.2491 39.1147 41.9414L39.229 42.0558C39.4947 42.3531 39.8132 42.5986 40.1683 42.7799C40.3162 42.8531 40.4735 42.9057 40.6357 42.9363C40.7279 42.9527 40.8214 42.9609 40.915 42.961C41.7356 42.961 42.5069 42.3469 43.0062 41.9472L43.0931 41.8791C44.2541 40.9627 45.1556 39.7585 45.7082 38.386C46.0439 37.5634 46.164 36.6685 46.057 35.7864C46.0058 35.4108 45.8902 35.0467 45.7154 34.7104C45.152 33.6721 44.7684 32.5459 44.5808 31.3794C44.4578 30.5728 44.8153 29.6141 45.1307 28.7726L45.2046 28.5742C45.2957 28.3367 45.397 28.0891 45.494 27.8313C46.0512 26.4627 46.7429 24.7581 46.4853 23.1738V23.1506C46.4738 23.0796 46.4607 23.0058 46.4448 22.9421C46.4289 22.8783 46.4115 22.7972 46.3913 22.7292C46.3913 22.7292 46.3913 22.7205 46.3913 22.7161C46.2332 22.1605 45.9545 21.6467 45.575 21.2114C44.4404 19.8964 42.7038 19.3128 41.1726 18.7972C40.792 18.6698 40.4331 18.5481 40.0915 18.4207L40.0597 18.4091L39.915 18.3497L39.8947 18.3425C39.8093 18.3077 39.7268 18.2715 39.6473 18.2368L39.5923 18.2092C39.5402 18.1861 39.4895 18.1614 39.4475 18.1397C38.9755 17.8969 38.5443 17.5817 38.1696 17.2056C37.9887 17.0275 37.8122 16.845 37.6356 16.664C37.2317 16.2327 36.8051 15.8232 36.3577 15.4373C35.3431 14.592 34.1737 13.9525 32.9148 13.5546H32.8946C32.8019 13.5257 32.7108 13.4981 32.6225 13.4735C32.5342 13.4489 32.4589 13.4257 32.3779 13.404L32.3272 13.391C31.3538 13.1374 30.3518 13.0104 29.346 13.013C27.0967 13.0221 24.8855 13.5952 22.9146 14.6799C22.2785 15.0228 21.6672 15.4099 21.0853 15.8385C20.6418 15.6678 20.1711 15.5785 19.696 15.5749C19.2042 15.5703 18.7183 15.6814 18.2774 15.8992C17.8364 16.1171 17.4528 16.4356 17.1575 16.8291C16.7827 17.3157 16.5787 17.879 16.3905 18.3758C16.3428 18.5032 16.2965 18.6292 16.2458 18.7523C15.9564 19.4764 15.6235 20.2237 15.1922 21.11C14.583 22.3671 13.8608 23.6807 12.9201 25.2418C12.4773 25.9775 11.7464 26.5916 11.0387 27.1854L11.0185 27.2028C10.5988 27.5547 10.1588 27.9037 9.73334 28.2411C9.28181 28.6003 8.81436 28.9652 8.36282 29.3519L8.3252 29.3823C7.64211 29.9616 6.86786 30.6133 6.44382 31.5199C5.99808 32.4888 5.8273 34.1528 6.39027 35.3244C6.51657 35.5814 6.70073 35.8055 6.92825 35.9791C7.15576 36.1528 7.42044 36.2712 7.70145 36.3252Z" fill="white"/>
<path d="M44.9961 35.0333C44.3205 33.8085 43.8945 32.4617 43.7428 31.071C44.0323 27.9819 46.1018 25.9211 45.6865 23.1853C45.2711 20.4496 41.2146 19.7849 39.0698 18.8015C36.925 17.8182 36.5285 15.2534 31.8583 14.0571C27.2924 12.8884 23.2387 15.1129 21.285 16.7277C18.8406 18.7552 19.502 19.7458 19.7336 23.2013C19.9391 26.286 19.4904 27.5923 19.4904 27.5923C19.4904 27.5923 16.4021 28.5843 14.6813 29.6995C12.9606 30.8146 13.3615 34.6452 13.3615 34.6452C13.3615 34.6452 13.4657 37.0377 14.3905 37.7835C14.6913 38.0312 15.0413 38.2121 15.4173 38.3142C15.7933 38.4164 16.1867 38.4374 16.5714 38.3758C17.3572 40.6481 17.9636 41.4707 22.1157 41.9646C26.2677 42.4584 27.6411 42.1803 29.4024 39.5026C32.0291 35.5098 31.7382 36.3585 33.5139 35.1347C35.2897 33.9109 35.5169 32.7219 35.5169 32.7219C34.8541 37.3896 35.1507 37.7068 37.8035 39.7546C40.4562 41.8024 40.2276 42.6061 41.4997 41.9646C43.9556 40.7307 46.1322 37.1304 44.9961 35.0333Z" fill="#7F4629"/>
<path d="M45.083 35.0652C44.4847 33.9569 44.0781 32.7553 43.8804 31.5113C43.7168 30.4425 44.1799 29.2984 44.5548 28.3165C45.303 26.357 46.7415 23.6619 45.096 21.7531C43.8196 20.2745 41.7298 19.7632 39.9685 19.1173C39.1002 18.7987 38.3766 18.412 37.7109 17.7647C37.1436 17.2143 36.624 16.6191 36.0278 16.0978C32.472 12.9884 27.2244 13.1115 23.2503 15.2839C21.7206 16.1195 19.7698 17.3896 19.4369 19.2288C19.2401 20.3179 19.5049 21.5069 19.599 22.5931C19.7271 23.8793 19.7271 25.1751 19.599 26.4613C19.5802 26.6221 19.5353 27.4867 19.3704 27.5417C18.6337 27.7806 17.9087 28.0544 17.1923 28.3469C16.2328 28.7379 15.117 29.155 14.3283 29.8458C13.6495 30.4381 13.4266 31.4563 13.3065 32.3078C13.1529 33.5005 13.1954 34.7103 13.4324 35.8893C13.5772 36.6409 13.8405 37.4823 14.5135 37.9298C15.1257 38.3354 15.9043 38.5931 16.6452 38.4367L16.4788 38.344C16.9665 39.7488 17.5932 40.8162 19.0274 41.3766C20.1186 41.8111 21.3328 41.9342 22.4876 42.066C23.5369 42.1862 24.6049 42.2876 25.6599 42.1949C27.414 42.0385 28.5457 40.9726 29.4835 39.5606C30.3373 38.2745 31.1594 36.6728 32.5299 35.8574C33.7021 35.1594 35.3042 34.2209 35.6023 32.7684L35.42 32.6786C35.2058 34.2007 34.6963 36.2673 35.556 37.6894C35.8917 38.2441 36.3809 38.6757 36.8759 39.0841C37.7847 39.8343 38.7196 40.5323 39.5633 41.3593C39.9005 41.6895 40.2696 42.1514 40.7631 42.2383C41.4129 42.3556 42.2103 41.6779 42.6604 41.3173C44.193 40.0993 45.6358 37.9458 45.3536 35.8994C45.3088 35.6074 45.2154 35.3249 45.0772 35.0638C45.0526 35.0146 44.8688 34.9378 44.9021 35.003C45.824 36.8002 44.5721 39.0015 43.3854 40.3469C42.7631 41.0522 41.9628 41.7271 41.0699 42.0544C40.4172 42.2934 39.9454 41.5997 39.5329 41.2C38.7775 40.4657 37.941 39.8314 37.1248 39.1724C36.585 38.738 36.035 38.2789 35.6891 37.6692C35.3708 37.1116 35.3056 36.4584 35.3027 35.827C35.3027 34.8046 35.4605 33.7749 35.6038 32.7655C35.6038 32.709 35.4344 32.6105 35.4214 32.6757C35.2854 33.3447 34.734 33.9458 34.2636 34.3991C33.6847 34.9653 32.9742 35.365 32.2838 35.7807C31.8919 36.0222 31.5432 36.3277 31.252 36.6844C30.5284 37.5403 29.9234 38.5106 29.3084 39.4461C28.8076 40.205 28.2389 40.9393 27.4675 41.4404C26.7613 41.8994 25.9233 42.0501 25.0955 42.0892C23.848 42.1456 22.5788 41.9762 21.3472 41.7995C20.2676 41.6475 19.0968 41.4548 18.1634 40.8451C17.3254 40.2934 16.9622 39.3042 16.6467 38.3991C16.6313 38.369 16.6075 38.3442 16.5782 38.3274C16.5489 38.3107 16.5154 38.3029 16.4817 38.3049C16.0684 38.3741 15.6444 38.3402 15.2472 38.2065C14.4021 37.9516 13.9983 37.3303 13.7508 36.5439C13.5798 35.9258 13.4745 35.2913 13.4368 34.6511C13.2921 33.1116 13.3268 30.8552 14.6582 29.8169C15.57 29.1058 16.7972 28.6771 17.8609 28.2586C18.2734 28.0978 18.6902 27.9457 19.107 27.7995C19.1648 27.7806 19.5411 27.7024 19.5672 27.6387C19.6912 27.214 19.7678 26.7769 19.7958 26.3353C19.9406 25.0015 19.8595 23.6503 19.7379 22.3194C19.641 21.239 19.4022 20.0847 19.6699 19.0116C19.9319 17.966 20.8277 17.1796 21.6454 16.5496C23.3379 15.2305 25.3239 14.3401 27.4342 13.9544C30.113 13.4721 33.0784 14.0485 35.3056 15.6358C36.5734 16.538 37.4359 17.9848 38.8209 18.722C40.1234 19.4171 41.6169 19.7357 42.9628 20.3512C43.766 20.7191 44.5446 21.1955 45.083 21.911C45.6619 22.6814 45.7068 23.6908 45.5866 24.6119C45.4419 25.6937 44.9687 26.7162 44.562 27.7169C44.1553 28.7176 43.8051 29.7444 43.6647 30.8277C43.604 31.2839 43.7429 31.7749 43.8427 32.2137C44.074 33.1852 44.4322 34.1221 44.9079 35.0001C44.9339 35.0522 45.1163 35.129 45.083 35.0652Z" fill="#3F1D0F"/>
<path d="M44.9961 35.0333C44.3205 33.8085 43.8945 32.4617 43.7428 31.071C44.0323 27.9819 46.1018 25.9211 45.6865 23.1853C45.2711 20.4496 41.2146 19.7849 39.0698 18.8015C36.925 17.8182 36.5285 15.2534 31.8583 14.0571C27.2924 12.8884 23.2387 15.1129 21.285 16.7277C18.8406 18.7552 19.502 19.7458 19.7336 23.2013C19.9391 26.286 19.4904 27.5923 19.4904 27.5923C19.4904 27.5923 16.4021 28.5843 14.6813 29.6995C12.9606 30.8146 13.3615 34.6452 13.3615 34.6452C13.3615 34.6452 13.4657 37.0377 14.3905 37.7835C14.6913 38.0312 15.0413 38.2121 15.4173 38.3142C15.7933 38.4164 16.1867 38.4374 16.5714 38.3758C17.3572 40.6481 17.9636 41.4707 22.1157 41.9646C26.2677 42.4584 27.6411 42.1803 29.4024 39.5026C32.0291 35.5098 31.7382 36.3585 33.5139 35.1347C35.2897 33.9109 35.5169 32.7219 35.5169 32.7219C34.8541 37.3896 35.1507 37.7068 37.8035 39.7546C40.4562 41.8024 40.2276 42.6061 41.4997 41.9646C43.9556 40.7307 46.1322 37.1304 44.9961 35.0333Z" fill="#7F4629"/>
<path d="M45.096 35.0391C44.4977 33.9302 44.0906 32.7282 43.892 31.4837C43.7386 30.4699 44.1597 29.378 44.5085 28.4424C45.2813 26.3613 46.7835 23.6734 45.0497 21.6647C43.7472 20.1643 41.4939 19.7067 39.7269 19.0275C38.9563 18.7365 38.257 18.2837 37.6762 17.6994C37.0872 17.1201 36.543 16.5017 35.9062 15.9702C32.3374 12.9883 27.1564 13.1737 23.2446 15.3127C21.712 16.1513 19.7582 17.4156 19.4254 19.2577C19.2285 20.3468 19.4934 21.5358 19.5874 22.622C19.7155 23.9082 19.7155 25.204 19.5874 26.4902C19.5552 26.7746 19.5069 27.057 19.4427 27.336C19.4239 27.4243 19.3631 27.5691 19.3979 27.5575C18.7394 27.7719 18.0954 28.0137 17.4456 28.2701C16.4325 28.6727 15.3862 29.1129 14.4846 29.7357C13.7118 30.2701 13.444 31.349 13.308 32.2194C13.1468 33.3777 13.1697 34.5542 13.376 35.7053C13.5309 36.6162 13.8102 37.4881 14.6061 38.0152C15.207 38.3993 15.9303 38.5431 16.6322 38.4178L16.4629 38.3715C16.706 39.0666 16.9665 39.7661 17.4369 40.3411C17.8711 40.8798 18.5237 41.21 19.1735 41.4316C20.285 41.798 21.4616 41.9428 22.6223 42.0674C23.6556 42.1774 24.7048 42.273 25.7439 42.1644C27.4603 41.9848 28.5703 40.9204 29.4922 39.5344C30.3431 38.2513 31.1666 36.6466 32.5313 35.8313C33.7036 35.1332 35.31 34.1977 35.6081 32.7437L35.4026 32.7089C35.1826 34.2686 34.6891 36.3106 35.5632 37.7618C35.9135 38.3411 36.462 38.7857 36.9815 39.2028C37.8802 39.9269 38.7775 40.6293 39.6024 41.4388C39.9396 41.769 40.2826 42.1745 40.7804 42.2267C41.4071 42.2918 42.109 41.7169 42.5678 41.3679C44.1467 40.1615 45.646 37.9515 45.3594 35.8733C45.3154 35.5822 45.2225 35.3006 45.0845 35.0405C45.0555 34.9855 44.8572 34.9812 44.8818 35.0304C45.8066 36.8306 44.5562 39.0333 43.371 40.3773C42.7472 41.0826 41.9237 41.8052 41.012 42.0992C40.4071 42.2947 39.8455 41.4779 39.4693 41.1159C38.6965 40.3715 37.8368 39.7386 37.009 39.0623C36.5097 38.6553 36.0177 38.2151 35.6964 37.6503C35.3751 37.0854 35.3114 36.4366 35.31 35.8052C35.31 34.7813 35.4663 33.7531 35.6096 32.7437C35.6182 32.6843 35.4156 32.651 35.404 32.7089C35.2593 33.3794 34.7224 33.9775 34.2463 34.4337C33.6674 34.9985 32.9597 35.3983 32.2694 35.8139C30.9394 36.6148 30.1145 38.2296 29.2896 39.4794C28.7903 40.2382 28.2215 40.974 27.4516 41.4736C26.7208 41.9501 25.8481 42.092 24.9913 42.1195C23.6889 42.163 22.3487 41.9819 21.0607 41.7821C20.0158 41.6199 18.8769 41.3968 18.0216 40.7292C17.2864 40.1499 16.9521 39.2332 16.6568 38.3831C16.6395 38.3324 16.528 38.328 16.4875 38.3367C15.9931 38.4166 15.486 38.3449 15.0331 38.1311C14.3572 37.8414 14.02 37.307 13.7971 36.6452C13.5743 35.9833 13.5077 35.323 13.4469 34.6495C13.3022 33.139 13.3471 31.0565 14.5034 29.9297C14.9014 29.5416 15.4976 29.2925 15.9911 29.0492C16.5613 28.7697 17.1489 28.5235 17.7379 28.2889C18.1653 28.1199 18.5961 27.9597 19.0303 27.8081C19.1591 27.7632 19.4731 27.7241 19.5715 27.6213C19.7756 27.4084 19.764 26.6857 19.793 26.425C19.9377 25.1216 19.8754 23.7849 19.7626 22.4786C19.6685 21.3982 19.4384 20.2686 19.6338 19.1882C19.8291 18.1078 20.6917 17.3055 21.5151 16.6408C23.1955 15.2927 25.1782 14.3737 27.2924 13.963C30.0132 13.4387 33.006 14.0296 35.2723 15.6415C36.5748 16.5698 37.4547 18.0557 38.8991 18.7813C40.2855 19.4779 41.8355 19.795 43.2262 20.496C43.9571 20.8638 44.6503 21.3432 45.1235 22.021C45.6547 22.7827 45.6894 23.7588 45.5736 24.648C45.439 25.6777 44.9947 26.6538 44.6098 27.6053C44.1756 28.6625 43.7993 29.727 43.6503 30.8624C43.5953 31.2853 43.7154 31.7313 43.8051 32.1426C44.0302 33.1502 44.393 34.122 44.8833 35.0304C44.9238 35.084 45.1206 35.0883 45.096 35.0391Z" fill="#3F1D0F"/>
<g style="mix-blend-mode:multiply" opacity="0.5">
<path d="M44.9961 35.0333C44.3205 33.8085 43.8945 32.4617 43.7428 31.071C44.0323 27.9819 46.1018 25.9211 45.6865 23.1853C45.2711 20.4496 41.2146 19.7849 39.0698 18.8015C36.925 17.8182 36.5285 15.2534 31.8583 14.0571C27.2924 12.8884 23.2387 15.1129 21.285 16.7277C18.8406 18.7552 19.502 19.7458 19.7336 23.2013C19.9391 26.286 19.4904 27.5923 19.4904 27.5923C19.4904 27.5923 16.4021 28.5843 14.6813 29.6995C12.9606 30.8146 13.3615 34.6452 13.3615 34.6452C13.3615 34.6452 13.4657 37.0377 14.3905 37.7835C14.6913 38.0312 15.0413 38.2121 15.4173 38.3142C15.7933 38.4164 16.1867 38.4374 16.5714 38.3758C17.3572 40.6481 17.9636 41.4707 22.1157 41.9646C26.2677 42.4584 27.6411 42.1803 29.4024 39.5026C32.0291 35.5098 31.7382 36.3585 33.5139 35.1347C35.2897 33.9109 35.5169 32.7219 35.5169 32.7219C34.8541 37.3896 35.1507 37.7068 37.8035 39.7546C40.4562 41.8024 40.2276 42.6061 41.4997 41.9646C43.9556 40.7307 46.1322 37.1304 44.9961 35.0333ZM29.3025 30.1774C29.3025 30.1774 30.9162 28.1702 33.8642 29.5329C36.8121 30.8957 27.4689 33.084 29.3025 30.1774ZM20.1055 20.299C19.8537 20.8986 19.7379 21.2505 19.7553 20.0311C19.7726 18.8117 20.2227 18.0036 22.3603 16.4641C25.7627 14.0151 30.8771 12.6987 35.1377 16.2411C39.3983 19.7834 40.3419 19.7443 42.4534 20.5177C44.5649 21.2911 46.4216 22.6582 44.245 27.4374C42.8745 30.4468 42.7978 31.9051 42.9657 34.0992C43.1784 36.8957 38.0973 34.5684 37.4663 28.832C37.2174 26.593 38.1016 26.357 36.116 24.8943C34.1304 23.4315 35.7846 20.3932 37.0003 19.404C37.0003 19.404 32.7151 21.32 33.1073 23.5908C33.1073 23.5908 30.5848 21.4011 28.8915 23.4229C28.4245 23.9793 28.1026 24.643 27.9546 25.3544C27.8066 26.0658 27.8372 26.8029 28.0435 27.4996C28.5095 28.8219 29.5167 29.2259 29.5167 29.2259C29.5167 29.2259 28.961 29.3852 28.7512 29.8284C28.7512 29.8284 26.2996 27.9051 26.1462 25.5155C25.9928 23.126 26.7829 20.3019 26.9581 18.551C27.1332 16.8001 26.6773 17.1824 25.8828 18.9246C25.0883 20.6669 23.9898 22.8088 23.9898 22.8088C23.7944 23.2027 23.712 22.622 23.191 21.9862C22.67 21.3504 23.1996 21.3403 23.4196 21.5966C23.6396 21.853 23.5383 20.3236 22.5252 19.643C21.1518 18.7132 20.3588 19.6994 20.1055 20.299Z" fill="#7F4629"/>
</g>
<path d="M36.3317 19.9471C36.3317 19.9471 36.1624 20.1253 35.8874 20.4584C35.7514 20.6249 35.5893 20.8306 35.4156 21.0739C35.2223 21.3466 35.0435 21.6294 34.8802 21.9211C34.6851 22.2608 34.5421 22.6279 34.4561 23.0102C34.4322 23.1108 34.4191 23.2137 34.417 23.3172C34.4089 23.4212 34.4137 23.5258 34.4315 23.6285L34.4388 23.7024L34.4605 23.7835L34.501 23.9486C34.5343 24.0543 34.5704 24.1557 34.611 24.26C34.8041 24.685 35.047 25.0856 35.3346 25.4533C35.624 25.8458 35.9221 26.2542 36.0987 26.7365C36.1886 26.9774 36.2432 27.2301 36.2608 27.4866L36.268 27.8545C36.2767 27.977 36.2767 28.0999 36.268 28.2223C36.2492 28.4671 36.2362 28.7133 36.2101 28.9465C36.1841 29.1796 36.1508 29.4171 36.1233 29.6474C35.9931 30.5641 35.8339 31.4128 35.6993 32.1398C35.5647 32.8668 35.4532 33.4736 35.3881 33.8994C35.323 34.3252 35.2825 34.5699 35.2825 34.5699C35.2825 34.5699 35.3056 34.3237 35.3476 33.8936C35.3679 33.6793 35.404 33.42 35.4431 33.1217C35.4822 32.8234 35.5271 32.4874 35.5878 32.121C35.6486 31.7546 35.7022 31.3592 35.7644 30.9407C35.8266 30.5221 35.8845 30.0804 35.9482 29.6228C35.9742 29.394 36.0017 29.1622 36.0292 28.9276C36.0567 28.693 36.0611 28.4555 36.077 28.218C36.0857 28.0975 36.0857 27.9765 36.077 27.8559L36.064 27.4881C36.0458 27.2535 35.9936 27.0227 35.9091 26.8031C35.726 26.3581 35.4825 25.9404 35.1855 25.5619C34.8901 25.1799 34.6418 24.7637 34.446 24.3222C34.4026 24.2122 34.3635 24.0949 34.3302 23.9848L34.2911 23.8197L34.2723 23.7386L34.2636 23.6459C34.2499 23.5314 34.2499 23.4157 34.2636 23.3012C34.2669 23.1929 34.2809 23.0852 34.3056 22.9797C34.4057 22.5868 34.5637 22.211 34.7745 21.8646C35.0862 21.3527 35.4484 20.8734 35.8556 20.4338C36.1508 20.1137 36.3317 19.9471 36.3317 19.9471Z" fill="#3F1D0F"/>
<path d="M8.34113 34.777C8.26587 34.3426 8.86068 31.8806 11.9027 30.1427C14.9448 28.4048 15.1083 27.2462 16.7104 23.0565C17.7813 20.2585 18.8566 19.0333 19.6048 18.9348C19.8089 18.218 20.2879 17.5634 21.285 16.735C20.4326 16.2686 18.2661 15.63 17.2748 18.3034C16.2834 20.9768 14.8956 23.517 13.6046 25.6532C12.3137 27.7893 7.56542 30.3121 7.09797 32.0601C6.63052 33.8082 6.82734 35.5359 7.90552 35.5793C8.67908 35.6071 9.45361 35.5703 10.2211 35.4693C9.13565 35.3114 8.41638 35.2129 8.34113 34.777Z" fill="#7F4629"/>
<path d="M8.42938 34.8277C8.37005 34.3744 8.61318 33.856 8.79697 33.4606C9.22989 32.5798 9.84274 31.7998 10.5959 31.1709C11.4106 30.4584 12.4049 30.0124 13.2732 29.3708C13.8453 28.9545 14.3434 28.4449 14.7465 27.8632C15.7899 26.3483 16.266 24.4381 16.9376 22.748C17.302 21.7715 17.7919 20.8465 18.3949 19.9964C18.706 19.5764 19.1344 19.0869 19.68 18.9986C19.6836 18.9973 19.6866 18.9949 19.6887 18.9918C19.6908 18.9887 19.6918 18.9849 19.6916 18.9812C19.9724 18.0644 20.654 17.3881 21.3689 16.7914C21.4022 16.7625 21.3023 16.6886 21.2864 16.6799C20.0592 16.0239 18.6062 16.0731 17.7118 17.239C17.3167 17.7531 17.1329 18.3975 16.897 18.9942C16.5729 19.8096 16.2082 20.609 15.8246 21.3983C15.1285 22.832 14.3427 24.2223 13.5207 25.5866C13.0127 26.4294 12.2182 27.0956 11.47 27.7227C10.6016 28.4541 9.68556 29.1347 8.81579 29.869C8.17322 30.4106 7.44672 31.016 7.08781 31.7951C6.6768 32.6858 6.59866 34.1036 7.02993 35.003C7.10712 35.1647 7.22075 35.3062 7.36188 35.4166C7.50301 35.5269 7.66779 35.6029 7.84326 35.6387C8.60449 35.7951 9.53795 35.6387 10.3035 35.5388C10.3629 35.5388 10.2051 35.4041 10.1689 35.394C9.79266 35.3389 8.56397 35.3143 8.43228 34.8147C8.4178 34.7611 8.24124 34.6699 8.26295 34.7423C8.45832 35.4664 9.72898 35.4664 10.289 35.5403L10.1559 35.3954C9.39095 35.4917 8.61966 35.528 7.84905 35.504C6.93152 35.478 6.93007 34.1022 6.95901 33.4765C7.00967 32.3686 7.33529 31.5793 8.09652 30.8031C9.62044 29.2477 11.5467 28.1412 13.0388 26.5482C13.9071 25.6199 14.486 24.3874 15.0866 23.2795C15.8913 21.8127 16.6024 20.2962 17.2154 18.7393C17.6076 17.7371 18.0649 16.7552 19.1894 16.4482C19.8812 16.2599 20.6641 16.4482 21.285 16.7784L21.2025 16.6684C20.7286 17.0465 20.3059 17.4846 19.9449 17.9718C19.7365 18.2614 19.6699 18.7886 19.3255 18.9088C18.6916 19.1275 18.2357 19.8212 17.8942 20.357C16.6061 22.3556 16.1242 24.748 15.0822 26.874C14.7505 27.556 14.3012 28.1742 13.7551 28.7003C12.9794 29.4461 12.0112 29.8835 11.1429 30.4946C10.1393 31.1734 9.30979 32.0794 8.72172 33.1391C8.49016 33.5736 8.18046 34.2122 8.24848 34.7321C8.26295 34.7901 8.43517 34.8755 8.42938 34.8277Z" fill="#3F1D0F"/>
<path d="M19.4904 27.5924C19.4904 27.5924 19.9391 26.289 19.7336 23.2013C19.5961 21.1535 19.3081 19.9732 19.6048 18.9276C18.8565 19.0261 17.7813 20.2513 16.7103 23.0493C15.1083 27.2419 14.9462 28.3961 11.9027 30.1355C8.85919 31.8748 8.26583 34.3353 8.34109 34.7698C8.41634 35.2043 9.13561 35.3042 10.2225 35.4621C12.1473 35.2086 13.3557 34.638 13.3557 34.638C13.3557 34.638 12.9534 30.8075 14.6755 29.6923C16.3977 28.5772 19.4904 27.5924 19.4904 27.5924Z" fill="#60321E"/>
<path d="M19.5932 27.6141C19.8985 26.706 19.8826 25.6459 19.8826 24.7031C19.8636 23.5603 19.7873 22.4191 19.654 21.2839C19.5758 20.5091 19.4991 19.714 19.7003 18.9508C19.7162 18.8928 19.5555 18.8899 19.5295 18.8928C18.9275 18.9913 18.4803 19.5431 18.1402 20.0007C17.392 21.0145 16.9144 22.2136 16.4715 23.378C15.7682 25.2303 15.211 27.3288 13.7406 28.7365C12.923 29.5229 11.8911 29.9935 10.9736 30.6394C9.99622 31.3191 9.19899 32.2268 8.65079 33.2839C8.44384 33.6894 8.05743 34.4425 8.28609 34.9132C8.41055 35.1652 8.80564 35.2506 9.04588 35.3129C9.57417 35.471 10.129 35.5203 10.6769 35.4577C11.6292 35.3294 12.559 35.0691 13.4396 34.6844C13.4437 34.6831 13.4474 34.6809 13.4505 34.6778C13.4535 34.6748 13.4557 34.6711 13.457 34.667C13.3123 33.1927 13.3673 31.2723 14.3586 30.0891C14.7074 29.6735 15.2617 29.4273 15.7349 29.184C16.3051 28.8943 16.8927 28.6365 17.4875 28.3947C18.1662 28.1195 18.8551 27.8617 19.5512 27.6373C19.6569 27.6039 19.4658 27.5402 19.4152 27.5562C17.7364 28.0978 15.9419 28.7321 14.486 29.7386C13.7131 30.273 13.4454 31.3534 13.3094 32.2224C13.2002 32.9796 13.1769 33.7467 13.2399 34.5091C13.2529 34.6728 13.2399 34.6293 13.0648 34.7017C12.5831 34.8917 12.0883 35.0465 11.5843 35.1652C10.8896 35.3375 8.2557 35.7763 8.47134 34.4483C8.61606 33.5562 9.15153 32.7263 9.71449 32.0413C10.619 30.9407 11.8433 30.331 12.9968 29.546C14.6813 28.4019 15.4252 26.7524 16.1271 24.903C16.6712 23.4664 17.1633 22.0065 17.9419 20.6684C18.308 20.0427 18.8898 19.097 19.6786 18.9696L19.5078 18.9131C19.3182 19.6285 19.379 20.3686 19.447 21.097C19.5512 22.231 19.6713 23.3592 19.6887 24.4975C19.7046 25.4881 19.7147 26.6206 19.3992 27.5764C19.3717 27.6257 19.5729 27.6706 19.5932 27.6141Z" fill="#3F1D0F"/>
<g style="mix-blend-mode:multiply" opacity="0.5">
<path d="M19.4904 27.5924C19.4904 27.5924 19.9391 26.289 19.7336 23.2013C19.5961 21.1535 19.3081 19.9732 19.6048 18.9276C18.8565 19.0261 17.7813 20.2513 16.7103 23.0493C15.1083 27.2419 14.9462 28.3961 11.9027 30.1355C8.85919 31.8748 8.26583 34.3353 8.34109 34.7698C8.41634 35.2043 9.13561 35.3042 10.2225 35.4621C12.1473 35.2086 13.3557 34.638 13.3557 34.638C13.3557 34.638 12.9534 30.8075 14.6755 29.6923C16.3977 28.5772 19.4904 27.5924 19.4904 27.5924Z" fill="#7F4629"/>
</g>
<path d="M20.0042 39.8328C21.1519 40.1224 21.9305 40.0283 22.4457 39.8328C22.0231 39.4316 21.7742 38.8857 21.6005 38.2687C21.0795 36.4135 19.1576 36.3643 18.9536 35.7922C18.9536 35.7922 18.8001 35.898 18.2734 35.9371C17.7466 35.9762 17.5729 36.4396 17.3443 37.5301C17.3059 37.7582 17.2018 37.9702 17.0447 38.1398C17.4875 38.6887 18.3559 39.4186 20.0042 39.8328Z" fill="#490000"/>
<path d="M30.3764 34.4482C29.8974 35.8965 28.0391 35.9341 27.5326 37.7169C27.0261 39.4997 27.0044 40.3976 24.8553 40.5105C23.6975 40.5714 22.9449 40.3005 22.4457 39.827C21.9304 40.0283 21.1518 40.1166 20.0042 39.827C18.3558 39.4128 17.4875 38.6829 17.0446 38.1369C16.9208 38.2701 16.7524 38.3531 16.5714 38.3701C17.3572 40.6423 17.9636 41.4649 22.1157 41.9588C26.2677 42.4526 27.6411 42.1746 29.4024 39.4968C31.0247 37.0348 31.5342 36.412 32.1058 36.0109C31.5674 36.3512 30.1275 35.869 30.3764 34.4482Z" fill="#F7E8DA"/>
<path d="M30.2895 34.3889C29.9856 35.2245 29.2287 35.6286 28.5529 36.134C27.7945 36.7061 27.5094 37.4085 27.2678 38.2962C27.0666 39.0377 26.8568 39.8009 26.1201 40.1702C25.0781 40.693 23.3545 40.5859 22.4891 39.8082C22.4616 39.785 22.4051 39.7473 22.3661 39.7604C21.4152 40.1109 20.3761 39.9052 19.4383 39.6156C18.5512 39.3389 17.7017 38.8625 17.1054 38.1413C17.0794 38.1108 16.9954 38.0486 16.9607 38.0833C16.8395 38.2047 16.6819 38.283 16.5121 38.3064C16.4889 38.3064 16.4802 38.3194 16.4875 38.3411C16.9448 39.6547 17.5179 40.7191 18.8406 41.2999C19.819 41.7343 20.9261 41.8791 21.9768 42.0066C23.0536 42.1662 24.1415 42.2393 25.2301 42.2253C26.8727 42.1717 28.0869 41.4635 29.0681 40.1673C29.7642 39.2492 30.3445 38.2441 31.0305 37.3172C31.3494 36.8477 31.7401 36.4313 32.1883 36.0833C32.2418 36.0442 32.0826 35.9255 32.0334 35.9515C31.6977 36.1326 31.2881 36.0428 30.9755 35.8545C30.4979 35.5649 30.3966 35 30.4704 34.4932C30.4791 34.4352 30.3026 34.3368 30.2924 34.399C30.2372 34.6876 30.2679 34.986 30.3809 35.2571C30.4939 35.5283 30.6841 35.7602 30.9278 35.924C31.2737 36.1644 31.7961 36.2919 32.1883 36.0833L32.0334 35.9515C31.6785 36.2201 31.3629 36.5369 31.0956 36.8929C30.4241 37.7358 29.8467 38.6554 29.2504 39.5533C28.3402 40.9233 27.2243 41.8849 25.5441 42.0602C24.6034 42.1587 23.6439 42.0602 22.709 41.9689C21.4963 41.8444 20.2488 41.701 19.091 41.297C18.3396 41.0558 17.7 40.552 17.2892 39.8777C17.1123 39.5651 16.9622 39.2381 16.8406 38.9001C16.803 38.8002 16.6322 38.4454 16.7118 38.4324C16.8731 38.398 17.0209 38.3175 17.1373 38.2006L16.9925 38.1413C17.952 39.2998 19.4962 39.8791 20.9521 40.0558C21.3142 40.1035 21.6814 40.0937 22.0404 40.0269C22.107 40.0138 22.4558 39.882 22.5021 39.924C22.6099 40.0196 22.7278 40.1031 22.8538 40.1731C23.6266 40.6076 24.5152 40.6337 25.3777 40.5381C25.9682 40.4715 26.5355 40.2788 26.9074 39.7966C27.2793 39.3143 27.4009 38.609 27.5601 38.0225C27.8148 37.0927 28.3242 36.5352 29.0999 35.995C29.6788 35.5924 30.2244 35.1956 30.4748 34.5105C30.4849 34.4425 30.3069 34.344 30.2895 34.3889Z" fill="#AF9C8B"/>
<path d="M32.9698 25.921C32.9246 26.6128 32.6975 27.2803 32.3113 27.8559C32.1606 28.0768 31.9837 28.2786 31.7845 28.4569L31.6572 28.5554C31.3669 28.7763 31.0321 28.9315 30.676 29.0101C30.3645 29.0435 30.0496 29.0069 29.7541 28.9029C28.9596 28.6365 28.6759 27.7979 28.5008 27.0275V27.0145C28.3912 26.3442 28.4408 25.6576 28.6455 25.0101C28.9697 23.8515 29.9712 22.6509 31.3258 22.9971C32.4864 23.2968 33.019 24.8783 32.9698 25.921Z" fill="white"/>
<path d="M32.8989 25.9022C32.7875 26.916 32.417 27.8805 31.5964 28.5293C30.5124 29.3823 29.0291 28.5582 28.6542 27.3707C28.5179 26.8651 28.4806 26.338 28.5442 25.8182C28.6214 24.9733 28.9779 24.1783 29.5573 23.559C30.4748 22.564 32.0624 23.207 32.6037 24.3251C32.8183 24.8218 32.9201 25.3599 32.9018 25.9007C32.9018 25.9485 33.0465 25.9732 33.0465 25.937C33.0465 24.8653 32.5892 23.1853 31.3099 22.9652C29.7179 22.6886 28.8192 23.9789 28.4733 25.3823C28.1274 26.7856 28.537 28.6046 30.0653 29.013C31.8106 29.475 32.8931 27.3041 33.0465 25.937C33.0436 25.895 32.9047 25.8645 32.8989 25.9022Z" fill="#3F1D0F"/>
<g style="mix-blend-mode:multiply">
<path d="M32.5805 26.2078C32.5278 26.575 32.422 26.9326 32.2665 27.2693C31.909 28.0137 31.2534 28.3497 30.4386 28.5105C29.3749 28.7248 28.5717 27.3751 28.4386 26.2831C28.4319 26.5282 28.4513 26.7734 28.4965 27.0145V27.0275C28.6716 27.798 28.9552 28.6365 29.7498 28.9029C30.0453 29.0069 30.3602 29.0435 30.6716 29.0101C31.0278 28.9315 31.3626 28.7763 31.6529 28.5554L31.7802 28.4569C31.9794 28.2786 32.1563 28.0768 32.307 27.8559C32.6932 27.2803 32.9203 26.6128 32.9655 25.921C32.98 25.3972 32.8859 24.8759 32.6891 24.3903C32.6855 24.9976 32.6493 25.6043 32.5805 26.2078Z" fill="#D7D7D7"/>
</g>
<path d="M32.6065 26.6771C32.3938 27.9805 31.4271 28.9074 30.4488 28.7408C29.4704 28.5743 28.8568 27.3824 29.0623 26.079C29.2678 24.7756 30.2404 23.8487 31.2201 24.0138C32.1999 24.1789 32.8193 25.3737 32.6065 26.6771Z" fill="#60321E"/>
<path d="M32.5038 26.8073C32.2983 27.7965 31.5298 28.467 30.7874 28.3062C30.045 28.1455 29.6151 27.2186 29.8235 26.2295C30.0319 25.2403 30.799 24.5713 31.5399 24.7291C32.2809 24.887 32.7136 25.8196 32.5038 26.8073Z" fill="#7F543E"/>
<path d="M32.4329 26.8363C32.2708 27.6184 31.663 28.147 31.0769 28.0195C30.4907 27.8921 30.1521 27.1622 30.3142 26.3787C30.4763 25.5952 31.0855 25.0753 31.6702 25.1955C32.2549 25.3157 32.5979 26.0557 32.4329 26.8363Z" fill="#231717"/>
<g style="mix-blend-mode:multiply">
<path d="M29.1752 25.7313C29.1383 25.8538 29.1097 25.9786 29.0898 26.105C28.8756 27.4084 29.4965 28.6003 30.4762 28.7654C31.456 28.9305 32.4199 28.0108 32.6326 26.7031C32.6514 26.5829 32.6615 26.4627 32.6688 26.3454C31.4878 26.8769 29.906 26.7798 29.1752 25.7313Z" fill="#896852"/>
</g>
<path d="M31.1767 25.9805C31.0537 26.3744 30.715 26.6177 30.4212 26.525C30.1275 26.4323 29.9871 26.0355 30.1101 25.6416C30.2331 25.2477 30.5718 25.0072 30.8684 25.0999C31.1651 25.1926 31.3026 25.5865 31.1767 25.9805Z" fill="white"/>
<path d="M30.5819 27.1607C30.524 27.3476 30.3634 27.4649 30.223 27.42C30.1494 27.3818 30.0933 27.3167 30.0663 27.2382C30.0394 27.1598 30.0437 27.0739 30.0783 26.9985C30.0935 26.9174 30.1395 26.8454 30.2067 26.7976C30.2739 26.7498 30.3571 26.7299 30.4386 26.7422C30.5125 26.7793 30.569 26.8439 30.5958 26.9222C30.6226 27.0004 30.6176 27.0861 30.5819 27.1607Z" fill="white"/>
<path d="M29.3851 29.6025C29.5344 29.4654 29.6979 29.3445 29.8728 29.2419C30.05 29.1318 30.237 29.0382 30.4314 28.9624C30.5371 28.9175 30.6514 28.8827 30.7657 28.8451C30.88 28.8074 31.0016 28.7814 31.1246 28.764C31.2452 28.7421 31.367 28.7281 31.4893 28.722C31.6077 28.7104 31.7269 28.7104 31.8453 28.722L32.0176 28.7336L32.1753 28.764C32.2741 28.7797 32.3711 28.8054 32.4647 28.8407C32.5516 28.8711 32.6297 28.8972 32.7006 28.9276C32.7716 28.958 32.8222 28.9928 32.8685 29.016L33.0132 29.0971C33.0132 29.0971 32.9539 29.0826 32.8526 29.0493L32.6746 28.9957C32.6037 28.9798 32.5226 28.9638 32.4372 28.9479C32.3446 28.9287 32.2508 28.9152 32.1565 28.9073C32.1044 28.9073 32.0523 28.8987 32.0002 28.8914H31.8453C31.7918 28.8914 31.7353 28.8914 31.6775 28.8914C31.6196 28.8914 31.566 28.8914 31.5081 28.9045C31.3924 28.9116 31.2774 28.9266 31.1637 28.9493C31.045 28.9638 30.9336 28.9971 30.8222 29.0218C30.7107 29.0464 30.5993 29.0797 30.4951 29.1173C30.3909 29.155 30.2881 29.1854 30.1955 29.226C30.1029 29.2665 30.0088 29.2998 29.9292 29.3346C29.7642 29.407 29.6282 29.4707 29.537 29.5185L29.3851 29.6025Z" fill="#3F1D0F"/>
<path d="M23.4153 24.1382C23.3526 24.7204 23.1483 25.2782 22.8205 25.7632C22.6956 25.9469 22.5499 26.1155 22.3863 26.2657L22.2836 26.3497C22.0535 26.5312 21.7869 26.6607 21.5021 26.7291C21.2606 26.7536 21.0169 26.7193 20.7915 26.6292C20.1866 26.4033 20.0013 25.698 19.8971 25.0492C19.8971 25.0492 19.8971 25.0405 19.8971 25.0361C19.8432 24.4666 19.9102 23.8921 20.0939 23.3504C20.395 22.3786 21.2228 21.375 22.2648 21.6719C23.162 21.9297 23.4992 23.2693 23.4153 24.1382Z" fill="white"/>
<path d="M23.3502 24.1282C23.2705 24.7028 23.0692 25.2539 22.7597 25.7444C22.2908 26.5091 21.2459 27.0768 20.4253 26.3237C19.8001 25.7444 19.9043 24.4555 20.0664 23.6894C20.2517 22.8074 20.7828 21.9674 21.6222 21.6821C23.0072 21.2114 23.3994 23.2013 23.3502 24.1253C23.3502 24.1687 23.4804 24.1832 23.4819 24.1456C23.5398 23.0188 23.1548 21.8153 22.0346 21.5938C20.9145 21.3722 20.201 22.7292 19.9405 23.6676C19.6511 24.6901 19.7958 26.5511 21.0288 26.7278C22.4239 26.9233 23.2879 25.4504 23.4891 24.1456C23.4877 24.1079 23.356 24.0876 23.3502 24.1282Z" fill="#3F1D0F"/>
<g style="mix-blend-mode:multiply">
<path d="M23.1012 24.3772C23.0439 24.6864 22.9466 24.9868 22.8118 25.2708C22.5006 25.895 21.9709 26.1731 21.3371 26.3048C20.502 26.4801 19.9376 25.3418 19.8812 24.4221C19.8645 24.6267 19.8689 24.8325 19.8942 25.0362C19.8942 25.0362 19.8942 25.0449 19.8942 25.0492C19.9984 25.698 20.1836 26.4033 20.7886 26.6292C21.0139 26.7193 21.2577 26.7536 21.4992 26.7292C21.784 26.6607 22.0506 26.5313 22.2807 26.3497L22.3834 26.2657C22.547 26.1155 22.6927 25.9469 22.8176 25.7632C23.1465 25.2786 23.3517 24.7207 23.4153 24.1383C23.4527 23.7033 23.4035 23.2652 23.2705 22.8494C23.2199 23.3533 23.1996 23.8762 23.1012 24.3772Z" fill="#D7D7D7"/>
</g>
<path d="M23.1042 24.7944C22.8524 25.8864 22.0448 26.6365 21.2951 26.4743C20.5455 26.3121 20.1374 25.2911 20.3921 24.2006C20.6468 23.1101 21.4529 22.357 22.1997 22.5236C22.9464 22.6901 23.3531 23.7039 23.1042 24.7944Z" fill="#60321E"/>
<path d="M23.0173 24.9218C22.8263 25.756 22.2069 26.3295 21.6367 26.2035C21.0665 26.0775 20.7568 25.3027 20.9478 24.4656C21.1388 23.6286 21.7554 23.058 22.3285 23.1854C22.9016 23.3128 23.2098 24.0905 23.0173 24.9218Z" fill="#7F543E"/>
<path d="M22.9652 24.9304C22.8205 25.5865 22.3256 26.0398 21.874 25.9442C21.4225 25.8486 21.1794 25.2302 21.3299 24.5742C21.4804 23.9181 21.9681 23.4634 22.4196 23.5604C22.8712 23.6574 23.1172 24.2715 22.9652 24.9304Z" fill="#231717"/>
<g style="mix-blend-mode:multiply">
<path d="M20.447 23.9746C20.4181 24.0774 20.3935 24.1803 20.3732 24.2889C20.1851 25.3924 20.6497 26.3787 21.408 26.4945C22.1663 26.6104 22.9319 25.8095 23.1215 24.706C23.136 24.6031 23.1475 24.5032 23.1533 24.4018C22.2257 24.8754 20.9999 24.8349 20.447 23.9746Z" fill="#896852"/>
</g>
<path d="M21.984 24.2325C21.8943 24.5714 21.6338 24.7944 21.4051 24.7365C21.1765 24.6785 21.0563 24.3541 21.1461 24.0123C21.2358 23.6706 21.4948 23.4475 21.7249 23.5098C21.9551 23.5721 22.0737 23.8965 21.984 24.2325Z" fill="white"/>
<path d="M21.5426 25.2592C21.4992 25.42 21.3776 25.5271 21.2677 25.4996C21.1577 25.4721 21.1027 25.3171 21.1432 25.1578C21.1837 24.9985 21.3111 24.8885 21.4211 24.9189C21.531 24.9493 21.586 25.0999 21.5426 25.2592Z" fill="white"/>
<path d="M19.4138 26.0992C19.4473 26.0859 19.4823 26.0767 19.518 26.0717C19.6094 26.0574 19.702 26.053 19.7944 26.0586C19.8562 26.0621 19.9176 26.0703 19.9782 26.0833C20.047 26.095 20.1148 26.1124 20.1808 26.1354C20.2524 26.1578 20.3226 26.1848 20.3906 26.2165C20.4592 26.25 20.5258 26.2873 20.5903 26.328C20.6552 26.3692 20.718 26.4137 20.7785 26.4613C20.8378 26.5105 20.8972 26.5583 20.9478 26.6061C20.9985 26.6539 21.0477 26.7104 21.0925 26.7581C21.1374 26.8059 21.1736 26.861 21.2083 26.903C21.2618 26.9788 21.3101 27.0582 21.353 27.1405C21.3849 27.2028 21.4037 27.2361 21.4037 27.2361C21.4037 27.2361 21.3747 27.2085 21.3241 27.1651C21.2734 27.1216 21.2126 27.0521 21.1258 26.9783C21.0838 26.9421 21.039 26.9015 20.9941 26.8595L20.8465 26.7451C20.7958 26.7002 20.7322 26.6626 20.6786 26.6162C20.6251 26.5699 20.5585 26.5366 20.4977 26.496C20.4369 26.4555 20.3747 26.4222 20.3139 26.3874C20.2531 26.3526 20.1895 26.3193 20.1243 26.2962C20.0592 26.273 20.0042 26.2455 19.9449 26.2252C19.8855 26.2049 19.8306 26.1861 19.777 26.1702C19.6583 26.1357 19.5367 26.112 19.4138 26.0992Z" fill="#3F1D0F"/>
<path d="M17.3442 37.533C17.5729 36.4396 17.7465 35.9819 18.2733 35.9399C18.8001 35.8979 18.9535 35.7951 18.9535 35.7951C19.1576 36.3672 21.0795 36.4164 21.6005 38.2716C21.9796 39.6214 22.7061 40.6322 24.8553 40.5193C27.0044 40.4063 27.0261 39.5055 27.5326 37.7256C28.0391 35.9457 29.8974 35.9081 30.3764 34.457C30.8554 33.0058 29.3923 32.1181 26.9783 28.6843C25.1158 26.0369 25.4312 25.0637 25.5702 23.7603C25.7091 22.4569 26.9262 17.9862 26.7627 17.9326C26.5991 17.8791 25.1244 21.2346 24.1736 23.336C23.2228 25.4374 22.8856 26.1311 21.9145 26.5221C20.9434 26.9131 19.4904 27.6025 19.4904 27.6025C19.4904 27.6025 16.4021 28.5945 14.6813 29.7097C12.9606 30.8248 13.3615 34.6554 13.3615 34.6554C13.3615 34.6554 13.4657 37.0478 14.3905 37.7937C14.6913 38.0414 15.0413 38.2223 15.4173 38.3244C15.7933 38.4265 16.1867 38.4475 16.5714 38.386C16.5714 38.386 17.1691 38.3672 17.3442 37.533Z" fill="#F7E8DA"/>
<path d="M17.4311 37.5851C17.5338 37.1029 17.6062 36.4874 17.9897 36.1369C18.2603 35.8893 18.7133 36.0413 19.0274 35.8545L18.8682 35.7488C19.0954 36.2528 19.9189 36.4454 20.3472 36.7017C20.9475 37.0701 21.3797 37.6591 21.5513 38.3426C21.6633 38.7695 21.8548 39.1714 22.1157 39.5272C22.6801 40.2513 23.4848 40.5308 24.3777 40.583C25.246 40.6337 26.3271 40.5352 26.893 39.7995C27.4588 39.0638 27.427 37.9602 27.8887 37.1434C28.3822 36.2745 29.401 35.9168 30.0595 35.2014C31.2086 33.953 30.0595 32.5699 29.2375 31.5446C28.3315 30.4077 27.414 29.2781 26.6325 28.0543C26.0536 27.1622 25.576 26.1716 25.5543 25.0941C25.521 23.5083 26.0304 21.8805 26.3879 20.3541C26.5572 19.63 26.7584 18.9059 26.8611 18.1629C26.8886 17.9602 26.7511 17.714 26.5833 17.9602C26.0927 18.6683 25.7772 19.546 25.4255 20.3251C24.9016 21.4692 24.3936 22.622 23.8712 23.7676C23.492 24.6017 23.1157 25.5938 22.3603 26.1658C21.9855 26.4555 21.492 26.5902 21.0578 26.777C20.5672 26.9913 20.0795 27.2115 19.5932 27.4417C19.107 27.672 18.5802 27.8067 18.0881 27.9935C16.961 28.3975 15.8718 28.9006 14.8333 29.4968C13.2588 30.4294 13.1662 32.6336 13.2501 34.2759C13.3094 35.4447 13.4107 36.9928 14.3442 37.8096C15.1778 38.541 17.0635 39.016 17.4311 37.5967C17.4456 37.5402 17.2719 37.4302 17.256 37.4939C17.0143 38.4309 16.1908 38.4555 15.3818 38.2571C13.9419 37.9052 13.635 36.4454 13.4889 35.1753C13.3326 33.8386 13.3442 32.4063 13.7899 31.1275C14.1835 30.0008 15.1112 29.5199 16.13 29.029C17.0996 28.5675 18.0944 28.1614 19.1099 27.8125C19.6439 27.6271 20.1417 27.3896 20.6584 27.1564C21.4471 26.7987 22.3574 26.5684 22.9348 25.8849C23.6454 25.0449 24.0318 23.8762 24.4761 22.8885C24.9754 21.7806 25.4675 20.6712 25.9827 19.5706C26.165 19.181 26.3488 18.7929 26.55 18.412C26.6079 18.3005 26.6701 18.1904 26.7381 18.0847C26.8061 17.979 26.6933 17.8168 26.6831 17.9804C26.6412 18.6626 26.4096 19.362 26.249 20.0239C25.8828 21.5981 25.4226 23.1999 25.3633 24.8262C25.3329 25.659 25.6064 26.4381 25.9754 27.1724C26.6108 28.4338 27.5312 29.5692 28.4039 30.6713C29.2375 31.7256 30.8439 33.1173 30.1941 34.6076C29.8554 35.3824 28.9741 35.7748 28.3547 36.2846C27.5688 36.9305 27.4111 37.8082 27.1376 38.7336C26.906 39.5156 26.5326 40.0761 25.7178 40.3078C24.4892 40.6568 22.8668 40.5091 22.1186 39.365C21.8465 38.9479 21.7467 38.4657 21.5759 38.0051C21.4344 37.6515 21.2193 37.3321 20.9449 37.0681C20.6837 36.8193 20.3872 36.6104 20.065 36.4483C19.7756 36.2919 19.1822 36.1499 19.0375 35.8299C19.0201 35.7922 18.929 35.6937 18.8798 35.7227C18.5556 35.9182 18.1388 35.7951 17.8233 36.0124C17.4268 36.2933 17.3472 37.0594 17.256 37.4823C17.2444 37.5388 17.4166 37.6474 17.4311 37.5851Z" fill="#AF9C8B"/>
<g style="mix-blend-mode:multiply">
<path d="M30.3764 34.4483C30.8554 33.0001 29.3923 32.1094 26.9783 28.6756C25.1158 26.0283 25.4312 25.0551 25.5702 23.7517C25.7091 22.4482 26.9262 17.9776 26.7627 17.924C26.5991 17.8704 25.1244 21.2259 24.1736 23.3273C23.2228 25.4287 22.8856 26.1224 21.9145 26.5134C20.9434 26.9045 19.4904 27.5938 19.4904 27.5938C19.4904 27.5938 16.4021 28.5859 14.6813 29.701C12.9606 30.8161 13.3615 34.6467 13.3615 34.6467C13.3615 34.6467 13.4657 37.0392 14.3905 37.785C14.6913 38.0327 15.0413 38.2136 15.4173 38.3157C15.7933 38.4179 16.1867 38.4389 16.5714 38.3773C16.5714 38.3773 17.1691 38.3687 17.3442 37.5345C17.5729 36.4411 17.7465 35.9834 18.2733 35.9414C18.8001 35.8994 18.9535 35.7966 18.9535 35.7966C19.1576 36.3686 21.0795 36.4179 21.6005 38.2731C21.9796 39.6228 22.7061 40.6337 24.8553 40.5207C27.0044 40.4078 27.0261 39.507 27.5326 37.7271C28.0391 35.9472 29.8974 35.8994 30.3764 34.4483ZM27.6788 35.071C26.3936 35.7662 26.728 39.2999 24.2387 39.0073C21.7495 38.7148 22.7004 36.638 20.7785 35.966C18.8566 35.2941 19.1185 34.3889 20.0302 34.108C21.5773 33.6315 22.4514 33.1724 22.5643 31.6677C22.6772 30.163 20.9362 29.3505 18.1141 29.3505C15.2921 29.3505 14.8912 31.0898 16.2154 32.6554C17.5396 34.2209 18.0852 33.995 18.172 34.7466C18.2589 35.4983 17.2212 35.3259 17.0504 36.5004C16.8797 37.6749 13.7551 37.2521 13.6104 34.5149C13.4035 30.4295 14.2559 29.7575 18.1373 28.3628C21.3414 27.2115 22.6367 27.42 23.8798 24.7596C25.123 22.0992 25.5166 20.4671 25.1085 24.1412C24.7004 27.8154 25.5557 28.1065 27.534 30.4208C29.5124 32.735 29.9147 33.8618 27.6788 35.071Z" fill="#E2D3C7"/>
</g>
<path d="M16.1011 31.1565C16.036 30.1253 17.4586 29.336 19.7596 29.9139C22.0607 30.4917 22.5426 31.42 21.9551 32.3961C21.3675 33.3722 19.764 34.1601 18.6106 33.9993C17.4571 33.8386 16.1561 32.0167 16.1011 31.1565Z" fill="#3A2928"/>
<path d="M16.2038 31.1752C16.1706 29.895 17.8508 29.7139 18.7828 29.7849C19.7871 29.8617 22.0897 30.3193 22.081 31.6966C22.081 32.2194 21.67 32.6756 21.3082 33C20.6589 33.5694 19.8409 33.9097 18.9796 33.9688C17.7147 34.0499 16.3268 32.3627 16.2038 31.1709C16.2038 31.1028 15.994 31.0883 15.9983 31.1332C16.1199 32.3034 17.4094 33.908 18.6308 34.0398C19.9637 34.1846 22.1664 33.2751 22.285 31.7226C22.395 30.3034 19.8783 29.8312 18.9275 29.7052C17.9362 29.5749 15.9607 29.7212 15.9983 31.1274C16.0012 31.2042 16.2053 31.2259 16.2038 31.1752Z" fill="#332220"/>
<path d="M18.8609 34.0181C18.8609 34.0181 18.8812 34.1542 18.8942 34.3541L18.942 35.0782C18.942 35.2071 18.9637 35.336 18.9767 35.4547C18.9897 35.5126 18.9912 35.5735 19.0042 35.6256C19.0172 35.6777 19.0245 35.7299 19.0404 35.7704C19.0526 35.8112 19.0681 35.8509 19.0867 35.8892C19.107 35.921 19.1157 35.9587 19.1374 35.9761L19.1953 36.047L19.1084 36.0079C19.0764 35.9889 19.0476 35.9649 19.023 35.937C18.9872 35.9028 18.9569 35.8632 18.9333 35.8197C18.902 35.7721 18.8763 35.721 18.8566 35.6676C18.8327 35.6092 18.8129 35.5492 18.7973 35.488C18.7645 35.3574 18.7437 35.2241 18.735 35.0898C18.7263 34.9571 18.7263 34.8241 18.735 34.6915C18.7416 34.5758 18.7557 34.4607 18.777 34.3468C18.7956 34.235 18.8237 34.1251 18.8609 34.0181Z" fill="#AF9C8B"/>
<g style="mix-blend-mode:screen" opacity="0.3">
<path d="M17.1445 31.0999C18.0794 31.4258 17.9405 31.8414 18.6467 32.0862C19.5006 32.3758 19.7162 31.6995 20.6439 31.853C21.3675 31.9732 22.1504 31.8284 22.175 31.5532C22.175 31.5388 22.175 31.5243 22.175 31.5098C22.1756 31.505 22.1756 31.5001 22.175 31.4953C22.065 30.8697 21.3443 30.3092 19.7669 29.9138C18.1141 29.4996 16.9187 29.7907 16.3977 30.3686C16.3601 30.4381 16.2342 30.7813 17.1445 31.0999Z" fill="#473731"/>
</g>
<path d="M20.0592 33.4345C20.0592 33.4345 19.6685 32.7944 19.722 32.3759C19.7756 31.9573 20.8277 31.9805 21.0245 32.2701C21.1403 32.4454 20.6439 32.512 20.4456 32.6771C20.2474 32.8422 20.023 33.0739 20.0592 33.4345Z" fill="#231717"/>
<path d="M17.625 32.9377C17.625 32.9377 17.9145 32.2542 17.7307 31.7791C17.5353 31.2665 16.7089 31.1825 16.5859 31.5083C16.5107 31.7053 16.9636 31.8153 17.1648 32.0239C17.4286 32.259 17.5932 32.5857 17.625 32.9377Z" fill="#231717"/>
<g style="mix-blend-mode:screen">
<path d="M16.6496 30.4207C16.6496 30.4207 17.7712 29.3258 20.1359 30.1788C20.1229 30.1788 18.1981 29.8182 16.6496 30.4207Z" fill="#483431"/>
</g>
<path d="M28.8062 21.8993C28.8062 21.8993 29.3489 20.3671 30.7671 20.5612C32.1854 20.7552 32.2867 22.6553 32.2867 22.6553C32.1649 22.3145 31.9467 22.0166 31.6586 21.7978C31.3706 21.5789 31.0251 21.4487 30.6644 21.4229C29.3633 21.2839 28.8062 21.8993 28.8062 21.8993Z" fill="#33201A"/>
<path d="M28.8973 21.9659C29.1318 21.3229 29.6614 20.7755 30.3445 20.6379C31.524 20.3975 32.1492 21.6227 32.21 22.6089L32.3822 22.6958C32.2786 22.4035 32.1082 22.1395 31.8846 21.9248C31.6609 21.7101 31.3903 21.5506 31.0942 21.459C30.3822 21.2505 29.2895 21.2447 28.7323 21.8414C28.6962 21.8819 28.8582 22.0123 28.9017 21.9659C29.77 21.0362 31.8366 21.4011 32.2129 22.6234C32.2245 22.6625 32.3894 22.7682 32.3851 22.7118C32.3316 21.8515 31.9249 20.9623 31.1101 20.5973C30.1101 20.1498 29.0724 20.9102 28.7323 21.8414C28.7048 21.9007 28.8814 22.005 28.8973 21.9659Z" fill="#231713"/>
<path d="M23.1432 21.0593C23.1432 21.0593 22.806 19.5836 21.6077 19.5184C20.4094 19.4532 20.2097 20.9666 20.2097 20.9666C20.2097 20.9666 20.7756 20.0861 21.5918 20.2309C22.408 20.3758 23.1432 21.0593 23.1432 21.0593Z" fill="#33201A"/>
<path d="M23.2431 21.0651C23.0462 20.2396 22.4529 19.5604 21.5874 19.4721C20.722 19.3837 20.2126 20.1962 20.1084 20.9449C20.0997 21.0029 20.2806 21.0347 20.3081 20.9927C20.4814 20.733 20.716 20.5201 20.9912 20.3729C21.6511 20.0108 22.5571 20.6104 23.0535 21.0608C23.094 21.097 23.2923 21.1013 23.2373 21.0506C22.3284 20.2237 20.9217 19.7081 20.1171 20.9333L20.3153 20.9811C20.3906 20.4511 20.6569 19.9036 21.1446 19.6502C22.0737 19.1665 22.8596 20.2715 23.0448 21.0492C23.0549 21.1086 23.259 21.1288 23.2431 21.0651Z" fill="#231713"/>
<path d="M44.4361 28.3381C44.4361 28.3381 44.3927 28.4583 44.3247 28.6698C44.2567 28.8812 44.1669 29.1839 44.0671 29.5503C44.0164 29.7328 43.9672 29.9312 43.9223 30.1426C43.8775 30.3541 43.8326 30.5771 43.7776 30.8103C43.7226 31.0434 43.6893 31.2824 43.6517 31.5344C43.6141 31.7864 43.575 32.0282 43.5548 32.2802L43.5142 32.6553C43.5027 32.7799 43.4983 32.9044 43.4896 33.029L43.4679 33.3954C43.4679 33.517 43.4679 33.6372 43.4679 33.7545C43.4679 33.8718 43.4679 33.9891 43.4679 34.1035C43.4679 34.218 43.4752 34.328 43.4781 34.4352C43.4803 34.6389 43.4929 34.8424 43.5157 35.0449C43.533 35.2346 43.549 35.407 43.562 35.5605C43.575 35.714 43.6069 35.8501 43.6242 35.9544C43.6561 36.1745 43.6749 36.3005 43.6749 36.3005C43.6749 36.3005 43.6416 36.1774 43.5851 35.9631L43.4853 35.5721C43.4563 35.4272 43.4274 35.2476 43.3985 35.0579C43.3644 34.8546 43.3408 34.6496 43.3275 34.4439C43.3174 34.3353 43.3073 34.2237 43.2971 34.1079C43.287 33.992 43.2971 33.8747 43.2885 33.756C43.2798 33.6372 43.2885 33.5141 43.2885 33.391C43.2885 33.2679 43.2986 33.1434 43.3058 33.0174C43.3131 32.8914 43.316 32.7654 43.3261 32.6379L43.3637 32.257C43.3869 32.0022 43.4332 31.7502 43.4694 31.5025C43.5055 31.2549 43.5663 31.013 43.6141 30.7784C43.6618 30.5438 43.7241 30.3222 43.7892 30.1122C43.8543 29.9022 43.9108 29.7038 43.973 29.5228C44.0917 29.1607 44.2176 28.8667 44.3044 28.6611C44.3912 28.4554 44.4361 28.3381 44.4361 28.3381Z" fill="#3F1D0F"/>
<g style="mix-blend-mode:multiply">
<path d="M30.3764 34.4482C29.8974 35.8965 28.0391 35.9341 27.5326 37.7169C27.0261 39.4997 27.0044 40.3976 24.8553 40.5105C23.6975 40.5714 22.9449 40.3005 22.4457 39.827C21.9304 40.0283 21.1518 40.1166 20.0042 39.827C18.3558 39.4128 17.4875 38.6829 17.0446 38.1369C16.9208 38.2701 16.7524 38.3531 16.5714 38.3701C17.3572 40.6423 17.9636 41.4649 22.1157 41.9588C26.2677 42.4526 27.6411 42.1746 29.4024 39.4968C31.0247 37.0348 31.5342 36.412 32.1058 36.0109C31.5674 36.3512 30.1275 35.869 30.3764 34.4482ZM17.8073 39.672C17.3008 40.0341 17.0157 39.2086 16.8739 38.7017C16.7928 38.4121 16.952 38.2354 17.2588 38.6858C17.5816 39.1651 18.3124 39.3085 17.8073 39.672ZM28.126 40.4932C26.2258 42.2629 24.7815 41.8936 22.9348 41.6141C21.0882 41.3346 22.4413 40.4555 23.4052 40.7452C25.0723 41.2347 27.0102 41.5489 27.5326 39.2969C28.0551 37.0449 28.3749 36.9711 29.4328 36.5337C30.4907 36.0963 30.0262 38.7234 28.1245 40.4932H28.126Z" fill="#E2D3C7"/>
</g>
<path d="M21.6005 38.2629C21.4843 37.8299 21.2568 37.4349 20.9406 37.1173C20.1851 37.4924 18.3486 38.638 17.2936 41.2868C16.4426 43.42 16.557 44.958 18.1938 45.4273C19.8306 45.8965 20.7032 43.643 21.2097 42.0543C21.7004 40.5105 22.4457 39.8269 22.4457 39.8269C22.0231 39.4258 21.7742 38.8798 21.6005 38.2629Z" fill="#B55050"/>
<path d="M21.6874 38.2977C21.5548 37.8567 21.3209 37.453 21.0043 37.1188C20.9782 37.0913 20.9073 37.0291 20.8595 37.0508C19.4254 37.7749 18.3168 39.0073 17.5715 40.415C16.9535 41.5837 16.0403 43.8082 17.2241 44.9335C17.4422 45.1486 17.7039 45.3143 17.9916 45.4192C18.2792 45.5242 18.5861 45.566 18.8913 45.5418C19.6063 45.4578 20.0998 44.7814 20.4326 44.2108C21.23 42.8437 21.327 41.0102 22.5253 39.8864C22.5398 39.8719 22.5123 39.8357 22.5036 39.827C22.0781 39.3926 21.8509 38.8712 21.6816 38.2977C21.6656 38.2456 21.4876 38.1529 21.5093 38.2282C21.6276 38.6605 21.8111 39.0722 22.0535 39.449C22.1372 39.5697 22.2343 39.6805 22.3429 39.7792C22.2921 39.8273 22.2437 39.8781 22.1982 39.9313C21.6599 40.5497 21.3299 41.3332 21.0795 42.1037C20.6801 43.352 19.887 45.7952 18.1417 45.3593C15.8739 44.7916 17.1286 41.6895 17.819 40.3846C18.5282 39.0167 19.6394 37.8991 21.0028 37.1826L20.8581 37.1145C21.1554 37.4298 21.3741 37.8109 21.4963 38.2267C21.5325 38.2818 21.7148 38.373 21.6874 38.2977Z" fill="#8E3333"/>
<path d="M21.2488 38.2209C21.1681 38.2812 21.0908 38.346 21.0173 38.415C20.9464 38.4787 20.8639 38.5598 20.7727 38.6598C20.6815 38.7597 20.5831 38.8712 20.4833 38.9986L20.3255 39.2C20.2734 39.2709 20.2213 39.3448 20.1678 39.423C20.0578 39.5678 19.9623 39.7488 19.8494 39.9197C19.7365 40.0906 19.641 40.2789 19.5484 40.4729C19.4557 40.667 19.3501 40.8582 19.2691 41.0624C19.188 41.2666 19.0911 41.4606 19.0201 41.6648C18.9492 41.869 18.8624 42.0617 18.8045 42.2586C18.7466 42.4556 18.6728 42.6424 18.6207 42.8234L18.476 43.3347C18.3834 43.6518 18.3313 43.9212 18.2763 44.108C18.2213 44.2948 18.1981 44.3977 18.1981 44.3977C18.1981 44.3977 18.2126 44.289 18.2357 44.0964C18.2502 44.0008 18.2661 43.8835 18.2835 43.7503C18.3019 43.6004 18.328 43.4515 18.3617 43.3042C18.3964 43.1411 18.434 42.9658 18.4745 42.7785C18.5165 42.5917 18.5744 42.3991 18.6308 42.1992C18.6873 41.9994 18.7582 41.7952 18.8334 41.5895C18.9087 41.3839 18.9912 41.1768 19.0809 40.9726C19.1706 40.7684 19.272 40.57 19.3704 40.3759C19.4688 40.1819 19.5903 39.9994 19.6945 39.8183C19.7987 39.6373 19.9232 39.4766 20.0462 39.3288L20.2213 39.1102L20.3964 38.9175C20.4983 38.8047 20.607 38.6983 20.7221 38.5989C20.8248 38.5091 20.916 38.4367 20.9956 38.3788C21.0758 38.3197 21.1605 38.2669 21.2488 38.2209Z" fill="#8E3333"/>
<g style="mix-blend-mode:multiply" opacity="0.5">
<path d="M22.4457 39.8269C22.0231 39.4258 21.7742 38.8798 21.6005 38.2629C21.4843 37.8299 21.2568 37.4349 20.9406 37.1173C20.1851 37.4924 18.3486 38.638 17.2936 41.2868C16.4426 43.42 16.557 44.958 18.1938 45.4273C19.8306 45.8965 20.7032 43.643 21.2097 42.0543C21.7004 40.5105 22.4457 39.8269 22.4457 39.8269ZM21.0491 38.8262C21.6019 38.8856 21.5166 39.5344 20.9218 41.2593C20.4659 42.5887 20.0838 45.5214 18.0273 44.8972C15.9708 44.273 17.4484 40.5974 19.1735 38.6249C19.9536 37.7285 20.7582 37.7849 19.9145 39.1796C19.0708 40.5742 18.3689 43.4866 18.3689 43.4866C18.3689 43.4866 18.8146 42.2209 19.4847 40.8088C20.1547 39.3968 20.7843 38.7987 21.0491 38.8262Z" fill="#B55050"/>
</g>
<g style="mix-blend-mode:screen" opacity="0.6">
<path d="M19.0389 38.9899C18.1396 40.0552 17.5286 41.3338 17.2646 42.7031C16.9882 44.26 18.0128 45.0044 17.7943 43.9776C17.6438 43.2694 17.6134 41.4359 19.0389 38.9899Z" fill="#B55050"/>
</g>
<g style="mix-blend-mode:screen" opacity="0.6">
<path d="M17.68 29.2071C18.7523 29.1014 21.1214 28.9073 25.0608 31.4533C26.508 32.3874 27.2649 32.4193 25.8032 29.5388C24.3415 26.6582 22.9826 27.3664 20.0751 28.0485C17.1676 28.7307 16.3775 29.3273 17.68 29.2071Z" fill="#F7E8DA"/>
</g>
<g style="mix-blend-mode:screen" opacity="0.6">
<path d="M14.172 31.4895C13.5931 33.0304 13.8738 35.5083 15.0475 36.1702C16.2212 36.832 17.1084 36.0558 15.871 35.3172C14.6336 34.5786 13.9621 33.0391 14.172 31.4895Z" fill="#F7E8DA"/>
</g>
<g style="mix-blend-mode:screen" opacity="0.7">
<path d="M24.0926 16.0558C24.0926 16.0558 27.5413 13.7096 31.0855 14.6886C34.6298 15.6676 36.4764 17.9544 36.4764 17.9544C36.4764 17.9544 30.6948 12.9681 24.0926 16.0558Z" fill="#7F4629"/>
</g>
<g style="mix-blend-mode:screen" opacity="0.7">
<path d="M39.5836 19.9052C39.5836 19.9052 43.3839 20.8436 44.2769 22.3078C45.4723 24.2672 44.3955 25.6865 43.2711 28.26C42.1466 30.8335 42.4273 33.4939 42.4273 33.4939C42.0289 32.4899 41.8349 31.4163 41.8568 30.3362C41.8786 29.2561 42.1159 28.1913 42.5547 27.2042C44.0424 23.8487 44.8919 21.6054 39.5836 19.9052Z" fill="#7F4629"/>
</g>
<g style="mix-blend-mode:multiply" opacity="0.5">
<path d="M44.9962 35.0334C44.3205 33.8086 43.8945 32.4618 43.7429 31.071C43.7429 31.071 43.0063 34.5222 43.7791 36.499C43.7582 35.8954 43.83 35.2922 43.9918 34.7104C44.2552 33.8415 46.3493 36.3904 42.4751 40.0689C41.5952 40.9045 41.1726 40.9784 38.8571 38.4599C36.5415 35.9414 36.8049 35.7083 36.8455 31.8154C36.886 27.9226 37.6081 27.1652 35.6269 25.3621C33.6457 23.5591 35.4026 21.0348 35.4026 21.0348C35.4026 21.0348 32.9973 23.3838 34.226 25.4374C35.4547 27.491 36.1812 28.3961 34.8555 31.4128C33.5299 34.4295 32.6702 35.1174 31.362 33.73C30.0537 32.3426 29.4053 31.8473 29.4053 31.8473C29.4053 31.8473 30.4184 33.1072 30.4039 34.1225C30.3894 35.1377 30.4039 36.2412 32.1087 36.0341C32.4604 35.785 32.8323 35.6199 33.5169 35.1521C35.2926 33.9269 35.5198 32.7394 35.5198 32.7394C34.857 37.407 35.1537 37.7242 37.8064 39.772C40.4592 41.8198 40.2305 42.6236 41.5026 41.982C43.9556 40.7307 46.1322 37.1304 44.9962 35.0334Z" fill="#7F4629"/>
</g>
<g style="mix-blend-mode:multiply" opacity="0.5">
<path d="M28.7454 21.6589C28.5239 22.3439 28.5543 22.3236 29.1665 21.9645C29.7787 21.6053 31.3938 21.2404 32.1347 22.6886C32.3156 23.0463 32.7672 22.3179 31.9509 20.9174C31.4256 20.021 29.3952 19.6488 28.7454 21.6589Z" fill="#7F4629"/>
</g>
<g style="mix-blend-mode:screen" opacity="0.6">
<path d="M22.6715 36.5164C24.3835 37.4201 25.5659 36.7032 26.0521 35.4157C26.5384 34.1282 27.0869 36.8741 25.1317 38.2036C23.1765 39.533 21.0202 35.646 22.6715 36.5164Z" fill="#F7E8DA"/>
</g>
<g style="mix-blend-mode:multiply" opacity="0.5">
<path d="M17.4369 17.9109C18.8175 15.7198 20.3458 17.1868 19.4861 17.6865C18.6265 18.1861 18.1533 18.0717 16.3616 22.0572C14.57 26.0428 13.9636 28.2166 11.1777 29.8951C8.3918 31.5736 8.72466 32.4497 8.08065 33.911C7.43664 35.3723 7.30204 32.6366 7.86501 31.6199C8.33441 30.7957 8.91164 30.0378 9.58141 29.3665C8.36141 30.3498 7.30639 31.2825 7.09944 32.0587C6.63199 33.8082 6.82881 35.5345 7.90698 35.5779C8.68054 35.6057 9.45507 35.5688 10.2225 35.4679C9.12988 35.31 8.41061 35.2115 8.34114 34.7756C8.27168 34.3397 8.8607 31.8791 11.9027 30.1413C14.9448 28.4034 15.1083 27.2448 16.7104 23.0551C17.7813 20.2571 18.8566 19.0319 19.6048 18.9334C19.8089 18.2165 20.2879 17.5619 21.285 16.7335C20.476 16.286 18.4861 15.6894 17.4369 17.9109Z" fill="#7F4629"/>
</g>
<g style="mix-blend-mode:multiply" opacity="0.5">
<path d="M19.4905 27.5924C19.4905 27.5924 19.9391 26.289 19.7336 23.2013C19.5961 21.1535 19.3081 19.9732 19.6048 18.9276C18.8812 19.0232 17.8464 20.1832 16.8088 22.8045C18.3645 20.4656 19.2256 20.4874 19.0389 23.1593C18.8002 26.5554 17.3197 26.8016 15.5208 28.0413C13.7219 29.281 13.363 29.4823 12.952 31.8357C12.541 34.1891 11.5988 35.2159 11.5988 35.2159C12.2028 35.0807 12.7929 34.8897 13.3615 34.6453C13.3615 34.6453 12.9592 30.8147 14.6814 29.6996C16.4036 28.5844 19.4905 27.5924 19.4905 27.5924Z" fill="#7F4629"/>
</g>
<g style="mix-blend-mode:screen" opacity="0.7">
<path d="M7.92725 31.8776C7.92725 31.8776 8.50613 30.2933 10.7189 28.6828C12.9317 27.0724 13.7942 26.0138 14.5338 24.6061C14.5338 24.6061 13.6814 27.5156 11.3846 28.8291C9.08791 30.1427 8.28037 31.1622 7.92725 31.8776Z" fill="#7F4629"/>
</g>
</g>
<defs>
<clipPath id="clip0_1_2654">
<rect width="41.92" height="34.1739" fill="white" transform="translate(6.04004 13)"/>
</clipPath>
</defs>
</svg>
