<svg width="29" height="28" viewBox="0 0 29 28" fill="none" xmlns="http://www.w3.org/2000/svg">
<path d="M27.6111 13.6111C27.6111 20.8522 21.7411 26.7222 14.5 26.7222C7.25896 26.7222 1.38892 20.8522 1.38892 13.6111C1.38892 6.37004 7.25896 0.5 14.5 0.5C21.7411 0.5 27.6111 6.37004 27.6111 13.6111Z" fill="white" stroke="#FC7162"/>
<path d="M9.98385 19.9978C9.81934 19.9488 9.65934 19.8859 9.50562 19.8095C9.34168 19.7178 9.20437 19.585 9.10712 19.4243C9.00986 19.2635 8.95599 19.0803 8.95077 18.8925C8.92998 18.3902 8.95077 17.8867 8.95077 17.3604C8.9847 17.4698 9.00658 17.5497 9.03832 17.6274C9.13172 17.8538 9.29198 18.0464 9.49769 18.1793C9.7034 18.3123 9.94477 18.3794 10.1896 18.3715C10.8867 18.3715 11.5849 18.3715 12.282 18.3715H19.8901C19.9667 19.0282 19.8365 19.5677 19.2335 19.8774C19.1182 19.9274 18.9993 19.9683 18.8778 20L9.98385 19.9978Z" fill="#FC7162"/>
<path d="M15.4337 17.6077H10.2453C9.86334 17.6077 9.70685 17.4512 9.70685 17.0681V13.1733C9.70685 12.8209 9.86662 12.66 10.2157 12.66H20.6735C21.0171 12.66 21.1813 12.8231 21.1813 13.1623V17.1021C21.1813 17.4468 21.0128 17.6131 20.6648 17.6131L15.4337 17.6077ZM14.4487 15.7221C14.4487 16.0077 14.4487 16.2813 14.4487 16.556C14.4471 16.6134 14.4588 16.6704 14.483 16.7225C14.5072 16.7747 14.5431 16.8205 14.588 16.8563C14.6329 16.8922 14.6855 16.9171 14.7416 16.9292C14.7978 16.9413 14.856 16.9401 14.9117 16.9259C15.0966 16.8909 15.2071 16.7376 15.2082 16.5111C15.2082 15.8866 15.2082 15.261 15.2082 14.6343C15.2082 14.5288 15.2006 14.4235 15.1853 14.3191C15.1421 14.0365 14.9962 13.7797 14.7755 13.5979C14.5548 13.4162 14.2748 13.3223 13.9891 13.3342C13.3598 13.3528 12.8532 13.796 12.8313 14.4056C12.8039 15.1311 12.8181 15.8589 12.8214 16.5866C12.8211 16.6325 12.8299 16.6779 12.8473 16.7203C12.8647 16.7627 12.8903 16.8013 12.9226 16.8337C12.955 16.8662 12.9935 16.8919 13.0358 16.9094C13.0782 16.9269 13.1236 16.9359 13.1694 16.9357C13.2158 16.9415 13.2629 16.9381 13.3079 16.9257C13.3529 16.9133 13.3951 16.892 13.4319 16.8633C13.4687 16.8345 13.4995 16.7987 13.5224 16.758C13.5454 16.7173 13.56 16.6724 13.5656 16.626C13.5777 16.5082 13.582 16.3898 13.5787 16.2714C13.5787 16.092 13.5787 15.9114 13.5787 15.7243L14.4487 15.7221ZM15.8944 15.1366C15.8798 15.4319 15.8816 15.7279 15.8999 16.023C15.9297 16.2738 16.0509 16.5048 16.2402 16.672C16.4296 16.8391 16.6738 16.9307 16.9264 16.9292C17.4856 16.9423 17.9256 16.6085 18.0295 16.081C18.0544 15.9701 18.0592 15.8555 18.0437 15.7429C18.0228 15.6575 17.9718 15.5826 17.9 15.5319C17.8282 15.4813 17.7405 15.4582 17.6531 15.4671C17.455 15.4846 17.3247 15.6225 17.2985 15.849C17.2722 16.0756 17.1431 16.1773 16.9527 16.1773C16.908 16.176 16.864 16.1656 16.8235 16.1467C16.783 16.1278 16.7468 16.1008 16.7171 16.0674C16.6873 16.034 16.6648 15.9949 16.6507 15.9524C16.6366 15.91 16.6314 15.8651 16.6353 15.8206C16.6353 15.6214 16.6353 15.4222 16.6353 15.2241C16.6353 14.9571 16.6353 14.6912 16.6353 14.4242C16.6344 14.3805 16.6423 14.3371 16.6584 14.2965C16.6745 14.2559 16.6985 14.2189 16.7291 14.1877C16.7597 14.1566 16.7962 14.1318 16.8364 14.1149C16.8767 14.098 16.9199 14.0893 16.9636 14.0893C17.0492 14.0878 17.132 14.1198 17.1944 14.1784C17.2567 14.2371 17.2937 14.3178 17.2974 14.4034C17.3019 14.4402 17.3085 14.4767 17.3171 14.5128C17.3396 14.6018 17.3938 14.6795 17.4696 14.7313C17.5454 14.7831 17.6375 14.8054 17.7286 14.7941C17.819 14.7822 17.9021 14.7379 17.9624 14.6695C18.0228 14.6011 18.0563 14.5132 18.0569 14.422C18.0656 13.8376 17.6454 13.3878 17.0391 13.3331C16.7697 13.3063 16.5005 13.3855 16.2885 13.5538C16.0764 13.7221 15.9382 13.9664 15.9032 14.2348C15.8833 14.535 15.8811 14.8361 15.8966 15.1366H15.8944ZM11.3396 14.0838C11.6242 14.0838 11.8945 14.0838 12.1648 14.0838C12.2168 14.0867 12.2687 14.0785 12.3173 14.0599C12.3659 14.0412 12.41 14.0125 12.4467 13.9756C12.4834 13.9387 12.5119 13.8945 12.5302 13.8458C12.5486 13.7971 12.5565 13.7451 12.5533 13.6931C12.5536 13.642 12.5433 13.5914 12.523 13.5445C12.5027 13.4975 12.4729 13.4554 12.4355 13.4206C12.398 13.3858 12.3537 13.3592 12.3054 13.3424C12.2571 13.3257 12.2059 13.3191 12.1549 13.3232C11.7829 13.3232 11.4108 13.3232 11.0387 13.3232C10.7104 13.3232 10.5725 13.4655 10.5725 13.785C10.5725 14.681 10.5725 15.5776 10.5725 16.475C10.5705 16.5115 10.5705 16.548 10.5725 16.5844C10.5752 16.6333 10.5878 16.6811 10.6093 16.7251C10.6308 16.769 10.6609 16.8082 10.6979 16.8404C10.7348 16.8725 10.7778 16.8969 10.8243 16.9121C10.8708 16.9274 10.9199 16.9332 10.9687 16.9292C11.0175 16.9288 11.0658 16.9185 11.1106 16.8991C11.1554 16.8796 11.1958 16.8513 11.2294 16.8158C11.263 16.7804 11.2891 16.7385 11.3062 16.6927C11.3233 16.647 11.3309 16.5982 11.3287 16.5494C11.3287 16.3174 11.3287 16.0843 11.3287 15.8523C11.3287 15.8074 11.3287 15.7637 11.3353 15.7089C11.494 15.7089 11.6373 15.7089 11.7796 15.7089C11.8296 15.7091 11.879 15.6989 11.9248 15.6789C11.9706 15.6589 12.0118 15.6296 12.0456 15.5929C12.0795 15.5561 12.1054 15.5127 12.1215 15.4655C12.1377 15.4182 12.1439 15.368 12.1396 15.3183C12.1396 15.2682 12.1293 15.2187 12.1094 15.1728C12.0895 15.1269 12.0604 15.0855 12.0239 15.0513C11.9874 15.017 11.9442 14.9906 11.8971 14.9737C11.85 14.9567 11.8 14.9496 11.75 14.9527C11.6132 14.9527 11.4753 14.9527 11.3342 14.9527L11.3396 14.0838ZM19.0396 14.0838V16.4586C19.0369 16.5093 19.0369 16.56 19.0396 16.6107C19.0477 16.6958 19.0863 16.7751 19.1482 16.834C19.2101 16.893 19.2913 16.9275 19.3767 16.9314C19.6317 16.95 19.7947 16.788 19.7947 16.5067C19.7947 15.7494 19.7947 14.9921 19.7947 14.2348V14.0838C19.9173 14.0838 20.0136 14.0838 20.123 14.0838C20.1729 14.0851 20.2226 14.0764 20.269 14.0583C20.3155 14.0401 20.3579 14.0129 20.3937 13.9781C20.4295 13.9433 20.458 13.9018 20.4774 13.8558C20.4969 13.8099 20.507 13.7605 20.5072 13.7106C20.5094 13.6606 20.5014 13.6106 20.4837 13.5637C20.4659 13.5168 20.4388 13.474 20.404 13.438C20.3692 13.4019 20.3274 13.3733 20.2811 13.354C20.2349 13.3346 20.1852 13.3249 20.1351 13.3254C19.6536 13.3254 19.1709 13.3188 18.6883 13.3254C18.6382 13.3251 18.5886 13.3352 18.5426 13.3551C18.4966 13.375 18.4553 13.4043 18.4212 13.441C18.3871 13.4778 18.3611 13.5212 18.3447 13.5685C18.3283 13.6159 18.322 13.6662 18.3261 13.7161C18.3262 13.7649 18.3361 13.8133 18.3551 13.8583C18.3741 13.9033 18.4019 13.944 18.4369 13.9781C18.4718 14.0123 18.5132 14.0391 18.5586 14.0571C18.6041 14.075 18.6526 14.0837 18.7015 14.0827C18.8098 14.0871 18.9149 14.0838 19.0396 14.0838Z" fill="#FC7162"/>
<path d="M8.94299 12.868V8.27166C8.94299 7.5056 9.4486 7 10.2136 7H14.6228C15.3735 7 15.8791 7.5056 15.8802 8.25743C15.8802 8.75646 15.8802 9.25549 15.8802 9.75452C15.8802 10.5118 16.3858 11.0196 17.1442 11.024C17.6553 11.024 18.1674 11.024 18.6763 11.024C18.9129 11.0156 19.1466 11.0788 19.3467 11.2053C19.5468 11.3318 19.7041 11.5158 19.798 11.7331C19.8117 11.7639 19.8237 11.7953 19.8341 11.8273C19.8392 11.8492 19.8429 11.8715 19.8451 11.894H19.6941C16.5631 11.894 13.4332 11.9017 10.3022 11.8874C9.68498 11.8885 9.1367 12.1676 8.94299 12.868ZM12.7864 9.39338H13.3336C13.7648 9.39338 14.1971 9.39338 14.6282 9.39338C14.6962 9.39386 14.763 9.37599 14.8217 9.34164C14.8803 9.3073 14.9286 9.25775 14.9615 9.19824C14.9943 9.13873 15.0105 9.07146 15.0083 9.00353C15.0061 8.93559 14.9855 8.86952 14.9489 8.81227C14.9092 8.75175 14.8539 8.70317 14.7887 8.67174C14.7235 8.64032 14.651 8.62723 14.579 8.63389H10.9993C10.9487 8.63397 10.8983 8.64059 10.8494 8.65359C10.7871 8.66776 10.73 8.69919 10.6847 8.74429C10.6394 8.78938 10.6077 8.84632 10.5933 8.90858C10.5748 8.96642 10.5707 9.02793 10.5814 9.08773C10.5921 9.14752 10.6172 9.20379 10.6547 9.25161C10.6922 9.29943 10.7408 9.33736 10.7963 9.36207C10.8517 9.38678 10.9124 9.39753 10.9731 9.39338C11.5771 9.39557 12.1823 9.39338 12.7864 9.39338ZM12.179 10.2689C11.7774 10.2689 11.3747 10.2689 10.9752 10.2689C10.9136 10.265 10.8519 10.2764 10.7957 10.302C10.7394 10.3277 10.6904 10.3668 10.653 10.416C10.6155 10.4651 10.5907 10.5228 10.5809 10.5838C10.5711 10.6448 10.5765 10.7073 10.5966 10.7657C10.6491 10.9397 10.7892 11.0273 11.0256 11.0284H13.3336C13.3842 11.0284 13.4348 11.024 13.4846 11.0152C13.5551 11.0025 13.62 10.9687 13.6708 10.9183C13.7216 10.8679 13.7559 10.8032 13.7692 10.7329C13.8195 10.4724 13.6532 10.2754 13.3708 10.2722C12.9736 10.2634 12.5763 10.2656 12.179 10.2667V10.2689Z" fill="#FC7162"/>
<path d="M16.3882 7.21667C16.638 7.30903 16.8646 7.45467 17.0525 7.64348C17.7915 8.37306 18.5273 9.10884 19.2598 9.85082C19.4519 10.0473 19.6046 10.2787 19.7096 10.5326C19.6625 10.5107 19.6341 10.4987 19.6067 10.4845C19.3112 10.3348 18.9836 10.2597 18.6524 10.2656C18.1534 10.2656 17.6544 10.2656 17.1542 10.2656C16.7997 10.2656 16.6377 10.1003 16.6366 9.74357C16.6366 9.28722 16.63 8.82977 16.6366 8.37342C16.6577 7.97265 16.5719 7.57346 16.3882 7.21667Z" fill="#FC7162"/>
<path d="M13.5888 14.9429C13.5888 14.771 13.5757 14.6025 13.5888 14.4362C13.6059 14.3342 13.66 14.242 13.7407 14.1774C13.8215 14.1128 13.9233 14.0802 14.0265 14.086C14.133 14.0907 14.234 14.1346 14.31 14.2094C14.386 14.2842 14.4316 14.3845 14.438 14.4909C14.4479 14.6375 14.438 14.7853 14.438 14.9429H13.5888Z" fill="#FC7162"/>
</svg>
