<svg width="64" height="35" viewBox="0 0 64 35" fill="none" xmlns="http://www.w3.org/2000/svg">
<path d="M0.497862 27.8505C0.789144 28.1765 1.53815 27.9338 2.13805 27.6841C3.49043 27.2992 4.82894 26.6438 6.11196 26.0994H6.13277C6.16051 26.1618 6.21946 26.2242 6.268 26.2242C7.50237 26.242 8.73617 26.1608 9.95757 25.9815C13.713 26.2554 17.6488 25.8913 21.3418 26.7652C21.3551 26.7932 21.3769 26.8163 21.4042 26.8311C21.542 26.9057 21.6926 26.9539 21.8481 26.9732C21.9036 26.9732 21.907 26.9455 21.8932 26.9039C21.9348 26.9039 21.8932 26.8553 21.8932 26.8449L21.8689 26.8137C20.2495 25.3539 18.3076 24.2511 16.3866 23.2282C15.5647 22.7913 14.7464 22.3405 13.8864 21.9764C13.5188 21.8203 12.9779 21.4736 12.5236 21.4666C12.5236 21.432 12.4751 21.3938 12.4439 21.3973C10.4264 21.8217 8.45793 22.4526 6.56969 23.2802C4.81651 23.9664 3.11024 24.7668 1.46186 25.6763C1.03503 25.8078 0.630534 26.003 0.262066 26.2554C-0.265014 26.675 0.102552 27.4102 0.497862 27.8505Z" fill="#8C5E28"/>
<path d="M0.678122 26.46C1.61785 26.0924 2.51943 25.6832 3.47303 25.3469C4.51332 24.9793 5.55361 24.5008 6.62164 24.206C7.68967 23.9113 8.77851 23.6859 9.83961 23.353C9.88469 23.353 9.83961 23.2594 9.79106 23.2663C7.97402 23.6755 6.21246 23.9598 4.4509 24.5666L4.07987 24.695C6.73696 23.4215 9.49365 22.3673 12.3224 21.5429L12.3536 21.5637H12.4195C12.4403 21.5637 12.4195 21.5394 12.4195 21.5325C13.0368 22.0596 14.188 22.33 14.9093 22.7011C15.6306 23.0721 16.3657 23.464 17.087 23.8593C17.9261 24.3205 18.7376 24.8302 19.542 25.3399C19.8888 25.5549 20.2182 25.7665 20.5477 25.9919C20.6066 26.0335 21.5879 26.6403 21.4874 26.6854C19.6669 26.0751 17.6002 26.0473 15.7172 25.874C14.5036 25.7595 13.2622 25.659 12.0242 25.6347C13.0645 25.4544 14.0805 25.2567 15.1035 25.0833C15.1277 25.0833 15.1035 25.0348 15.0792 25.0348C12.2045 25.2359 9.33333 25.6555 6.46907 25.9468C7.55396 25.5632 8.59913 25.0755 9.58994 24.4904C9.62461 24.4696 9.5622 24.3863 9.53099 24.4037C7.15913 25.5411 4.61042 26.297 2.21081 27.3893C1.79875 27.503 1.37758 27.5808 0.952062 27.6216C0.418047 27.6736 0.175315 26.6542 0.678122 26.46Z" fill="#B88659"/>
<g style="mix-blend-mode:multiply">
<path d="M7.32553 23.6894C7.8704 23.5749 8.42155 23.4927 8.97612 23.4432C7.44453 23.7173 5.93279 24.0926 4.45085 24.5667L4.07982 24.695C5.31083 24.1298 6.55224 23.5854 7.81099 23.0826C7.59877 23.1996 7.39894 23.3379 7.21456 23.4952C7.12093 23.5784 7.2215 23.7137 7.32553 23.6894Z" fill="#DCCEB4"/>
</g>
<g style="mix-blend-mode:multiply">
<path d="M8.85826 24.9863C8.84151 25.0021 8.82992 25.0226 8.825 25.045C8.82008 25.0675 8.82206 25.091 8.83067 25.1123C8.83929 25.1337 8.85414 25.1519 8.87329 25.1647C8.89244 25.1775 8.91499 25.1842 8.93801 25.1839C10.2696 25.281 11.6012 25.2498 12.9327 25.229C10.7759 25.444 8.61899 25.7353 6.46906 25.9537C7.35893 25.6214 8.2285 25.2369 9.07325 24.8025L8.85826 24.9863Z" fill="#DCCEB4"/>
</g>
<g style="mix-blend-mode:multiply">
<path d="M0.678138 26.46C1.61787 26.0925 2.51945 25.6833 3.47305 25.3469C4.51334 24.9793 5.55363 24.5008 6.62166 24.2061C7.68969 23.9113 8.70224 23.6998 9.71826 23.3877H9.85003C8.84441 23.6443 7.87001 24.0257 6.87826 24.3517C5.88652 24.6777 4.60697 25.0452 3.92731 25.9121C3.87529 25.978 3.8961 26.1202 4.01053 26.1063C5.88652 25.8844 7.63074 25.1735 9.37496 24.4869C7.04818 25.5827 4.55495 26.3317 2.20389 27.4032C1.79183 27.517 1.37066 27.5947 0.945142 27.6355C0.418062 27.6737 0.175332 26.6542 0.678138 26.46Z" fill="#DCCEB4"/>
</g>
<g style="mix-blend-mode:multiply">
<path d="M14.4099 25.2186C14.2303 25.3762 14.0623 25.5466 13.9071 25.7283C13.2795 25.6867 12.6518 25.6555 12.0242 25.6416L14.3926 25.2186H14.4099Z" fill="#DCCEB4"/>
</g>
<path d="M23.7865 32.7295C26.2139 32.6809 28.6863 33.0763 31.1449 32.993C33.43 32.9271 35.7083 32.993 37.9934 32.993C37.5669 33.1733 37.1716 33.4716 37.1647 33.8669C37.1652 33.9107 37.1806 33.9531 37.2083 33.9871C37.236 34.0211 37.2744 34.0447 37.3172 34.0541C37.8235 34.1547 38.4095 33.8669 38.9366 33.7074C39.8035 33.3849 41.1212 33.638 41.7315 33.6658C42.1789 33.6866 42.6192 33.6657 43.0562 33.7247C43.7964 33.6946 44.5377 33.7132 45.2755 33.7802C46.2325 33.8842 46.9642 34.3073 47.8519 34.5951C47.9583 34.653 48.0775 34.6834 48.1987 34.6834C48.3198 34.6834 48.439 34.653 48.5454 34.5951C48.5503 34.586 48.5528 34.5759 48.5528 34.5656C48.5528 34.5553 48.5503 34.5452 48.5454 34.5361C48.379 33.5895 46.9018 33.1733 46.1181 33.0763C45.1853 32.9584 44.2456 32.9306 43.3093 32.9063C44.4162 32.7437 45.5388 32.7169 46.6521 32.8266C46.9642 32.8751 48.2646 33.3987 48.8991 33.2912C48.9477 33.2403 48.9834 33.1785 49.0032 33.1109C49.0314 32.9971 49.0314 32.878 49.0032 32.7642C48.5142 32.1296 47.5745 31.8348 46.8186 31.8002C45.2223 31.781 43.6273 31.897 42.0506 32.1469C42.8989 31.7735 43.7916 31.5101 44.7068 31.3632C45.168 31.2904 46.0626 31.3078 46.3816 30.9263C46.3958 30.9099 46.4036 30.889 46.4036 30.8674C46.4036 30.8457 46.3958 30.8248 46.3816 30.8084C45.8823 30.2224 44.3011 30.6732 43.6977 30.7911C42.0956 31.0962 40.3237 31.4153 38.8014 32.0602C36.5232 32.0152 34.2449 31.8695 31.9701 31.7482C30.7045 31.6788 29.4422 31.5644 28.1835 31.4638C27.7639 31.4291 27.3443 31.3632 26.9247 31.3459C26.6936 30.9506 26.7941 30.7425 27.2264 30.7217C27.5732 30.5796 27.9408 30.4339 28.3049 30.3056C28.3534 30.3097 28.4023 30.3034 28.4483 30.2873C28.4944 30.2711 28.5364 30.2455 28.5719 30.212H28.6169C28.6378 30.212 28.6169 30.1808 28.6169 30.16C28.6242 30.1292 28.6242 30.0971 28.6169 30.0663C28.5772 29.8775 28.473 29.7083 28.3222 29.5878C28.2008 29.463 28.0646 29.3535 27.9165 29.2619C27.9165 29.241 27.8887 29.2202 27.8749 29.2202H27.8055C26.1827 29.3035 23.5889 29.567 22.6526 31.1413C22.0666 32.1157 22.7497 32.7538 23.7865 32.7295Z" fill="#9F7C8B"/>
<path d="M23.3079 30.8674C24.6118 29.8271 26.141 29.5185 27.743 29.2931C27.743 29.3243 27.7812 29.3555 27.8124 29.3451C27.8852 29.3 28.1591 29.6017 28.2008 29.6502C28.2916 29.7191 28.3652 29.8081 28.4157 29.9103C28.4608 30.0698 28.2874 30.0941 28.1834 30.1288C28.1453 30.1288 28.1418 30.1704 28.1557 30.2016C27.4171 30.3611 26.0751 30.7044 26.2797 31.2419C26.512 31.8487 28.173 31.658 28.6377 31.6857C31.7794 31.8868 34.9973 32.2926 38.1598 32.2301C38.5455 32.1653 38.9345 32.1213 39.3249 32.0984C39.3183 32.0883 39.3096 32.0796 39.2995 32.0731C39.2893 32.0665 39.2779 32.0621 39.266 32.0602H39.1307C40.8008 31.5341 42.5083 31.1353 44.2386 30.8674C44.8454 30.6871 45.6048 30.427 46.0625 30.8292C46.0764 30.8439 46.0863 30.8618 46.0913 30.8813C46.0962 30.9009 46.0961 30.9214 46.0909 30.9409C46.0857 30.9604 46.0755 30.9782 46.0615 30.9926C46.0474 31.0071 46.0299 31.0177 46.0105 31.0234C45.8025 31.0893 45.5979 30.9853 45.3968 31.0234H45.369H45.2997C44.8419 31.117 44.3773 31.1795 43.9126 31.2974C43.2143 31.4552 42.5377 31.6974 41.8979 32.0186C41.9043 32.0316 41.9077 32.0458 41.9077 32.0602C41.9077 32.0747 41.9043 32.0889 41.8979 32.1018C41.8986 32.1099 41.8986 32.118 41.8979 32.1261L42.1337 32.1955C43.1081 32.1955 44.0895 32.1192 45.0604 32.0325C45.6678 31.9466 46.2823 31.921 46.8948 31.9562C47.2362 31.9769 47.5732 32.0433 47.8969 32.1539C48.4309 32.2926 48.7187 32.4313 48.7638 32.57C48.8302 32.6373 48.8822 32.7176 48.9164 32.8058C48.9239 32.844 48.9231 32.8833 48.914 32.9212C48.905 32.959 48.8878 32.9945 48.8638 33.0251C48.8398 33.0557 48.8094 33.0808 48.7748 33.0986C48.7402 33.1164 48.7021 33.1265 48.6633 33.1283C48.5252 33.1327 48.3879 33.1067 48.261 33.052C48.142 33.0267 48.0258 32.9895 47.9143 32.941C47.8102 32.9063 47.7027 32.8682 47.5952 32.837C45.8614 32.518 44.1831 32.6463 42.3938 32.8613L41.5442 32.8266C41.8043 32.9133 42.0644 32.993 42.3244 33.0728C42.8168 33.1005 43.3127 33.1109 43.8086 33.1109C44.4708 33.0988 45.1332 33.1266 45.7921 33.1941C46.293 33.2377 46.7849 33.3545 47.2519 33.5409C47.6046 33.5964 47.9309 33.7614 48.1847 34.0125C48.2649 34.1132 48.3186 34.2325 48.3408 34.3593C48.3475 34.3886 48.3431 34.4195 48.3283 34.4457C48.3136 34.472 48.2896 34.4919 48.261 34.5014C48.138 34.5245 48.0113 34.5186 47.891 34.4843C47.7706 34.45 47.6599 34.3882 47.5675 34.3038C46.4578 33.8703 45.5389 33.5374 44.2906 33.5305C43.2676 33.5305 41.0865 33.4612 41.0241 33.4473C40.4266 33.3809 39.8249 33.3611 39.2244 33.3883C39.155 33.3883 39.0822 33.4057 39.0128 33.4161L38.8811 33.4473C38.725 33.4993 38.562 33.534 38.3991 33.5721C38.2803 33.6155 38.1645 33.6665 38.0523 33.7247C37.9241 33.8009 37.7784 33.8427 37.6293 33.8461C37.4108 33.8461 37.4801 33.5721 37.5391 33.4542C37.598 33.3363 37.8859 33.1837 38.035 33.1075C38.1841 33.0312 38.3366 32.9445 38.4858 32.8578L38.0939 32.7746C34.6263 32.5388 31.1413 32.7746 27.6702 32.6116C26.6958 32.5665 25.6971 32.4486 24.7193 32.4798C24.3725 32.4798 24.0257 32.4798 23.679 32.4798C22.9438 32.4417 22.7427 31.3147 23.3079 30.8674Z" fill="#DAAFB1"/>
<g style="mix-blend-mode:multiply">
<path d="M41.5513 32.095C42.2383 31.6814 42.9843 31.375 43.7637 31.1865C44.5213 30.9563 45.314 30.8636 46.1043 30.9125C46.1016 30.9363 46.0923 30.9589 46.0777 30.9778C46.063 30.9968 46.0435 31.0114 46.0211 31.02C45.8131 31.0859 45.6085 30.9819 45.4074 31.02H45.3796H45.3103C44.8525 31.1136 44.3879 31.1761 43.9232 31.294C43.2249 31.4518 42.5483 31.694 41.9085 32.0152C41.912 32.0324 41.912 32.0501 41.9085 32.0672C41.7902 32.0847 41.6709 32.094 41.5513 32.095Z" fill="#DAAFB1"/>
</g>
<g style="mix-blend-mode:multiply">
<path d="M45.8026 30.6697C45.4138 30.6631 45.0251 30.6898 44.6409 30.7495C45.0119 30.6096 45.4159 30.5818 45.8026 30.6697Z" fill="#DAAFB1"/>
</g>
<g style="mix-blend-mode:multiply">
<path d="M47.9075 32.9654C47.8035 32.9307 47.696 32.8925 47.5885 32.8613C45.8546 32.5423 44.2006 32.6706 42.4425 32.8821C43.3926 32.7642 44.3462 32.5805 45.2755 32.5354C46.2049 32.4903 47.9352 32.3724 48.7432 33.1214C48.7125 33.1359 48.6797 33.1452 48.6461 33.1491C48.508 33.1536 48.3707 33.1275 48.2438 33.0729C48.1285 33.048 48.0159 33.012 47.9075 32.9654Z" fill="#DAAFB1"/>
</g>
<g style="mix-blend-mode:multiply">
<path d="M23.3079 30.8674C24.6118 29.8271 26.141 29.5185 27.743 29.2931C27.743 29.3243 27.7812 29.3555 27.8124 29.3451C27.8852 29.3 28.1591 29.6017 28.2008 29.6502C28.2916 29.7191 28.3652 29.8081 28.4157 29.9103C28.4608 30.0698 28.2874 30.0941 28.1834 30.1288C28.1453 30.1288 28.1418 30.1704 28.1557 30.2016C27.6461 30.2972 27.1501 30.4544 26.6785 30.6697C25.867 30.6142 24.8788 30.6316 24.8094 31.3632C24.7643 31.8244 25.5029 31.8452 25.8081 31.9007C26.6785 32.0602 27.5419 32.192 28.4331 32.2787C32.2752 32.6532 36.1451 32.348 39.9976 32.4694L39.8312 32.7017C39.7827 32.7607 39.7861 32.8751 39.8797 32.8925C40.5269 32.9919 41.1842 33.0083 41.8355 32.941L42.3244 33.0936C42.8168 33.1213 43.3127 33.1317 43.8086 33.1317C44.4708 33.1196 45.1332 33.1474 45.7921 33.215C46.293 33.2585 46.7849 33.3753 47.2519 33.5617C47.6046 33.6172 47.9309 33.7822 48.1847 34.0333C48.2649 34.134 48.3186 34.2533 48.3408 34.3801C48.3475 34.4095 48.3431 34.4403 48.3283 34.4666C48.3136 34.4928 48.2896 34.5127 48.261 34.5223C48.138 34.5453 48.0113 34.5394 47.891 34.5051C47.7706 34.4708 47.6599 34.409 47.5675 34.3246C46.4578 33.8911 45.5389 33.5582 44.2906 33.5513C43.2676 33.5513 41.0865 33.482 41.0241 33.4681C40.4266 33.4017 39.8249 33.3819 39.2244 33.4091C39.155 33.4091 39.0822 33.4265 39.0128 33.4369L38.8811 33.4681C38.725 33.5201 38.562 33.5548 38.3991 33.5929C38.2803 33.6363 38.1645 33.6873 38.0523 33.7455C37.9241 33.8217 37.7784 33.8635 37.6293 33.8669C37.4108 33.8669 37.4801 33.5929 37.5391 33.475C37.598 33.3571 37.8859 33.2045 38.035 33.1283C38.1841 33.052 38.3366 32.9653 38.4858 32.8786L38.0939 32.7954C34.6263 32.5596 31.1413 32.7954 27.6702 32.6324C26.6958 32.5873 25.6971 32.4694 24.7193 32.5006C24.3725 32.5006 24.0257 32.5006 23.679 32.5006C22.9438 32.4417 22.7427 31.3147 23.3079 30.8674Z" fill="#DAAFB1"/>
</g>
<path d="M24.6047 30.6489C24.6048 30.6833 24.6137 30.717 24.6308 30.7468C24.6478 30.7766 24.6723 30.8014 24.7018 30.8189C25.0243 31.0581 25.4994 30.961 25.8739 30.9264C26.4946 30.8639 27.1188 30.8639 27.7429 30.8397C30.9782 31.1483 34.8655 30.8882 37.865 29.6433C37.8892 29.6433 37.865 29.6052 37.865 29.5844V29.5532C37.865 29.5289 37.806 29.4873 37.806 29.5254C37.806 29.1787 35.7012 28.7591 35.4411 28.6932C34.7476 28.5163 34.002 28.4123 33.2842 28.2875C31.9665 28.0621 30.7667 27.8852 29.4698 28.1037C28.6982 28.1321 27.9291 28.2097 27.1673 28.336C26.6992 28.4089 25.4092 28.4505 25.1283 28.9429C25.0867 29.0192 25.2081 29.1683 25.2913 29.144C25.7774 28.9791 26.2906 28.9084 26.8032 28.9359H26.9419C26.7787 28.921 26.6143 28.928 26.453 28.9567C25.9593 29.0802 25.4942 29.298 25.0833 29.5983C25.0312 29.6468 25.1145 29.7578 25.17 29.7543C25.6138 29.7543 26.0403 29.6399 26.4807 29.5913H26.4252C25.9363 29.7578 24.688 30.004 24.6047 30.6489Z" fill="#8C5E28"/>
<path d="M25.8775 30.056C26.4337 29.8584 26.9997 29.6894 27.5732 29.5498C27.6634 29.5255 27.5732 29.366 27.4935 29.3729C26.9212 29.381 26.35 29.4273 25.7839 29.5116C24.806 29.7093 25.8567 29.3729 26.1931 29.2515C26.5473 29.126 26.9116 29.0309 27.2819 28.9672C27.3617 28.9672 27.2819 28.8077 27.2091 28.8077C26.6994 28.8077 26.2174 28.832 25.725 28.8701C26.2971 28.6308 27.1432 28.617 27.6183 28.5233C28.0934 28.4297 28.61 28.35 29.1128 28.2737C29.1406 28.3049 29.1753 28.3326 29.2065 28.3292C32.1115 28.1064 35.03 28.5267 37.7542 29.5602C34.7397 30.3158 31.645 30.7047 28.5372 30.7184C28.5164 30.6837 28.4817 30.649 28.4575 30.649C27.3617 30.5692 26.2659 30.6941 25.1736 30.7114C24.3483 30.7253 26.0613 29.9867 25.8775 30.056Z" fill="#DCCEB4"/>
<path d="M10.8694 22.0562L11.6184 22.3613C11.3618 22.3995 11.1468 22.4966 11.2404 22.7081C11.5074 23.367 12.3154 23.575 12.891 23.894C14.0132 24.5542 15.2114 25.0758 16.4592 25.4475C17.8259 25.761 19.1735 26.1524 20.4955 26.6196C23.147 27.6394 25.8738 28.4509 28.6514 29.0469C30.1436 29.4064 31.6651 29.6316 33.1975 29.7197C34.5185 29.9895 35.8589 30.1542 37.206 30.2121C38.7422 30.2883 40.4795 30.4444 41.9983 30.1427C44.2627 29.6919 46.853 28.988 48.4134 27.2507C48.3662 27.3676 48.3589 27.4968 48.3926 27.6183C48.4134 27.6911 48.5279 27.8125 48.6111 27.7535C49.1312 27.3524 49.5671 26.8528 49.8941 26.2832C49.8941 26.2832 49.8941 26.304 49.8941 26.3144C49.8664 26.4219 50.0536 26.6439 50.1681 26.5537C51.1563 25.777 51.5898 24.3795 51.8499 23.1936C51.9816 22.5798 52.155 21.9799 52.2625 21.3765C52.314 21.1312 52.343 20.8816 52.3492 20.631C52.3509 20.6114 52.3509 20.5917 52.3492 20.572C52.3492 20.4091 52.3492 20.253 52.3769 20.1212C52.5147 19.2762 52.42 18.4095 52.103 17.6141C51.3647 16.0592 50.2386 14.7206 48.833 13.7269C47.2023 12.5607 45.3657 11.7136 43.42 11.2302C42.0921 10.8829 40.701 10.8532 39.3594 11.1435C38.8393 10.9875 38.3712 10.8627 38.2151 10.8245C37.1338 10.5587 36.0295 10.3973 34.9174 10.3425C32.4553 10.3008 29.9969 10.551 27.5938 11.0881C25.1664 11.6186 22.7772 12.3329 20.3811 12.9779C18.4045 13.5085 16.324 13.9939 14.5312 15.0134C14.4618 15.0516 14.5035 15.1729 14.5312 15.218C14.6018 15.3488 14.7057 15.4588 14.8323 15.5367C14.9589 15.6146 15.1038 15.6578 15.2525 15.6619C15.6582 15.7091 16.0594 15.7891 16.4523 15.9011C16.3114 15.9053 16.1712 15.9204 16.0327 15.9462C15.9078 15.9705 16.0153 16.1647 16.0674 16.2063C16.636 16.6571 17.4544 16.6432 18.1653 16.8998C17.4992 16.9136 16.8402 17.0403 16.2165 17.2743C15.5229 17.5656 14.9612 18.117 14.3197 18.5019C12.8702 19.3653 11.5456 20.2773 10.7064 21.7753C10.6474 21.8793 10.7792 22.0215 10.8694 22.0562Z" fill="#DCCEB4"/>
<path d="M39.8834 30.4894C39.1898 30.4894 38.5137 30.4512 37.8513 30.4131L37.2029 30.3784C35.8448 30.315 34.4939 30.1434 33.1631 29.8652C31.6294 29.776 30.1069 29.5497 28.6136 29.189C25.8273 28.5961 23.0921 27.7845 20.4334 26.7617C19.4256 26.3918 18.3961 26.0838 17.3507 25.8393L16.4144 25.5966C15.1569 25.2288 13.9475 24.7132 12.8116 24.0604C12.6798 23.9876 12.5341 23.9217 12.3885 23.8558C11.8822 23.62 11.3135 23.3599 11.0847 22.7912C11.0561 22.7379 11.0412 22.6784 11.0412 22.6179C11.0412 22.5574 11.0561 22.4978 11.0847 22.4445C11.1041 22.4078 11.1299 22.3749 11.161 22.3474L10.8142 22.2018C10.6934 22.148 10.5979 22.0499 10.5472 21.9278C10.5335 21.8871 10.528 21.8441 10.531 21.8012C10.5339 21.7584 10.5453 21.7166 10.5645 21.6781C11.4418 20.1038 12.8636 19.1676 14.2402 18.3423C14.483 18.1966 14.7188 18.0233 14.9338 17.8533C15.3063 17.5569 15.7125 17.3055 16.144 17.1043C16.4843 16.9604 16.8423 16.8624 17.2085 16.813C16.759 16.7451 16.3308 16.5755 15.9567 16.3172C15.9021 16.2703 15.8598 16.2106 15.8338 16.1434C15.8078 16.0763 15.7988 16.0037 15.8076 15.9323C15.806 15.9219 15.806 15.9114 15.8076 15.9011C15.6143 15.8591 15.4186 15.829 15.2216 15.8109C15.0471 15.8015 14.8778 15.7482 14.7293 15.6561C14.5808 15.564 14.4579 15.436 14.372 15.2838C14.3224 15.1953 14.3041 15.0927 14.32 14.9925C14.3382 14.9303 14.379 14.8771 14.4344 14.8434C16.0538 13.928 17.902 13.4356 19.6844 12.964L20.3259 12.7941L22.2088 12.2774C23.9427 11.7954 25.7528 11.296 27.5455 10.8903C29.962 10.3477 32.4345 10.0951 34.9108 10.1379C36.0335 10.1943 37.1482 10.358 38.2397 10.6268C38.4062 10.6649 38.8743 10.7932 39.3494 10.9354C39.917 10.7987 40.4993 10.7324 41.0832 10.7377C41.8783 10.7387 42.6703 10.8377 43.4412 11.0325C45.4107 11.5222 47.2689 12.3825 48.9166 13.5673C50.0019 14.3753 51.4583 15.7173 52.2385 17.5239C52.57 18.3447 52.6707 19.2404 52.5298 20.1142C52.5298 20.2287 52.509 20.3604 52.5056 20.4991V20.617C52.4971 20.8771 52.4658 21.1358 52.4119 21.3903C52.3495 21.7579 52.2559 22.1359 52.1657 22.5034C52.1068 22.7358 52.0513 22.9681 51.9993 23.197C51.7635 24.2789 51.3266 25.815 50.2655 26.6646C50.2052 26.707 50.1316 26.7261 50.0583 26.7185C49.985 26.7108 49.9169 26.6769 49.8667 26.623C49.5557 27.1019 49.1652 27.524 48.712 27.8713C48.668 27.9012 48.616 27.917 48.5629 27.9164C48.4894 27.9101 48.4194 27.8824 48.3615 27.8368C48.3036 27.7912 48.2603 27.7297 48.2369 27.6598C46.6522 29.1925 44.2283 29.8479 42.0333 30.2883C41.3249 30.4248 40.6048 30.4921 39.8834 30.4894ZM10.8523 21.8515C10.8697 21.8515 10.9044 21.8897 10.9286 21.9001L11.6811 22.2052L12.229 22.4341L11.643 22.5277C11.421 22.5624 11.3829 22.6179 11.3829 22.6179C11.3799 22.6327 11.3799 22.6481 11.3829 22.6629C11.5597 23.1068 12.0452 23.3287 12.5133 23.5437C12.6694 23.6165 12.822 23.6859 12.9607 23.7622C14.0719 24.4029 15.2558 24.9081 16.4873 25.2671L17.42 25.5099C18.4786 25.7574 19.5209 26.07 20.5409 26.4461C23.1829 27.4659 25.9005 28.2775 28.669 28.8735C30.1486 29.2311 31.6573 29.455 33.177 29.5427C34.5048 29.8153 35.8521 29.9823 37.2064 30.0421L37.8548 30.0767C38.5137 30.1149 39.1968 30.153 39.8695 30.153C40.5671 30.1617 41.2639 30.1025 41.9501 29.9762C44.2353 29.5185 46.7736 28.8249 48.2716 27.1397L48.8472 26.4912L48.5559 27.3061C48.5244 27.3923 48.5244 27.4869 48.5559 27.5731C49.0348 27.1884 49.4381 26.718 49.7453 26.1861L50.4388 25.0209L50.0366 26.3248C50.0429 26.3471 50.0549 26.3674 50.0713 26.3837C51.0283 25.6 51.4341 24.1644 51.656 23.1484C51.708 22.9091 51.767 22.6699 51.8259 22.4341C51.9126 22.0873 52.0062 21.6989 52.0686 21.3348C52.1187 21.0974 52.1477 20.8561 52.1553 20.6136V20.4991C52.1553 20.35 52.1553 20.2113 52.1796 20.0934C52.3167 19.2755 52.2255 18.4355 51.9161 17.6661C51.1636 15.9323 49.7523 14.6284 48.7016 13.8517C47.0898 12.6919 45.2714 11.8504 43.3441 11.3723C42.5999 11.1875 41.8361 11.0932 41.0693 11.0915C40.4957 11.085 39.9236 11.1514 39.3667 11.2891H39.3216H39.2765C38.7425 11.1261 38.2848 11.0048 38.1426 10.9736C37.0727 10.7096 35.9801 10.5482 34.8796 10.4915C32.4312 10.4503 29.9867 10.7006 27.5975 11.2371C25.8152 11.6255 24.019 12.1248 22.2817 12.6033C21.654 12.7802 21.0229 12.9501 20.3953 13.12L19.7538 13.2934C18.0199 13.7546 16.2098 14.2331 14.6425 15.107C14.7024 15.2108 14.7882 15.2973 14.8915 15.3581C14.9948 15.4188 15.1121 15.4518 15.232 15.4537C15.6474 15.4991 16.0581 15.5803 16.4595 15.6965L17.5657 15.9947L16.4214 16.0294L16.1578 16.0467C16.521 16.2784 16.9305 16.4275 17.3576 16.4836C17.6417 16.5367 17.9211 16.6121 18.1933 16.709L18.866 16.9656L18.1482 17.035L17.8327 17.0627C17.2874 17.0867 16.7502 17.204 16.2445 17.4095C15.8378 17.5991 15.4558 17.8378 15.1071 18.1203C14.8713 18.2937 14.6286 18.4671 14.372 18.6232C13.0335 19.4242 11.6568 20.3327 10.8177 21.8342L10.8523 21.8515Z" fill="#B9833F"/>
<g style="mix-blend-mode:multiply">
<path d="M10.7064 21.7718C11.3999 20.5027 12.4784 19.6566 13.6643 18.9006C14.2566 18.9289 14.8349 19.0901 15.3565 19.3722C14.1709 19.5378 13.0398 19.9758 12.0518 20.6518C11.9513 20.7246 12.0068 20.9049 12.1385 20.8598C12.9379 20.578 13.7858 20.4601 14.6318 20.5131C13.7041 20.9148 12.941 21.6205 12.468 22.5139C12.4571 22.5335 12.4522 22.5557 12.4539 22.578C12.4556 22.6003 12.4637 22.6216 12.4774 22.6393C12.491 22.657 12.5095 22.6704 12.5307 22.6776C12.5518 22.6849 12.5746 22.6859 12.5963 22.6804C13.3389 22.4662 14.0989 22.3177 14.8676 22.2365C14.4108 22.4691 13.9776 22.7455 13.5741 23.0618C13.5601 23.0761 13.5501 23.0938 13.545 23.1131C13.54 23.1325 13.5401 23.1528 13.5454 23.1721C13.5506 23.1914 13.5609 23.209 13.575 23.2231C13.5892 23.2372 13.6068 23.2473 13.6261 23.2525C14.9902 23.7265 16.3793 24.1247 17.7873 24.4454C18.4884 24.6243 19.2009 24.7553 19.9199 24.8372C21.7142 25.8526 23.6234 26.65 25.6068 27.2126C28.6209 28.1374 31.7481 28.6427 34.9001 28.714C37.9204 28.7765 41.0967 28.5407 43.9159 27.3617C45.1461 26.8969 46.2734 26.196 47.2344 25.2984C47.976 24.5096 48.6478 23.658 49.2422 22.7532C49.3277 23.6671 49.2916 24.5882 49.1347 25.4926C49.1347 25.6105 49.2977 25.6452 49.3497 25.5516C49.8733 24.6014 49.9635 23.5057 50.3518 22.5035C50.7506 23.3878 50.6639 24.5459 50.5634 25.4753C50.5322 25.7561 50.4836 26.0336 50.4316 26.311C50.3502 26.3918 50.2646 26.4682 50.175 26.5398C50.0606 26.63 49.8733 26.4081 49.9011 26.3006C49.9011 26.3006 49.9011 26.2798 49.9011 26.2694C49.5741 26.839 49.1381 27.3386 48.618 27.7396C48.5348 27.7986 48.4204 27.6772 48.3996 27.6044C48.3658 27.4829 48.3731 27.3537 48.4204 27.2368C46.8773 28.9706 44.2592 29.6642 42.0052 30.1288C40.4864 30.4305 38.7491 30.2745 37.213 30.1982C35.863 30.1338 34.5203 29.9622 33.1975 29.685C31.6651 29.5969 30.1436 29.3717 28.6514 29.0123C25.8738 28.4163 23.147 27.6047 20.4955 26.5849C19.1728 26.1294 17.8252 25.7497 16.4592 25.4475C15.213 25.0868 14.0149 24.5768 12.891 23.9287C12.3154 23.6097 11.5039 23.4016 11.2404 22.7428C11.1468 22.5139 11.3618 22.4168 11.6184 22.396L10.8694 22.0909C10.7792 22.0215 10.6474 21.8793 10.7064 21.7718Z" fill="#DCCEB4"/>
</g>
<path d="M52.9738 8.18565C53.6153 8.39371 54.6347 8.46652 54.9434 7.68631C54.9722 7.61838 54.9864 7.54511 54.985 7.47132C55.0509 7.59615 55.1202 7.71752 55.1965 7.83888C55.2173 7.87356 55.2936 7.89437 55.2693 7.83888C55.2012 7.68604 55.1212 7.53879 55.0301 7.3985C54.9954 7.32568 54.9642 7.25632 54.933 7.1835C54.8756 7.02411 54.7885 6.87703 54.6764 6.75004C54.3931 6.42403 54.0566 6.14849 53.6811 5.93516C53.548 5.86687 53.4114 5.80553 53.272 5.75137C52.8281 5.47049 52.4085 5.30404 51.9716 5.48436H51.8433C51.3752 5.48436 50.6643 5.48436 50.3002 5.83112C49.2877 6.76738 52.464 8.0192 52.9738 8.18565ZM53.1298 5.69935C52.7792 5.57969 52.4142 5.50739 52.0444 5.48436C52.23 5.43817 52.4235 5.43349 52.6111 5.47065C52.7987 5.50782 52.9758 5.5859 53.1298 5.69935ZM54.7388 6.99971C54.429 6.64373 54.08 6.32384 53.6985 6.04611C53.7924 6.09524 53.8828 6.15086 53.969 6.21256C54.2723 6.42477 54.5334 6.69172 54.7388 6.99971ZM50.7302 5.74443C51.0674 5.6406 51.4177 5.58571 51.7705 5.58145C51.689 5.63185 51.6134 5.69117 51.5451 5.7583C51.5451 5.7583 51.5451 5.78258 51.5451 5.7583C51.6245 5.68287 51.713 5.61764 51.8086 5.56412C52.072 5.55851 52.3349 5.59121 52.5888 5.66121C52.8935 5.73708 53.1934 5.83087 53.487 5.94209C53.7324 6.10461 53.9643 6.28668 54.1805 6.48651C54.3573 6.66336 54.4579 6.86448 54.6313 7.03439L54.666 7.07254C54.4331 6.98192 54.1839 6.94059 53.9343 6.95117C53.8615 6.95117 53.9343 7.06907 53.9759 7.06907C54.1152 7.07186 54.2542 7.08345 54.392 7.10375C54.8185 7.36729 54.8948 7.61349 54.6174 7.84236C54.4103 7.99616 54.1745 8.10698 53.9239 8.16831C53.3205 8.32782 52.627 7.8909 52.0756 7.69671C51.5243 7.50252 49.3431 6.18482 50.7302 5.74443Z" fill="white"/>
<path d="M37.3797 10.7309C37.3714 10.7663 37.3755 10.8035 37.3912 10.8363C37.407 10.8691 37.4335 10.8955 37.4664 10.9112C37.9171 11.14 38.472 11.0638 38.9574 11.2579C39.2036 11.355 39.4464 11.4591 39.6926 11.5666C42.2656 13.1166 44.0999 15.4989 46.4891 17.3055C47.4616 18.0806 48.5191 18.7425 49.6412 19.2786C49.9082 19.3999 50.1856 19.5144 50.4526 19.6253C51.4929 20.9812 51.9437 22.2434 51.7426 23.9772C51.7426 24.0847 51.8744 24.265 51.9888 24.1957C52.7933 23.7172 53.414 22.3995 53.6741 21.5499C53.8088 21.1463 53.9097 20.7322 53.9758 20.3119L53.9966 20.409C54.0422 20.8363 54.0619 21.2659 54.0555 21.6955C54.0555 21.7718 54.2185 22.0007 54.2844 21.8654C54.6074 21.1162 54.7636 20.3057 54.7421 19.4901C54.7421 19.4034 54.5826 18.3805 54.7005 19.0532C54.7664 19.4242 54.7629 19.8022 54.7976 20.1802C54.7976 20.2426 54.9848 20.4472 55.0264 20.3189C55.3432 19.385 55.4463 18.392 55.3281 17.413C55.2893 17.1179 55.2207 16.8274 55.1235 16.5461C55.2652 16.9462 55.3708 17.3582 55.4391 17.7771C55.4391 17.8326 55.5986 18.0198 55.6472 17.9019C55.9384 17.2257 55.8968 16.2756 55.7789 15.5543C55.6541 14.7637 55.5397 14.0043 55.4946 13.231C55.4799 12.2861 55.731 11.3561 56.2193 10.5471C56.7603 9.69058 57.4226 8.9277 57.9254 8.04345C58.0707 7.78921 58.2004 7.52634 58.3138 7.2563C58.4109 6.64867 58.3389 6.02605 58.1057 5.4566C57.7851 4.8333 57.4054 4.24225 56.9718 3.69158C56.4308 3.11419 55.8192 2.60737 55.1513 2.18315C53.5933 1.21248 51.8459 0.585873 50.0261 0.345301C48.2368 0.0817611 46.4545 0.0332193 44.8247 0.913998C43.0007 1.89534 41.6726 3.46618 40.0393 4.70759C39.9873 4.7492 40.0671 4.84282 40.1087 4.8567C40.4103 4.94515 40.728 4.96412 41.038 4.91218C40.535 5.42738 39.9398 5.84375 39.2834 6.13972C39.1828 6.18133 39.3077 6.31657 39.3666 6.32697C39.6018 6.34322 39.8377 6.31137 40.0601 6.23335L40.289 6.19174C39.9845 6.37772 39.6905 6.58031 39.4082 6.79857C39.3423 6.85059 39.4498 6.96849 39.5053 6.97195C39.6598 6.9762 39.8134 6.94785 39.9561 6.88873C39.1967 7.27364 38.4512 7.69669 37.723 8.13361C37.6432 8.18216 37.775 8.30699 37.827 8.31393C38.2296 8.34952 38.6353 8.3238 39.0303 8.23764L39.2903 8.18563C38.664 8.46005 38.061 8.78475 37.4872 9.15656C37.4109 9.20857 37.5357 9.35768 37.5981 9.35422C38.1564 9.35422 38.7147 9.25712 39.2695 9.25365C38.628 9.46518 37.8825 9.53453 37.3693 9.94718C37.293 10.0096 37.4143 10.1552 37.4872 10.1552C38.0316 10.1552 38.6003 10.0651 39.1378 10.1171C40.0636 10.2107 38.9366 10.2038 38.6558 10.2593C38.2778 10.3356 37.553 10.3217 37.3797 10.7309Z" fill="#DCCEB4"/>
<path d="M51.9333 24.4072C51.8853 24.4049 51.8384 24.3925 51.7954 24.371C51.7524 24.3496 51.7143 24.3194 51.6837 24.2824C51.6468 24.2423 51.6183 24.1953 51.5999 24.1441C51.5814 24.0929 51.5733 24.0385 51.5762 23.9842C51.7599 22.3787 51.4028 21.1581 50.3451 19.7883L49.8631 19.5768L49.5719 19.4485C48.4384 18.9072 47.3704 18.2382 46.3886 17.4546C45.4028 16.6834 44.4626 15.8555 43.5729 14.9753C42.3488 13.8171 41.0866 12.6173 39.6059 11.7226C39.384 11.629 39.1412 11.525 38.9124 11.4279C38.696 11.3531 38.4712 11.3053 38.2431 11.2857C37.9547 11.2646 37.672 11.1942 37.4074 11.0776C37.3386 11.0398 37.2847 10.9798 37.2545 10.9074C37.2242 10.8349 37.2195 10.7544 37.241 10.6789C37.3044 10.529 37.4186 10.4063 37.5635 10.3321H37.4941C37.4274 10.3255 37.3641 10.2997 37.3118 10.2578C37.2595 10.216 37.2205 10.1599 37.1993 10.0963C37.1803 10.0492 37.1768 9.99725 37.1893 9.948C37.2017 9.89875 37.2296 9.85475 37.2687 9.82236C37.4287 9.69567 37.6062 9.59288 37.7958 9.51721H37.612C37.5435 9.51043 37.4785 9.48339 37.4254 9.43955C37.3723 9.3957 37.3334 9.33702 37.3138 9.27101C37.2976 9.22416 37.2974 9.17329 37.313 9.12628C37.3287 9.07926 37.3594 9.03873 37.4005 9.01094C37.6605 8.83756 37.9484 8.66417 38.2674 8.49425C38.1146 8.50101 37.9615 8.49521 37.8097 8.47692C37.7459 8.46035 37.6877 8.42726 37.6408 8.38099C37.5939 8.33472 37.56 8.2769 37.5426 8.21338C37.5315 8.16898 37.5353 8.12216 37.5535 8.08015C37.5717 8.03815 37.6032 8.00332 37.6432 7.98105C38.2639 7.61001 38.8083 7.28753 39.3077 7.03092C39.276 6.99541 39.2513 6.95423 39.2349 6.90955C39.2206 6.86512 39.2203 6.8174 39.2339 6.77278C39.2475 6.72815 39.2745 6.68876 39.3111 6.65988C39.3736 6.60902 39.4429 6.55701 39.5192 6.50384C39.4564 6.50291 39.3938 6.49712 39.3319 6.4865C39.2658 6.47038 39.2059 6.43514 39.1596 6.3852C39.1134 6.33525 39.0829 6.2728 39.0719 6.20562C39.0666 6.15707 39.0777 6.10815 39.1035 6.06667C39.1292 6.02518 39.1682 5.99353 39.214 5.97676C39.7112 5.76493 40.1677 5.46805 40.563 5.09945C40.3903 5.09032 40.2192 5.06123 40.0532 5.01276C40.0034 4.99253 39.9591 4.96101 39.9236 4.92069C39.888 4.88037 39.8624 4.83235 39.8486 4.78042C39.8413 4.74091 39.8453 4.70015 39.86 4.66277C39.8747 4.62538 39.8996 4.59286 39.9318 4.5689C40.5248 4.11464 41.09 3.61183 41.6345 3.12289C42.5764 2.21259 43.6242 1.4186 44.7553 0.757965C45.7666 0.234187 46.8937 -0.0258251 48.0322 0.00202334C48.714 0.00740004 49.3945 0.0641958 50.0677 0.171934C51.9152 0.411744 53.6893 1.04688 55.2692 2.03406C55.9491 2.46821 56.5723 2.9854 57.1244 3.57369C57.5775 4.1419 57.9724 4.75411 58.3034 5.40113C58.5474 5.99807 58.6242 6.65024 58.5253 7.28752V7.32913C58.4085 7.60499 58.2753 7.87363 58.1265 8.13363C57.8303 8.6335 57.5061 9.11626 57.1556 9.57962C56.9059 9.92639 56.6493 10.2732 56.417 10.6442C55.9479 11.427 55.7077 12.3256 55.7234 13.238C55.7771 14.0075 55.8709 14.7738 56.0043 15.5336C56.0979 16.1057 56.202 17.1841 55.8622 17.9609C55.842 18.0115 55.8042 18.053 55.7557 18.0779C55.7073 18.1027 55.6515 18.1092 55.5986 18.0961C55.6138 18.8675 55.4966 19.6358 55.2518 20.3674C55.2404 20.4009 55.2214 20.4313 55.1963 20.4562C55.1711 20.4811 55.1405 20.4998 55.1069 20.5109C55.0733 20.522 55.0376 20.5252 55.0026 20.5201C54.9676 20.5151 54.9342 20.502 54.9051 20.4819C54.8438 20.9836 54.7046 21.4726 54.4924 21.9313C54.4755 21.9719 54.4472 22.0066 54.4108 22.0312C54.3745 22.0559 54.3318 22.0694 54.2878 22.07C54.0937 22.07 53.9411 21.8169 53.9411 21.6886V21.432C53.9411 21.4875 53.9064 21.5395 53.8925 21.595C53.6567 22.3613 53.0187 23.8073 52.131 24.3344C52.0765 24.3825 52.006 24.4085 51.9333 24.4072ZM37.553 10.7621C37.7802 10.8622 38.0231 10.9221 38.2709 10.9389C38.5266 10.9599 38.7785 11.0147 39.0199 11.1019C39.2695 11.199 39.5123 11.3065 39.7585 11.4105C41.2912 12.3329 42.5672 13.5466 43.8052 14.7187C44.6835 15.588 45.6096 16.4076 46.5793 17.1737C47.5424 17.9404 48.5894 18.5954 49.7002 19.126L49.988 19.2509C50.1648 19.3306 50.3347 19.4069 50.5151 19.4901L50.5497 19.5075L50.574 19.5387C51.7149 20.9985 52.0963 22.292 51.9021 24.0119C51.9074 24.0244 51.9144 24.0361 51.9229 24.0466C52.6164 23.6166 53.2198 22.4376 53.5042 21.5152C53.6359 21.1207 53.7345 20.7159 53.7989 20.305L53.9376 19.2647L54.1491 20.3952C54.1966 20.7979 54.2174 21.2034 54.2116 21.6088C54.4535 20.9424 54.5711 20.2372 54.5583 19.5283C54.5583 19.4832 54.5271 19.2959 54.5063 19.1364C54.4612 18.8174 54.4612 18.8174 54.5063 18.7584L54.5583 18.6995H54.6346C54.7768 18.6995 54.7907 18.7689 54.8427 19.0671C54.8809 19.3058 54.9041 19.5467 54.912 19.7883C54.912 19.8716 54.912 19.9548 54.9294 20.038C55.1679 19.2048 55.2374 18.3324 55.1339 17.472C55.0975 17.191 55.0324 16.9144 54.9398 16.6467L55.2588 16.5426C55.3845 16.9014 55.4841 17.2688 55.557 17.6419C55.7044 16.9807 55.7162 16.2965 55.5917 15.6306C55.4534 14.8562 55.3573 14.0749 55.3039 13.29C55.2898 12.3135 55.5492 11.3526 56.0529 10.5159C56.2887 10.1414 56.5522 9.78422 56.8053 9.43399C57.149 8.98102 57.4662 8.50864 57.7555 8.01919C57.8937 7.77696 58.0175 7.52687 58.1265 7.27018C58.2126 6.69942 58.1432 6.11601 57.9254 5.58144C57.611 4.97059 57.2407 4.39017 56.8192 3.84763C56.2839 3.27738 55.6793 2.77646 55.0195 2.35655C53.4818 1.39798 51.7567 0.779604 49.9602 0.542973C49.303 0.43813 48.6388 0.3825 47.9733 0.376534C46.8891 0.349034 45.8156 0.595936 44.8524 1.09433C43.7507 1.74198 42.7309 2.51969 41.8148 3.41071C41.3085 3.86497 40.7745 4.3331 40.2335 4.76309C40.4743 4.80686 40.721 4.80686 40.9617 4.76309L41.5166 4.6764L41.1004 5.05437C40.6545 5.49922 40.1478 5.87865 39.5955 6.18135L39.7585 6.1432C39.8278 6.1432 39.9041 6.10506 39.9943 6.09119L40.1711 6.05998L41.1351 5.86926L40.3376 6.3582C40.0914 6.50731 39.8625 6.66335 39.644 6.80899C39.7099 6.80899 39.7758 6.77084 39.8486 6.75003L39.9769 7.05866C39.3701 7.36381 38.7216 7.72444 37.9484 8.18217C38.2824 8.19474 38.6167 8.16562 38.9436 8.09548L39.0996 8.06427L40.6254 7.76606L39.3042 8.36249C38.7525 8.60243 38.2193 8.88292 37.7091 9.20165C37.8998 9.20165 38.094 9.17391 38.2847 9.15657C38.5899 9.1323 38.902 9.10803 39.214 9.10456H40.3272L39.3215 9.45132C39.1274 9.51721 38.9262 9.56576 38.7251 9.61777C38.3277 9.69237 37.9456 9.83302 37.5947 10.0339C37.775 10.0339 37.9588 10.0339 38.1425 10.0061C38.4783 9.97845 38.8158 9.97845 39.1516 10.0061C39.4984 10.0408 39.6648 10.0547 39.6614 10.235C39.6579 10.4153 39.5435 10.4153 39.1169 10.4431C38.954 10.4431 38.7702 10.4639 38.6835 10.4812C38.5968 10.4985 38.5101 10.509 38.4061 10.5194C38.094 10.509 37.6779 10.5575 37.553 10.7621Z" fill="#B9833F"/>
<g style="mix-blend-mode:screen">
<path d="M54.1976 19.3306C54.0658 18.0753 53.7572 16.8131 53.7954 15.5474C53.836 14.1853 54.182 12.8498 54.8079 11.6394C54.8188 11.6198 54.8236 11.5975 54.822 11.5753C54.8203 11.553 54.8121 11.5317 54.7985 11.5139C54.7849 11.4962 54.7663 11.4829 54.7452 11.4756C54.7241 11.4684 54.7013 11.4674 54.6796 11.4729C54.1631 11.6415 53.6986 11.94 53.3307 12.3398C53.6144 11.6369 54.0259 10.9926 54.5444 10.4396C54.5647 10.4201 54.5771 10.3937 54.5792 10.3656C54.5813 10.3375 54.573 10.3096 54.5558 10.2873C54.5386 10.2649 54.5138 10.2497 54.4861 10.2446C54.4584 10.2394 54.4297 10.2446 54.4057 10.2593C53.7736 10.5485 53.1767 10.9091 52.6268 11.3342C53.4833 8.90688 55.7684 6.88178 58.3345 6.54889C58.3473 6.78987 58.3356 7.03151 58.2998 7.27015C58.1865 7.54019 58.0568 7.80307 57.9114 8.05731C57.4086 8.94156 56.7463 9.70444 56.2054 10.5609C55.717 11.37 55.4659 12.3 55.4806 13.2449C55.5257 14.0182 55.6401 14.7776 55.765 15.5682C55.8829 16.2895 55.9245 17.2396 55.6332 17.9158C55.5847 18.0337 55.4355 17.8464 55.4251 17.791C55.3568 17.372 55.2512 16.9601 55.1096 16.5599C55.2068 16.8413 55.2753 17.1317 55.3142 17.4269C55.4323 18.4058 55.3292 19.3989 55.0125 20.3327C54.9709 20.461 54.7906 20.2564 54.7836 20.194C54.749 19.8161 54.7524 19.4381 54.6865 19.067C54.5686 18.3943 54.7316 19.4138 54.7281 19.504C54.7497 20.3196 54.5935 21.1301 54.2704 21.8793C54.2392 21.9417 54.1907 21.9278 54.1456 21.8793C54.2702 21.0353 54.2877 20.1789 54.1976 19.3306Z" fill="#DFD9D9"/>
</g>
<g style="mix-blend-mode:multiply">
<path d="M38.6454 10.2662C38.9263 10.2107 40.0532 10.2177 39.1274 10.1241C38.5899 10.072 38.0212 10.1691 37.4768 10.1622C37.404 10.1622 37.2826 10.0166 37.3589 9.95414C37.8756 9.53456 38.6176 9.4652 39.2591 9.26061C38.7043 9.26061 38.146 9.34383 37.5878 9.36117C37.5253 9.36117 37.4005 9.21553 37.4768 9.16352C38.0506 8.79171 38.6537 8.467 39.28 8.19258L39.0199 8.2446C38.625 8.33076 38.2193 8.35647 37.8166 8.32088C37.7646 8.32088 37.6328 8.18911 37.7126 8.14056C38.4408 7.70364 39.1863 7.28059 39.9457 6.89568C39.803 6.9548 39.6494 6.98315 39.4949 6.9789C39.4395 6.9789 39.332 6.85754 39.3979 6.80552C39.6801 6.58726 39.9741 6.38468 40.2786 6.19869L40.0498 6.2403C39.8274 6.31832 39.5914 6.35018 39.3562 6.33393C39.2973 6.33393 39.1725 6.18829 39.273 6.14667C39.9294 5.8507 40.5246 5.43433 41.0276 4.91913C40.7177 4.97107 40.3999 4.95211 40.0983 4.86366C40.0567 4.86366 39.9769 4.75615 40.029 4.71454C41.6622 3.47313 42.9903 1.90229 44.8143 0.920949C46.4545 0.0401701 48.2368 0.0887225 50.0157 0.352263C51.8355 0.592835 53.5829 1.21943 55.1409 2.1901C55.812 2.61146 56.4272 3.11596 56.9718 3.6916C57.411 4.24607 57.7954 4.84183 58.1196 5.47049C58.3528 6.03994 58.4248 6.66256 58.3277 7.27018C58.2143 7.54022 58.0846 7.8031 57.9393 8.05734C57.8214 8.2654 57.6931 8.46652 57.5613 8.66418C57.4538 7.18003 57.0585 5.71669 56.1014 4.5481C56.0856 4.53136 56.0652 4.51976 56.0427 4.51484C56.0202 4.50992 55.9967 4.5119 55.9754 4.52051C55.954 4.52913 55.9358 4.54398 55.923 4.56313C55.9102 4.58228 55.9035 4.60483 55.9038 4.62785C56.0068 5.26626 56.0324 5.91478 55.9801 6.55932C55.5432 5.32138 55.2276 3.92392 54.0139 3.23039C53.9064 3.16798 53.8128 3.28588 53.8579 3.38644C53.9163 3.51872 53.9672 3.65416 54.0105 3.79215C53.1089 2.69984 51.8293 1.96471 50.366 2.05833C50.2758 2.05833 50.203 2.18317 50.2828 2.25252C50.583 2.50789 50.8508 2.79902 51.0803 3.11943C50.1614 2.92177 49.3708 3.48354 48.5489 3.90659C48.5287 3.92043 48.5132 3.94026 48.5048 3.9633C48.4963 3.98633 48.4953 4.01143 48.5018 4.0351C48.5082 4.05877 48.522 4.07982 48.541 4.09532C48.56 4.11083 48.5834 4.12 48.6079 4.12158H49.2078C48.9797 4.25096 48.7755 4.41871 48.6044 4.61745C48.5889 4.63344 48.5783 4.65363 48.5741 4.67552C48.5699 4.69742 48.5721 4.72007 48.5806 4.7407C48.5891 4.76133 48.6034 4.77904 48.6218 4.79164C48.6402 4.80425 48.6619 4.81119 48.6842 4.81163C50.0712 4.90873 51.0179 3.07782 52.4257 4.0765C53.0829 4.55356 53.6099 5.18784 53.9584 5.92128C54.3052 6.68069 54.3468 7.343 53.5597 7.80073C52.3945 8.47345 50.6677 8.97973 49.4436 8.19605C48.1571 7.36728 47.363 5.92474 45.8858 5.35258C45.7748 5.3075 45.702 5.46702 45.7748 5.54331C46.3329 6.0639 46.8307 6.64548 47.259 7.27713C46.8433 7.09592 46.4081 6.96326 45.9621 6.88181C45.9378 6.87697 45.9127 6.87989 45.8902 6.89014C45.8676 6.90039 45.8489 6.91747 45.8367 6.93895C45.8244 6.96042 45.8192 6.98521 45.8218 7.00981C45.8244 7.0344 45.8346 7.05756 45.8511 7.076C46.3609 7.56493 46.9504 7.97412 47.4185 8.5012C46.132 8.15444 45.0536 9.23633 44.1728 10.1206C44.1552 10.1385 44.1441 10.1616 44.141 10.1865C44.1379 10.2114 44.143 10.2366 44.1556 10.2582C44.1682 10.2799 44.1876 10.2968 44.2107 10.3064C44.2339 10.316 44.2595 10.3177 44.2837 10.3113C45.0342 10.0698 45.7999 9.87866 46.5759 9.73915C45.8823 10.2038 45.1507 10.6754 44.7657 11.4452C44.7534 11.467 44.7485 11.4923 44.7518 11.5171C44.7552 11.5419 44.7666 11.565 44.7843 11.5827C44.802 11.6004 44.8251 11.6119 44.8499 11.6152C44.8748 11.6186 44.9 11.6137 44.9218 11.6013C45.9894 11.125 47.1571 10.9167 48.3235 10.9944C47.6786 11.5943 47.044 12.3815 47.3491 13.29C47.3542 13.3069 47.363 13.3224 47.3748 13.3354C47.3866 13.3484 47.4012 13.3586 47.4175 13.3653C47.4338 13.3719 47.4514 13.3749 47.469 13.3738C47.4865 13.3728 47.5036 13.3679 47.519 13.3594C48.1562 13.0276 48.835 12.7827 49.5372 12.6312C49.3916 13.5154 49.3257 14.4239 49.7591 15.2457C50.366 16.4005 51.2329 17.3575 51.6317 18.6302C52.0458 20.0231 52.0936 21.4993 51.7704 22.9162C51.6969 21.7082 51.2305 20.5575 50.4423 19.6392C50.1753 19.5144 49.8978 19.4 49.6308 19.2925C48.5087 18.7564 47.4513 18.0944 46.4788 17.3194C44.0896 15.5128 42.2552 13.1305 39.6822 11.5805C39.436 11.473 39.1933 11.3689 38.9471 11.2718C38.4616 11.0776 37.9068 11.1539 37.456 10.9251C37.4231 10.9094 37.3966 10.883 37.3809 10.8502C37.3651 10.8174 37.361 10.7802 37.3693 10.7448C37.5531 10.3217 38.2778 10.3356 38.6454 10.2662Z" fill="#B88659"/>
</g>
<g style="mix-blend-mode:multiply">
<path d="M42.2101 4.47525C42.165 4.56888 42.2656 4.70412 42.3661 4.6313C42.7977 4.28668 43.2959 4.03519 43.8295 3.89269C42.7746 4.4778 41.9704 5.42881 41.5686 6.56624C41.5631 6.5879 41.564 6.6107 41.5713 6.63183C41.5786 6.65296 41.5919 6.67149 41.6096 6.68514C41.6273 6.69879 41.6486 6.70694 41.6709 6.70861C41.6932 6.71028 41.7155 6.7054 41.735 6.69455C42.3658 6.26761 43.0457 5.91832 43.7601 5.65426C42.5638 6.83672 41.6483 8.23417 41.5651 9.97145C41.5655 9.99617 41.5738 10.0201 41.5889 10.0397C41.604 10.0593 41.625 10.0735 41.6488 10.0801C41.6726 10.0867 41.698 10.0855 41.721 10.0765C41.744 10.0676 41.7636 10.0514 41.7766 10.0304C42.2494 9.23907 42.8656 8.54288 43.5937 7.97757C43.0319 8.89649 42.3349 10.0373 42.7164 11.0603C43.1845 12.3121 44.7519 12.3884 45.7852 12.9363C46.9643 13.5179 47.9677 14.4023 48.6928 15.499C49.4178 16.5957 49.8385 17.8654 49.9117 19.178C48.6842 16.612 45.8407 14.9371 43.2955 13.9384C42.9869 13.8171 42.6713 13.7061 42.3523 13.5917C41.5326 12.8321 40.6419 12.1528 39.6926 11.5631C39.4464 11.4556 39.2037 11.3516 38.9575 11.2545C38.472 11.0603 37.9172 11.1366 37.4664 10.9077C37.4335 10.8921 37.407 10.8656 37.3913 10.8328C37.3755 10.8 37.3714 10.7628 37.3797 10.7274C37.5531 10.3182 38.2778 10.3321 38.6454 10.2627C38.9263 10.2073 40.0532 10.2142 39.1274 10.1206C38.5899 10.0685 38.0212 10.1656 37.4768 10.1587C37.404 10.1587 37.2826 10.0131 37.3589 9.95065C37.8756 9.53107 38.6176 9.46171 39.2591 9.25712C38.7043 9.25712 38.146 9.34035 37.5878 9.35769C37.5253 9.35769 37.4005 9.21204 37.4768 9.16003C38.0506 8.78822 38.6537 8.46352 39.28 8.1891L39.0199 8.24111C38.625 8.32727 38.2193 8.35299 37.8166 8.3174C37.7646 8.3174 37.6328 8.18562 37.7126 8.13707C38.4408 7.70015 39.1863 7.2771 39.9457 6.89219C39.803 6.95131 39.6494 6.97967 39.4949 6.97543C39.4395 6.97543 39.332 6.85406 39.3979 6.80204C39.6801 6.58378 39.9741 6.3812 40.2786 6.19521L40.0498 6.23682C39.8274 6.31484 39.5914 6.3467 39.3562 6.33044C39.2973 6.33044 39.1725 6.1848 39.273 6.14318C39.9294 5.84721 40.5246 5.43085 41.0276 4.91565C40.7177 4.96759 40.3999 4.94862 40.0983 4.86017C40.0567 4.86017 39.9769 4.75267 40.029 4.71106C41.6622 3.46965 42.9903 1.89881 44.8143 0.91747C46.3192 0.109512 47.9352 0.0852356 49.5719 0.286358C46.5308 0.379984 43.6769 1.47575 42.2101 4.47525Z" fill="#B88659"/>
</g>
<g style="mix-blend-mode:multiply">
<path d="M49.7314 19.3201L49.6413 19.2785C48.5192 18.7425 47.4617 18.0805 46.4892 17.3055C45.1946 16.2594 43.9539 15.1483 42.7719 13.9765C45.4628 14.9544 48.4935 16.6501 49.7314 19.3201Z" fill="#B88659"/>
</g>
<g style="mix-blend-mode:multiply">
<path d="M49.6379 8.32082C49.6404 8.30805 49.6403 8.29491 49.6377 8.28218C49.635 8.26945 49.6297 8.25739 49.6223 8.24672C49.6149 8.23605 49.6054 8.22697 49.5943 8.22004C49.5833 8.21312 49.571 8.20847 49.5582 8.20639C49.468 8.17865 49.3813 8.14397 49.2947 8.1093C48.6419 7.59546 48.0265 7.03576 47.4533 6.43444C46.8708 5.61607 46.3368 4.72835 45.5184 4.20474C45.4989 4.19389 45.4766 4.189 45.4543 4.19068C45.432 4.19235 45.4107 4.2005 45.393 4.21415C45.3753 4.22779 45.362 4.24633 45.3547 4.26746C45.3474 4.28859 45.3464 4.31138 45.352 4.33304C45.3957 4.51145 45.449 4.6874 45.5115 4.86013C44.455 4.08759 43.3179 3.43184 42.1201 2.90438C42.3178 2.731 42.512 2.55762 42.7096 2.39117C44.062 2.60617 45.4074 2.82809 46.6072 3.54242C46.7009 3.5979 46.8326 3.48348 46.7633 3.38638C46.4862 3.0238 46.1633 2.6986 45.8027 2.41891C46.5334 2.61283 47.1705 3.06178 47.599 3.68459C47.8417 4.09031 48.1018 4.70755 48.5907 4.874C49.0797 5.04045 49.4923 4.81504 49.8564 4.49602C50.6852 4.05216 51.4377 3.38985 52.4121 4.08338C53.0692 4.56044 53.5962 5.19472 53.9447 5.92815C54.2915 6.68757 54.3331 7.34989 53.546 7.80762C52.4641 8.45606 50.8447 8.93112 49.6379 8.32082Z" fill="#B88659"/>
</g>
<path d="M55.4597 10.7136C56.3336 9.75995 53.1988 10.4153 53.4104 10.02C54.631 7.84582 58.1021 6.73618 58.0431 6.31313C57.8774 5.62878 57.6677 4.95583 57.4155 4.29843C57.7241 4.33658 58.9932 5.09599 59.2637 5.25203C61.9165 6.81593 63.7716 8.13363 63.6676 8.19952C60.3213 10.5367 55.3626 10.9355 55.4597 10.7136Z" fill="#C89E49"/>
<path d="M55.7441 10.9355C55.4806 10.9355 55.3766 10.9043 55.3211 10.8176L55.2725 10.7413L55.3384 10.5991C55.4459 10.4778 55.4459 10.4292 55.4459 10.4292C55.4459 10.4292 55.3176 10.3287 54.6449 10.3287H53.9028C53.5318 10.3287 53.3411 10.3044 53.2613 10.1692C53.2408 10.1351 53.23 10.0962 53.23 10.0565C53.23 10.0167 53.2408 9.97779 53.2613 9.94377C54.0693 8.5047 55.7927 7.5407 56.9335 6.90612C57.2661 6.74609 57.5791 6.54828 57.8663 6.31662C57.747 5.79522 57.5906 5.28302 57.3982 4.78393C57.3427 4.61749 57.2907 4.47184 57.2526 4.35741L57.1693 4.10428L57.4363 4.13895C57.6583 4.16669 58.2339 4.46144 59.295 5.08561L59.347 5.11335C60.2902 5.67164 63.8237 7.82504 63.8549 8.19261V8.28624L63.7786 8.34519C60.9109 10.3217 56.8885 10.9355 55.7441 10.9355ZM55.7441 10.5887C56.8399 10.5887 60.6404 10.0097 63.418 8.1614C62.0637 7.15077 60.6485 6.22432 59.1806 5.3873L59.1285 5.35956C58.3726 4.91224 57.9391 4.68337 57.6895 4.56547L57.7207 4.65563C57.9255 5.18309 58.089 5.72568 58.2096 6.27848C58.2478 6.54549 57.8871 6.74314 57.1034 7.18353C56.0285 7.78343 54.423 8.67808 53.6358 9.95763C53.7398 9.95763 53.9826 9.95763 54.2461 9.95763H54.6484C55.2517 9.95763 55.647 10.0097 55.758 10.2697C55.7832 10.3215 55.7952 10.3787 55.7927 10.4362C55.7903 10.4937 55.7736 10.5497 55.7441 10.5991V10.5887Z" fill="#946F39"/>
<g style="mix-blend-mode:screen">
<path d="M60.0059 5.89006C59.8857 5.74673 59.7609 5.61149 59.6314 5.48434C60.9936 6.26279 62.3058 7.1256 63.5603 8.06774C62.9213 8.04186 62.2949 7.88114 61.7224 7.59613C61.0663 7.11865 60.4874 6.54326 60.0059 5.89006Z" fill="#C89E49"/>
</g>
<path d="M48.9962 6.06346C48.9962 6.10161 49.0656 6.18135 49.0968 6.15361C49.981 7.85969 52.2523 7.95332 53.8821 7.3777C54.5271 7.14883 54.6103 6.36168 54.4231 5.80339C54.371 5.65081 54.2809 5.32832 54.1491 5.02317C54.3071 5.23657 54.4365 5.46973 54.534 5.7167C54.534 5.7375 54.586 5.79298 54.6242 5.79645C54.6242 5.7375 54.5999 5.67855 54.586 5.61961C54.5548 5.47396 54.5202 5.33178 54.4785 5.18961V5.1584C54.25 4.82369 53.981 4.51853 53.6775 4.24989C53.1678 3.83486 52.5317 3.60612 51.8744 3.60144C50.255 3.68466 49.3222 4.49262 48.9962 6.06346Z" fill="#947C6C"/>
<path d="M49.1555 6.02875C49.5023 5.10983 50.0017 4.29493 51.0627 4.07994C51.866 3.88183 52.7144 3.99455 53.4381 4.3955C53.9305 4.84629 54.7038 6.47607 53.9027 6.94767C53.4636 7.18643 52.9793 7.33055 52.481 7.37072C51.2465 7.47822 49.9531 7.1696 49.2284 6.09116C49.2103 6.06405 49.1851 6.04245 49.1555 6.02875Z" fill="#252525"/>
<g style="mix-blend-mode:multiply">
<path d="M49.1555 6.02875C49.1851 6.04245 49.2103 6.06405 49.2284 6.09116C49.9531 7.1696 51.2465 7.47822 52.481 7.37072C52.9793 7.33055 53.4636 7.18643 53.9027 6.94767C54.7038 6.46567 53.9305 4.84629 53.4381 4.3955C52.7144 3.99455 51.866 3.88183 51.0627 4.07994C50.0017 4.29493 49.5023 5.09596 49.1555 6.02875ZM50.657 5.29014C50.7333 4.62089 51.6557 4.39202 52.2001 4.35735C52.8937 4.31227 53.6184 4.60702 53.6739 5.36643C53.6755 5.37934 53.6744 5.39244 53.6709 5.40495C53.6673 5.41746 53.6612 5.42912 53.6531 5.43925C53.7191 5.63494 53.7191 5.84693 53.6531 6.04262C53.5671 6.22644 53.4318 6.38278 53.2622 6.49421C53.0926 6.60565 52.8954 6.66779 52.6925 6.67372C51.9921 6.72227 50.5495 6.216 50.657 5.27627V5.29014Z" fill="#252525"/>
</g>
<path d="M63.6191 8.13707C63.6815 8.13707 57.9252 7.50943 55.1927 9.17736C55.1927 9.14962 60.1688 7.88046 63.6191 8.13707Z" fill="#743025"/>
<path d="M52.5815 4.85667C52.6856 4.75611 52.852 4.82893 52.9595 4.87748C53.1884 4.99191 53.4797 5.34562 53.3964 5.61956C53.3887 5.63656 53.3794 5.65281 53.3687 5.6681C53.3631 5.69142 53.3537 5.71367 53.3409 5.73399C53.2751 5.84842 53.126 5.83108 53.0254 5.78254C52.9066 5.72028 52.8014 5.63479 52.7163 5.53114C52.6311 5.4275 52.5676 5.3078 52.5295 5.17916C52.5067 5.126 52.4995 5.06747 52.5087 5.01037C52.518 4.95328 52.5432 4.89997 52.5815 4.85667Z" fill="#B5B5B5"/>
<path d="M52.1484 4.65906C52.2628 4.65906 52.4015 4.9226 52.242 4.9226C52.0825 4.9226 51.9889 4.65906 52.1484 4.65906Z" fill="#B5B5B5"/>
<path d="M13.2796 13.9488C13.7998 13.7026 14.7742 13.7165 15.3602 13.602C16.1867 13.4523 17.024 13.37 17.8639 13.3558C19.3064 13.3073 20.4264 13.1582 21.7545 13.3905C21.4286 13.1617 21.5569 12.9675 21.8412 12.7421C23.7415 11.2475 26.7722 11.0083 29.0782 10.6615C31.3842 10.3147 33.7699 10.5817 36.062 10.7898C37.5843 10.925 39.7481 11.1574 41.2634 11.9723C43.2598 12.5921 45.1634 13.4786 46.9226 14.6077C47.8837 15.1761 48.7012 15.958 49.3118 16.8928C49.4173 17.077 49.4745 17.2848 49.4782 17.497C49.4818 17.7092 49.4318 17.9188 49.3326 18.1065C49.4667 18.0661 49.6102 18.0688 49.7427 18.1142C49.8752 18.1596 49.9901 18.2455 50.0712 18.3596C50.5914 19.0046 49.6447 20.2218 49.3465 20.7142C48.5131 21.9868 47.4952 23.1286 46.3262 24.102C45.451 24.9121 44.3724 25.4693 43.2053 25.7145C42.7083 25.9982 42.1941 26.2507 41.6657 26.4704C39.8591 27.2125 37.827 27.5419 36.0343 26.9039C33.4405 27.906 30.6213 27.6217 27.861 27.2264C26.0717 26.9698 24.5113 26.3664 22.8156 25.7804C21.4194 25.308 20.1327 24.5591 19.0324 23.5784C18.4048 23.1831 17.5136 22.5381 17.5032 21.8654C17.5043 21.8531 17.5093 21.8415 17.5174 21.8322C17.5255 21.8228 17.5363 21.8163 17.5483 21.8134C17.5749 21.8119 17.6015 21.8119 17.6281 21.8134C17.0333 21.3771 16.4838 20.8822 15.9879 20.3362C15.6411 19.9478 15.6411 19.7328 15.8422 19.6427C16.3086 19.6764 16.772 19.7425 17.2293 19.8403H17.264C17.3957 19.8403 17.4165 19.6461 17.2952 19.6149C16.8917 19.4754 16.5281 19.24 16.2358 18.929C15.9434 18.6179 15.731 18.2404 15.6168 17.8291C15.6282 17.8053 15.6409 17.7821 15.655 17.7597C16.0516 17.7781 16.4438 17.8516 16.8201 17.9782C17.2501 18.0684 17.6731 18.1932 18.0962 18.325C18.2037 18.3562 18.3736 18.3943 18.5678 18.4359C18.0682 18.1746 17.5965 17.8633 17.1599 17.5066C16.6571 17.0801 16.7161 16.8131 17.0663 16.6882C16.6525 16.52 16.263 16.2972 15.9081 16.0259C15.8233 15.9904 15.7518 15.9291 15.7039 15.8507C15.656 15.7722 15.634 15.6807 15.6411 15.589C15.6411 15.4988 15.2701 15.4572 15.329 15.4087C14.743 15.2388 14.1743 15.0446 13.6299 14.84C13.0855 14.6354 12.6728 14.2332 13.2796 13.9488Z" fill="#B88659"/>
<path d="M31.9249 27.7604C30.5437 27.7361 29.166 27.6144 27.8019 27.3963C26.2953 27.1396 24.8186 26.7306 23.3946 26.1757L22.7253 25.9434C21.307 25.4654 19.9992 24.7071 18.8797 23.7137C18.1654 23.2629 17.3089 22.6248 17.3019 21.8793C17.2983 21.8575 17.2983 21.8352 17.3019 21.8134C16.7686 21.4056 16.2731 20.9507 15.8212 20.4541C15.5681 20.1698 15.4745 19.9513 15.5022 19.7606C15.5151 19.6998 15.5423 19.6429 15.5814 19.5947C15.6206 19.5465 15.6707 19.5082 15.7276 19.4832L15.8351 19.4658C16.1269 19.4763 16.417 19.5134 16.702 19.5768H16.7471C16.0996 19.1957 15.622 18.5817 15.4121 17.8603V17.8014L15.4363 17.7424C15.4516 17.7112 15.469 17.6811 15.4884 17.6523L15.5334 17.5864H15.6132C15.9374 17.5831 16.2598 17.6347 16.5668 17.739C16.6673 17.7667 16.754 17.791 16.8269 17.8048C17.0419 17.8499 17.2568 17.9054 17.4718 17.9644C17.3123 17.8488 17.1632 17.7332 17.0245 17.6176C16.702 17.3436 16.5633 17.094 16.6049 16.8755C16.6162 16.8146 16.6424 16.7574 16.6812 16.7091C16.5025 16.6215 16.3319 16.5182 16.1715 16.4004C16.0605 16.3242 15.9426 16.2409 15.7935 16.1543C15.6959 16.1074 15.6124 16.0356 15.5515 15.9461C15.4906 15.8565 15.4544 15.7525 15.4467 15.6445L15.3739 15.6202C15.3061 15.6049 15.2423 15.5753 15.1867 15.5335C14.6353 15.3671 14.084 15.1868 13.5499 14.9787C13.3315 14.8955 12.8252 14.6666 12.8079 14.2852C12.8079 14.1465 12.8668 13.9384 13.2032 13.7859C13.6586 13.6202 14.1371 13.5266 14.6214 13.5084C14.878 13.4842 15.1173 13.4634 15.315 13.4287C16.1494 13.2761 16.9948 13.1915 17.8429 13.1755C18.1896 13.1755 18.4879 13.1478 18.7895 13.1339C19.6519 13.0654 20.5187 13.0724 21.3799 13.1547C21.3816 13.1432 21.3816 13.1316 21.3799 13.1201C21.3945 13.0128 21.4332 12.9102 21.4933 12.8201C21.5534 12.7299 21.6332 12.6547 21.7266 12.5999C23.4604 11.2476 26.0993 10.8869 28.2284 10.5956C28.5093 10.561 28.7798 10.5228 29.0433 10.4847C29.8589 10.3703 30.6818 10.3158 31.5053 10.3217C32.8924 10.3217 34.2795 10.45 35.6422 10.5714L36.0653 10.6095C37.3344 10.7239 39.689 10.9355 41.3257 11.8058C43.3321 12.4255 45.2444 13.3169 47.0091 14.4551C47.9886 15.0368 48.8196 15.8381 49.4365 16.7958C49.5375 16.9595 49.6014 17.1434 49.6236 17.3346C49.6458 17.5257 49.6257 17.7194 49.5648 17.9019C49.6868 17.9108 49.8054 17.9465 49.9121 18.0064C50.0188 18.0663 50.111 18.1491 50.182 18.2487C50.7126 18.9006 50.0294 19.9444 49.6203 20.5685C49.5613 20.6552 49.5093 20.7315 49.4712 20.7974C48.6287 22.0838 47.6004 23.2383 46.4196 24.2234C45.527 25.0514 44.425 25.6198 43.2329 25.8671C42.7386 26.1504 42.2267 26.4018 41.7002 26.6196C39.6196 27.4691 37.6431 27.6356 36.0098 27.0773C34.7017 27.5538 33.3169 27.7854 31.9249 27.7604ZM17.6487 21.9799C17.7666 22.6075 18.7514 23.2317 19.0878 23.4432C20.1775 24.4163 21.4525 25.1593 22.8363 25.6278L23.5055 25.8636C24.9081 26.4067 26.3613 26.8086 27.8435 27.0634C29.1931 27.2736 30.5557 27.3894 31.9215 27.4102C33.2902 27.4383 34.6521 27.2101 35.937 26.7375L35.9925 26.7167L36.0514 26.7375C37.6153 27.2888 39.5468 27.1328 41.5615 26.304C42.0848 26.0881 42.5934 25.8379 43.0838 25.555L43.1393 25.5377C44.2795 25.2998 45.3334 24.7555 46.1873 23.9634C47.3437 23.0029 48.35 21.875 49.1729 20.6171C49.2146 20.5477 49.2666 20.468 49.3255 20.3778C49.6723 19.8681 50.2826 18.9179 49.9115 18.4568C49.8516 18.3678 49.7645 18.3006 49.6634 18.265C49.5622 18.2294 49.4522 18.2273 49.3498 18.2591L49.003 18.3423L49.1383 18.0268C49.2254 17.8672 49.271 17.6884 49.271 17.5066C49.271 17.3249 49.2254 17.146 49.1383 16.9865C48.5429 16.0719 47.7427 15.3085 46.8011 14.7568C45.0585 13.631 43.1695 12.75 41.187 12.1387H41.1523C39.5745 11.2961 37.2512 11.0984 36.0063 10.9736L35.5798 10.9355C34.2344 10.8141 32.8439 10.6858 31.4741 10.6858C30.6622 10.6798 29.851 10.7331 29.0468 10.8453L28.2319 10.9597C26.03 11.2579 23.5367 11.5978 21.8896 12.8912C21.6919 13.0473 21.6711 13.1166 21.6746 13.1374C21.6781 13.1582 21.7058 13.2102 21.796 13.2692L22.4202 13.7061L21.6677 13.5743C21.157 13.4863 20.6393 13.4445 20.1211 13.4495C19.6807 13.4495 19.2369 13.4738 18.7653 13.498C18.4601 13.498 18.1446 13.5292 17.8117 13.5397C16.9812 13.5563 16.1533 13.6387 15.3358 13.7859C15.1312 13.824 14.8815 13.8483 14.618 13.8725C14.1738 13.8887 13.7344 13.9705 13.3141 14.1153C13.1858 14.1777 13.1096 14.247 13.1096 14.2956C13.1096 14.3441 13.2587 14.5383 13.6332 14.6805C14.1845 14.8886 14.7497 15.0793 15.3219 15.2492L15.6271 15.3394L15.5889 15.3706C15.6385 15.386 15.6816 15.4176 15.7111 15.4603C15.7406 15.5031 15.755 15.5545 15.7519 15.6064C15.7519 15.6826 15.7519 15.7763 15.9357 15.8803C16.1195 15.9843 16.22 16.0606 16.3345 16.1404C16.5543 16.3089 16.8003 16.4401 17.0627 16.5287L17.5551 16.6883L17.0627 16.8478C16.9725 16.8755 16.917 16.9171 16.9101 16.9553C16.9031 16.9934 16.969 17.1668 17.2152 17.3749C17.6434 17.7279 18.1084 18.0337 18.6023 18.2868L19.6703 18.8625L18.3804 18.5781L18.0024 18.488L17.9226 18.4637C17.5377 18.3493 17.1389 18.2314 16.7402 18.1516L16.4593 18.0788C16.2337 18.0073 16.0013 17.9596 15.7658 17.9366C15.8866 18.288 16.0853 18.6075 16.3472 18.8711C16.609 19.1347 16.9271 19.3357 17.2777 19.4589C17.3447 19.4769 17.4028 19.5191 17.4406 19.5774C17.4783 19.6357 17.4932 19.7059 17.4822 19.7745C17.4754 19.8407 17.4444 19.9021 17.3951 19.9469C17.3459 19.9916 17.2818 20.0167 17.2152 20.0172H17.1251C16.9725 20.0172 16.7957 19.9652 16.6188 19.9305C16.36 19.8718 16.0967 19.8359 15.8316 19.823C15.8301 19.8263 15.8293 19.8298 15.8293 19.8334C15.8293 19.837 15.8301 19.8406 15.8316 19.8438C15.8316 19.8438 15.8316 19.9652 16.0709 20.2461C16.5582 20.7833 17.0984 21.2701 17.6834 21.699L18.0579 21.9764L17.6487 21.9799Z" fill="#4E3926"/>
<path d="M12.7943 14.1292C12.7457 14.5071 13.1722 14.7811 13.4878 14.8851C14.1536 15.114 14.809 15.3359 15.4747 15.544C15.4466 15.5589 15.42 15.5763 15.395 15.596C15.3464 15.6411 15.395 15.7208 15.4193 15.7624C15.6949 16.0269 16.0218 16.2323 16.3798 16.3658L16.9554 16.6363C16.7404 16.931 16.6433 17.0455 16.9728 17.3541C17.3699 17.7151 17.8116 18.0239 18.287 18.273C17.9036 18.1341 17.5122 18.0183 17.1149 17.9262C16.7682 17.8499 15.8492 17.4546 15.4713 17.7598C15.0309 18.1065 16.6537 19.2786 16.7474 19.348C16.9381 19.4832 17.1323 19.6184 17.3265 19.7467C16.6329 19.5075 15.8076 19.3029 15.7001 19.6115C15.4817 20.2565 16.2376 20.839 16.6641 21.2101C16.9311 21.4424 17.2051 21.6643 17.486 21.8793C17.4686 21.8793 17.4617 21.9105 17.486 21.9522C17.701 22.7289 18.3702 23.3392 19.0325 23.7484C19.4903 24.0362 19.9653 24.3171 20.4473 24.5806C22.84 26.0994 25.7771 27.008 28.5408 27.4588C30.0696 27.7725 31.6345 27.8728 33.1909 27.757C34.1838 27.6425 35.1567 27.3941 36.0829 27.0184C36.6368 27.1264 37.1976 27.1959 37.7612 27.2264C39.6644 27.3269 41.5509 26.8258 43.1534 25.7943C43.1659 25.8072 43.1814 25.8167 43.1985 25.822C43.788 26.0405 44.5162 25.6521 45.0051 25.3262C46.0483 24.6741 46.9988 23.8844 47.8312 22.9786C48.6037 22.1411 49.2752 21.2158 49.832 20.2218C50.1268 19.6566 50.5256 18.9943 50.314 18.3458C50.3045 18.3172 50.2876 18.2916 50.2651 18.2716C50.2426 18.2515 50.2152 18.2377 50.1857 18.2314C50.0205 18.2172 49.8556 18.2627 49.7211 18.3597C49.676 18.384 49.7523 18.4672 49.7904 18.4603C50.5915 18.3111 49.3639 20.4021 49.1975 20.6518C48.6537 21.4792 48.0375 22.2567 47.3562 22.9751C47.0718 23.2595 43.9787 25.8324 43.3406 25.6729L43.4273 25.6174C44.8144 24.6777 46.5101 23.464 47.4567 21.9938C47.1683 22.2686 46.8548 22.5158 46.5205 22.7324C45.8547 23.3357 45.0814 23.8767 44.4399 24.3518C43.2297 25.2429 41.8253 26.1896 40.3515 26.5606C39.2927 26.8269 38.1978 26.9194 37.1093 26.8346C36.4952 26.818 35.8867 26.7129 35.3027 26.5225C35.2853 26.5187 35.2694 26.5102 35.2566 26.498C35.2437 26.4858 35.2345 26.4702 35.2298 26.4531C34.6022 26.2277 32.9932 25.4961 33.9711 24.7679C34.1063 24.6673 34.245 24.5772 34.3837 24.487C35.7323 24.457 37.0648 24.1881 38.3195 23.6929C39.8314 23.1346 41.4785 22.5278 42.7789 21.5083C42.4911 21.6054 42.2033 21.6886 41.9154 21.7857C40.6949 22.4043 39.4175 22.9036 38.101 23.2768C36.6723 23.7631 35.1751 24.0183 33.6659 24.0327L33.9052 24.0119C35.8991 23.7865 38.1288 23.2178 39.7343 21.914L39.5679 21.9834C38.9055 22.2434 38.2502 22.5382 37.574 22.7566C37.1566 22.8879 36.7316 22.9932 36.3013 23.0722C35.9546 23.1693 35.5801 23.2525 35.2333 23.3253C34.0404 23.5681 32.532 23.9183 31.3426 23.5195C30.1532 23.1207 29.4077 22.2088 28.6552 21.2517C29.2021 21.458 29.7712 21.5999 30.3509 21.6747C32.3656 21.9418 34.6681 21.6747 36.4782 20.6969C36.2736 20.735 36.0655 20.7628 35.8748 20.7905H35.854C34.291 21.3064 32.6378 21.4918 30.9993 21.3349C29.8143 21.2702 28.6573 20.9496 27.608 20.3952C26.8708 19.928 26.2504 19.2981 25.7944 18.5539C26.3517 18.8685 26.9441 19.1164 27.5594 19.2925C28.6795 19.6115 30.1671 19.9548 31.4813 19.8473C31.1346 19.7467 30.7878 19.6427 30.441 19.5526C30.3509 19.5317 30.2607 19.5179 30.174 19.4936C29.7267 19.4277 29.2967 19.341 28.9222 19.2613C27.4589 18.9561 25.7147 18.4152 24.7299 17.1807C24.7957 17.1807 24.7749 17.1113 24.7299 17.0663C25.6137 17.4979 26.5568 17.7959 27.5282 17.9505C27.0497 17.7806 26.5781 17.5829 26.1065 17.3749C25.6431 17.1787 25.1956 16.9468 24.768 16.6814C24.3867 16.5503 24.0622 16.2919 23.8491 15.9497C23.7124 15.6592 23.6167 15.3511 23.5647 15.0342C24.5583 15.605 25.6244 16.0389 26.7341 16.3242C28.0663 16.7558 29.4401 17.0464 30.8329 17.1911C30.313 17.0758 29.8001 16.9311 29.2967 16.7576C29.0436 16.6918 28.7904 16.6293 28.5408 16.56C27.6311 16.3564 26.7488 16.0456 25.9123 15.6341C25.0571 15.3891 24.2401 15.0261 23.485 14.5557C24.0498 14.5454 24.614 14.599 25.1668 14.7152C25.2915 14.7176 25.4157 14.7315 25.5378 14.7568C25.9262 14.7915 26.3146 14.7568 26.7029 14.8054C27.0913 14.8539 27.4242 14.8886 27.7883 14.9163L26.9699 14.7187L26.1204 14.5314C24.9336 14.3617 23.7565 14.1302 22.5938 13.8379C22.299 13.7616 21.765 13.6645 21.8205 13.2623V13.2311H21.7997L21.824 13.2137C21.9037 12.9849 22.2436 12.8878 22.5626 12.8392C24.3312 12.0678 26.1985 11.5461 28.1108 11.2892C30.3397 10.9046 32.6014 10.7443 34.8623 10.8107C35.8873 10.8568 36.908 10.9727 37.9173 11.1574C38.8015 11.3169 39.9978 11.3481 40.7954 11.7989C40.8752 11.8405 40.8543 11.733 40.7954 11.7018C40.2059 11.3065 39.391 11.206 38.7148 11.043C37.8291 10.8202 36.932 10.6454 36.0274 10.5194C34.2853 10.3304 32.5285 10.3199 30.7843 10.4882C28.8848 10.6128 27.0014 10.9182 25.1598 11.4001C23.9982 11.7261 22.1742 12.17 21.3454 13.134C21.33 13.1527 21.3203 13.1757 21.3177 13.1998C20.0059 13.1432 18.692 13.1595 17.3819 13.2484C16.248 13.3178 15.1314 13.4565 14.0045 13.5952C13.7548 13.6576 12.8463 13.6992 12.7943 14.1292ZM13.9247 14.0529C16.4259 13.6291 18.9617 13.4433 21.498 13.4981C21.8448 13.9246 22.514 14.0529 23.0446 14.1708C23.0027 14.1818 22.9621 14.1969 22.9232 14.2159C22.7568 14.2991 22.8781 14.5141 22.9752 14.6042C23.0723 14.6944 23.218 14.8088 23.3463 14.9025C23.3099 15.26 23.3717 15.6207 23.5251 15.9458C23.6785 16.2708 23.9175 16.5479 24.2166 16.7472C24.234 16.8357 24.2583 16.9227 24.2895 17.0073H24.2548C24.2929 17.0663 24.3276 17.1287 24.3623 17.1911C24.6036 17.6418 24.9556 18.0236 25.3852 18.3007C25.3863 18.3268 25.3947 18.3521 25.4095 18.3736C26.0634 19.6023 27.1077 20.5783 28.3778 21.1477C28.3758 21.1796 28.3843 21.2112 28.4021 21.2378C29.3591 22.8052 30.4514 23.6964 31.9391 23.9703C31.9434 23.9908 31.9504 24.0106 31.9599 24.0293L32.1783 24.0882C32.5346 24.232 32.9073 24.331 33.288 24.383C33.3038 24.3828 33.3195 24.3861 33.3338 24.3927C33.3482 24.3993 33.361 24.409 33.3712 24.4211C33.5758 24.4454 33.7804 24.4662 33.985 24.4766C33.4856 24.7713 33.1146 25.1701 33.503 25.7631C33.8913 26.3561 34.7166 26.7097 35.5835 26.9282C34.8554 27.1757 34.1016 27.3397 33.3365 27.4171C31.8175 27.5341 30.2897 27.4561 28.7904 27.1848C26.1535 26.7395 23.5932 25.9223 21.1859 24.7575C20.7351 24.4974 20.2843 24.2408 19.837 23.9773C19.4071 23.7461 18.9966 23.4805 18.6095 23.1832C18.3959 23.0146 18.1996 22.8253 18.0234 22.6179C17.9221 22.4127 17.7806 22.23 17.6073 22.0805C17.6247 22.0805 17.6351 22.0805 17.6281 22.0562C17.6212 22.0319 17.6281 22.0215 17.6108 22.0042C19.6404 23.5004 21.8979 24.6595 24.2964 25.4371C24.3866 25.4683 24.3276 25.3366 24.2964 25.3158C22.4283 24.523 20.6173 23.6019 18.8765 22.559C18.0214 22.0423 17.2199 21.4417 16.4838 20.7662C15.0239 19.3792 16.8757 19.8265 17.8709 20.1108C20.7538 21.8406 23.9454 22.9936 27.2682 23.5057C27.3132 23.5057 27.2682 23.4363 27.2682 23.4294C24.6797 22.7973 22.1629 21.9014 19.7573 20.7558C18.443 20.1212 17.0768 19.4693 16.0122 18.4394C15.0586 17.5136 17.4166 18.1828 16.841 18.0719C17.2051 18.1378 17.5623 18.221 17.9159 18.3215C18.2696 18.4221 18.7204 18.54 19.1158 18.6856L19.4625 18.8452C21.7868 19.9458 24.2491 20.7273 26.7827 21.1685C25.9331 20.9049 25.1078 20.5651 24.2617 20.2877L23.5994 20.0727C20.5652 19.1989 16.7786 17.8673 17.0872 16.6883C17.6802 16.9588 18.2801 17.2119 18.8904 17.4338C20.4451 17.9685 22.0511 18.3404 23.6826 18.5435C23.3151 18.3909 22.951 18.2383 22.5765 18.0996C21.3015 17.882 20.0475 17.556 18.8279 17.1252C17.8957 16.8074 16.9872 16.4239 16.1093 15.9774C15.8042 15.8075 15.8284 15.7347 15.9741 15.7C16.3208 15.8075 16.6849 15.9081 17.049 16.0017C18.7494 16.4695 20.4806 16.8171 22.2297 17.042C21.6783 16.8964 21.1304 16.723 20.5791 16.5739C19.844 16.3762 19.0811 16.2618 18.339 16.0953C17.2337 15.8736 16.1517 15.5485 15.1072 15.1244H15.076C14.7049 14.9822 12.6729 14.254 13.9247 14.0529Z" fill="#8C5E28"/>
<g style="mix-blend-mode:multiply">
<path d="M13.5953 14.8262C14.1397 15.0308 14.7084 15.2249 15.2944 15.3949C15.2354 15.4434 15.6134 15.485 15.6065 15.5752C15.6012 15.6062 15.6012 15.6378 15.6065 15.6688C16.9554 15.9289 18.2662 16.345 19.6116 16.6259C20.8461 16.8894 22.1187 16.9726 23.2942 17.4685C23.3216 17.4753 23.3455 17.4921 23.3613 17.5155C23.3771 17.5389 23.3837 17.5673 23.3798 17.5952C23.376 17.6232 23.3619 17.6487 23.3403 17.6669C23.3188 17.6851 23.2912 17.6948 23.263 17.6939C21.0403 17.9297 18.7794 17.3645 16.6918 16.5322C16.8033 16.5891 16.9193 16.6366 17.0386 16.6744L16.9727 16.6987C18.0442 17.1842 19.1469 17.628 20.2531 18.0164C21.4598 18.4464 22.7429 18.6267 23.9011 19.1989C24.0155 19.2578 23.9461 19.4 23.8456 19.4138C22.358 19.5976 20.7247 19.0671 19.3064 18.6995L18.8799 18.5816C19.8474 18.9076 20.8149 19.2335 21.7477 19.6462C22.7602 20.097 23.7589 20.572 24.768 21.0332C25.4268 21.328 26.2903 21.5014 26.7515 22.0978C26.767 22.1138 26.7775 22.134 26.7818 22.1559C26.786 22.1778 26.7837 22.2004 26.7753 22.221C26.7668 22.2417 26.7525 22.2594 26.7341 22.272C26.7157 22.2846 26.694 22.2915 26.6717 22.292C26.1465 22.2753 25.6262 22.1867 25.1251 22.0284C24.4489 21.8516 23.7762 21.6817 23.107 21.4736C21.9245 21.1269 20.7767 20.6726 19.6393 20.2322C18.3604 19.7977 17.1251 19.2439 15.9498 18.5781C16.2556 19.0738 16.7294 19.4431 17.2848 19.6184C17.3017 19.6246 17.317 19.6343 17.3296 19.6471C17.3422 19.6598 17.3518 19.6752 17.3578 19.6921C17.3638 19.709 17.3659 19.727 17.3641 19.7449C17.3623 19.7627 17.3565 19.7799 17.3472 19.7953C18.5951 20.4975 19.8905 21.1116 21.224 21.6331C23.0376 22.4029 24.8304 23.2282 26.696 23.8732C26.7234 23.8801 26.7472 23.8968 26.763 23.9202C26.7788 23.9436 26.7854 23.972 26.7816 23.9999C26.7777 24.0279 26.7636 24.0534 26.7421 24.0716C26.7205 24.0899 26.693 24.0995 26.6648 24.0986C24.0363 24.1264 21.55 23.2525 19.1608 22.2365C18.223 21.8581 17.3222 21.3938 16.4699 20.8494C16.8241 21.1894 17.1994 21.5067 17.5934 21.7996C17.5669 21.798 17.5402 21.798 17.5137 21.7996C17.5017 21.8024 17.4908 21.809 17.4828 21.8183C17.4747 21.8277 17.4697 21.8393 17.4686 21.8516C17.4686 22.5451 18.3702 23.1693 18.9978 23.5646C20.0957 24.5553 21.3825 25.3137 22.781 25.7943C24.4767 26.3803 26.0371 26.9837 27.8264 27.2403C30.6005 27.6356 33.4058 27.9338 35.9996 26.9178C37.7924 27.5558 39.814 27.2264 41.6311 26.4843C42.1595 26.2646 42.6737 26.0121 43.1707 25.7284C44.3377 25.4833 45.4164 24.926 46.2916 24.116C47.0063 23.5047 47.6729 22.8392 48.2855 22.1255C47.556 22.8271 46.7671 23.4641 45.9275 24.0293C45.8165 24.109 45.7055 23.9426 45.7888 23.8524C46.7042 22.8711 47.637 21.8516 48.178 20.6206C45.7055 23.6756 41.0901 27.2334 37.2549 24.8719C37.2376 24.8618 37.2233 24.8474 37.2134 24.8301C37.2034 24.8127 37.1982 24.7931 37.1982 24.7731C37.1982 24.7531 37.2034 24.7334 37.2134 24.7161C37.2233 24.6988 37.2376 24.6843 37.2549 24.6742C38.5275 23.9252 39.9077 23.3843 41.1491 22.5937C41.7393 22.2089 42.2961 21.7751 42.8135 21.2968C41.5895 21.9556 40.1851 22.3371 38.909 22.826C38.7841 22.8745 38.7183 22.6838 38.8223 22.6179C39.7117 22.0419 40.5505 21.3911 41.3294 20.6726C38.7529 22.2434 35.6737 23.2352 32.7851 21.8967C32.766 21.8852 32.7507 21.8683 32.7411 21.8482C32.7314 21.8281 32.7278 21.8056 32.7308 21.7835C32.7337 21.7614 32.7431 21.7407 32.7577 21.7238C32.7722 21.707 32.7914 21.6947 32.8129 21.6886C33.5539 21.5483 34.2796 21.3369 34.9802 21.0575H34.5744C33.3099 20.9553 32.0634 20.6944 30.8641 20.2808C30.8394 20.2745 30.8174 20.2602 30.8018 20.2401C30.7861 20.22 30.7776 20.1953 30.7776 20.1698C30.7776 20.1443 30.7861 20.1195 30.8018 20.0994C30.8174 20.0793 30.8394 20.065 30.8641 20.0588C31.4156 19.8901 31.9868 19.7945 32.5632 19.7745C31.3924 19.6051 30.2553 19.2541 29.1927 18.7342C29.0748 18.6822 29.1545 18.5331 29.2516 18.5227C29.9001 18.4573 30.554 18.4666 31.2004 18.5504C30.0249 18.2036 28.8667 17.8014 27.9478 16.9206C27.9303 16.9027 27.9191 16.8796 27.916 16.8547C27.9129 16.8298 27.918 16.8046 27.9306 16.783C27.9432 16.7613 27.9626 16.7444 27.9857 16.7348C28.0089 16.7252 28.0345 16.7235 28.0588 16.7299C29.0366 16.8998 29.9764 17.2396 30.9646 17.3541C31.548 17.4037 32.1351 17.3909 32.7158 17.3159C31.6253 17.0142 30.5627 16.6198 29.5394 16.1369C29.5205 16.1251 29.5054 16.1082 29.4957 16.0881C29.486 16.068 29.4822 16.0456 29.4848 16.0235C29.4873 16.0014 29.4961 15.9804 29.51 15.963C29.524 15.9457 29.5426 15.9326 29.5637 15.9254C30.7184 15.6757 31.9113 15.8248 33.066 15.6168C31.9841 15.1695 30.9196 14.6909 29.8064 14.3338C28.5963 13.9556 27.4124 13.4981 26.2625 12.964C26.2478 12.9552 26.2353 12.9433 26.2258 12.929C26.2164 12.9147 26.2103 12.8984 26.208 12.8814C26.2056 12.8645 26.2071 12.8472 26.2124 12.8309C26.2176 12.8146 26.2265 12.7996 26.2382 12.7872C26.8217 12.2886 27.4869 11.8945 28.2044 11.6221C28.9707 11.2753 29.7302 10.9285 30.5138 10.6373C30.6491 10.5853 30.7878 10.5402 30.9265 10.4986C30.2964 10.5128 29.6677 10.5637 29.0436 10.6511C26.7376 10.9979 23.7069 11.2372 21.8066 12.7317C21.5223 12.9571 21.394 13.1513 21.7199 13.3802C20.4542 13.1582 19.3723 13.2831 18.0269 13.3351C19.8231 13.6229 21.5188 14.306 22.4481 15.9427C22.4578 15.9602 22.4627 15.9799 22.4625 15.9998C22.4622 16.0198 22.4567 16.0393 22.4465 16.0565C22.4364 16.0737 22.4219 16.0879 22.4045 16.0978C22.3872 16.1076 22.3675 16.1127 22.3476 16.1127C20.5132 16.1335 18.6788 15.5717 16.9172 15.1105C15.7035 14.8025 14.517 14.3954 13.3699 13.8934C13.3352 13.8934 13.2936 13.9211 13.2624 13.935C12.6729 14.2332 13.0439 14.6181 13.5953 14.8262ZM28.5754 26.1376C28.6058 26.1376 28.6349 26.1496 28.6563 26.1711C28.6778 26.1926 28.6899 26.2217 28.6899 26.252C28.6899 26.2824 28.6778 26.3115 28.6563 26.3329C28.6349 26.3544 28.6058 26.3664 28.5754 26.3664C27.2894 26.3941 26.004 26.2872 24.7402 26.0474C23.9415 25.8529 23.1644 25.5787 22.4204 25.2291C21.6875 24.9207 20.9783 24.5591 20.2982 24.1472C20.0312 23.9772 19.511 23.6721 19.5145 23.2941L19.3481 23.1797C19.2302 23.093 19.3481 22.8919 19.4625 22.982L19.6914 23.1416C20.9132 23.9241 22.2508 24.5092 23.6549 24.8754C25.25 25.3539 26.9179 26.0578 28.5754 26.1411V26.1376Z" fill="#B88659"/>
</g>
<path d="M36.0411 21.165C37.1768 20.7366 38.3414 20.389 39.5261 20.1247C40.6115 19.8334 41.5685 19.0151 42.3002 18.1967C42.38 18.1065 42.5846 18.3354 42.5187 18.429C42.1036 19.0031 41.6256 19.5288 41.0935 19.9964C41.8932 19.5146 42.6507 18.9659 43.3578 18.3562C43.5451 18.2071 43.8711 18.6059 43.767 18.7862C43.2886 19.5788 42.7054 20.3031 42.0332 20.9396C43.1706 20.4645 44.1727 19.4797 45.0466 18.7584C45.213 18.6197 45.5251 18.9873 45.4246 19.1503C45.0778 19.7363 44.7068 20.3536 44.308 20.9361L44.3635 20.891C45.2016 20.2039 45.928 19.3909 46.5169 18.481C46.5723 18.3909 46.711 18.5469 46.6798 18.6232C46.297 19.53 45.7944 20.3814 45.1853 21.1546C46.1182 20.5279 46.932 19.74 47.5884 18.8278C47.6473 18.7446 47.7825 18.8937 47.7444 18.9665C47.5178 19.4342 47.2678 19.8902 46.9954 20.3328C47.3527 19.9628 47.683 19.5676 47.9837 19.1503C48.06 19.0428 48.2368 19.2335 48.1883 19.3306C47.4531 20.8425 46.5897 22.1741 45.1575 23.1069C43.7156 24.0461 42.0466 24.578 40.3271 24.6465C40.185 24.6465 39.9804 24.3379 40.1538 24.272C40.8785 24.0015 41.5859 23.7241 42.2759 23.4224C41.9881 23.4779 41.6969 23.523 41.4056 23.5542C41.2357 23.575 40.9478 23.2282 41.1732 23.1415C41.4923 23.0202 41.8147 22.8919 42.1372 22.7566C41.9951 22.6318 41.898 22.4341 42.0401 22.3301C42.5338 21.9862 43.0493 21.6746 43.5832 21.3973C43.7939 21.0994 43.9884 20.7903 44.1658 20.4715C43.2503 21.3002 42.1268 22.0041 41.0207 21.8342C40.8612 21.8065 40.4034 21.3661 40.6739 21.2274C41.0629 21.0247 41.4203 20.7666 41.735 20.4611C41.5412 20.5908 41.3384 20.7067 41.1282 20.8078C40.0881 21.3393 38.9454 21.6397 37.7784 21.6886C37.297 21.785 36.8052 21.8188 36.3151 21.7892C36.0966 21.7788 35.7291 21.2864 36.0411 21.165Z" fill="#DCCEB4"/>
<path d="M31.6858 17.9609C32.8762 18.2578 34.0939 18.4321 35.3199 18.481C36.3983 18.481 37.6536 18.6787 38.6661 18.2556C38.7598 18.2175 38.9227 18.429 38.8291 18.4983C38.4343 18.7734 37.9958 18.9797 37.5322 19.1087C37.2608 19.321 36.9577 19.4895 36.6341 19.608C37.7794 19.545 38.8968 19.2313 39.9076 18.6891C40.0116 18.6301 40.1919 18.8451 40.0913 18.9179C39.6128 19.2647 39.1794 19.6288 38.68 19.9409C38.1183 20.2876 37.234 20.3778 36.5994 20.4541C35.3721 20.5789 34.1391 20.2777 33.1075 19.6011C32.9723 19.5144 32.8058 19.1191 33.1075 19.1988C33.3329 19.2612 33.5583 19.3132 33.8011 19.3618C33.8011 19.3271 33.8496 19.3063 33.9155 19.3098C34.4169 19.3408 34.92 19.3338 35.4204 19.289C34.1497 19.163 32.9106 18.8168 31.7586 18.266C31.613 18.214 31.4535 17.9089 31.6858 17.9609Z" fill="#DCCEB4"/>
<path d="M31.4083 16.2687C32.0383 16.4996 32.6919 16.6601 33.3571 16.7473L33.1942 16.6606C33.0346 16.5843 32.8855 16.5149 32.7572 16.449C32.6532 16.3554 32.4798 16.1023 32.6636 16.1023C33.2288 16.0572 33.7837 16.2999 34.3246 16.449C35.0493 16.6571 36.0896 16.9726 36.856 16.8617C36.9149 16.8617 37.019 16.9622 36.9565 17.0143C36.8664 17.0913 36.7661 17.1555 36.6583 17.205C36.9166 17.2043 37.1726 17.1573 37.4143 17.0663C37.501 17.0316 37.6085 17.198 37.5495 17.2639C36.9635 17.9366 35.3961 17.7286 34.6159 17.6454C33.4947 17.5687 32.4021 17.2581 31.4083 16.7334C31.2558 16.6293 31.0928 16.1439 31.4083 16.2687Z" fill="#DCCEB4"/>
<path d="M28.2946 12.8253C29.3488 13.3509 30.4507 13.7747 31.5854 14.091C32.0986 14.2505 32.598 14.4378 33.1181 14.5834C33.1632 14.5834 34.7167 15.0412 34.8519 14.9302C34.9247 14.8678 35.0461 15.0342 34.9906 15.1036C34.8623 15.2562 34.3595 15.1209 34.1757 15.1036C33.4569 15.0991 32.7414 15.0036 32.0466 14.8192C30.6595 14.4482 29.3141 14.098 28.1906 13.179C28.0103 13.0542 27.9929 12.6624 28.2946 12.8253Z" fill="#DCCEB4"/>
<path d="M29.5394 12.8565C29.959 13.0333 30.3855 13.1755 30.8155 13.3211C31.3807 13.5084 31.8905 13.8898 32.4869 13.9592C32.532 13.9592 32.6187 14.0875 32.5493 14.0944C32.0967 14.1062 31.6472 14.0149 31.2351 13.8274C30.6532 13.6955 30.0863 13.505 29.5429 13.2587C29.4007 13.179 29.262 12.742 29.5394 12.8565Z" fill="#DCCEB4"/>
<path d="M20.6689 22.8953C22.2541 23.8676 23.9692 24.6101 25.7629 25.1007C27.6146 25.6001 29.7923 26.1861 31.7238 25.9607C31.8521 25.9607 32.0254 26.1375 31.9249 26.252C30.8222 27.4934 27.9648 26.571 26.6159 26.1479C24.4769 25.503 22.4526 24.5259 20.6169 23.2525C20.4643 23.1346 20.3881 22.7254 20.6689 22.8953Z" fill="#DCCEB4"/>
<path d="M19.5423 19.9651C21.1303 20.749 22.7866 21.3862 24.4906 21.8689C25.3228 22.1081 26.155 22.3439 27.0046 22.5069C27.3028 22.5624 28.7384 23.034 28.9638 22.8849C29.0713 22.8155 29.262 23.0201 29.1961 23.1241C28.5026 24.2026 25.8637 23.2108 24.9968 22.8849C23.1104 22.174 21.075 21.4215 19.4902 20.142C19.4036 20.0726 19.3966 19.8993 19.5423 19.9651Z" fill="#DCCEB4"/>
<path d="M19.3618 17.7181C21.4979 18.5157 23.6513 19.3583 25.822 20.0241C25.8775 20.0414 25.9746 20.1559 25.9087 20.2114C25.2152 20.7835 23.7172 20.0761 22.9994 19.8889C21.6592 19.5178 20.4093 18.8758 19.3272 18.0025C19.2439 17.9297 19.1746 17.6418 19.3618 17.7181Z" fill="#DCCEB4"/>
<path d="M18.7756 16.345C19.7396 16.6502 20.6863 16.9761 21.6607 17.25C22.4478 17.465 23.3321 17.8118 24.1504 17.8049C24.2545 17.8049 24.407 18.0233 24.2753 18.0753C23.5332 18.384 22.5831 18.117 21.8479 17.9644C20.7776 17.7664 19.7461 17.3976 18.7929 16.8721C18.5988 16.7785 18.3976 16.2271 18.7756 16.345Z" fill="#DCCEB4"/>
<path d="M16.2788 14.351C18.6056 14.7672 20.9011 15.2977 23.214 15.6965C23.3146 15.6965 23.488 15.908 23.3458 15.9774C22.3055 16.4767 20.9636 16.1161 19.9025 15.9149C18.6799 15.6548 17.4901 15.2594 16.3551 14.7359C16.2684 14.6978 16.0534 14.3198 16.2788 14.351Z" fill="#DCCEB4"/>
<g style="mix-blend-mode:multiply">
<path d="M49.8942 19.2231C49.8937 19.2056 49.8893 19.1884 49.8812 19.1728C49.8732 19.1572 49.8618 19.1436 49.8478 19.133C49.8339 19.1223 49.8177 19.1149 49.8006 19.1113C49.7834 19.1077 49.7656 19.108 49.7486 19.1122C49.2285 19.2786 48.8921 19.7155 48.5211 20.09C48.0933 20.5179 47.6146 20.8917 47.0959 21.2031C47.6437 20.2357 48.417 19.1954 48.3858 18.0823C48.3581 17.042 47.6923 16.1508 46.9225 15.5024C46.0339 14.7746 45.0548 14.165 44.0097 13.6888C42.8862 13.1215 41.728 12.6258 40.542 12.2046C37.5006 11.2514 34.3244 10.7993 31.1378 10.8661C29.4456 10.8661 27.7846 11.0326 26.0993 11.1505L25.7838 11.1713C26.9038 10.9494 28.0412 10.8245 29.0364 10.6754C31.332 10.3286 33.7281 10.5957 36.0202 10.8037C37.5425 10.9389 39.7063 11.1713 41.2217 11.9862C43.2181 12.6061 45.1216 13.4925 46.8809 14.6216C47.8419 15.1901 48.6594 15.9719 49.2701 16.9067C49.3756 17.0909 49.4328 17.2987 49.4364 17.5109C49.4401 17.7231 49.39 17.9328 49.2909 18.1204C49.425 18.08 49.5684 18.0827 49.7009 18.1281C49.8334 18.1735 49.9483 18.2594 50.0295 18.3736C50.3762 18.8001 50.078 19.4728 49.7521 20.0241C49.8145 19.7514 49.8619 19.4844 49.8942 19.2231Z" fill="#B88659"/>
</g>
<g style="mix-blend-mode:multiply">
<path d="M22.9888 12.6693C25.3434 13.7893 27.9406 14.2366 30.4234 14.9787C28.6272 15.159 26.824 14.469 25.0313 14.8712C25.0101 14.8777 24.9912 14.8903 24.977 14.9074C24.9628 14.9244 24.9538 14.9453 24.9513 14.9673C24.9487 14.9894 24.9526 15.0117 24.9625 15.0316C24.9724 15.0515 24.9879 15.068 25.007 15.0793C26.994 16.5114 29.5323 16.5426 31.8764 17.0038C29.4803 16.9136 27.1396 16.2756 24.7885 15.8283C24.7643 15.8219 24.7387 15.8236 24.7155 15.8332C24.6924 15.8428 24.673 15.8597 24.6604 15.8814C24.6478 15.903 24.6427 15.9282 24.6458 15.9531C24.6489 15.9779 24.66 16.0011 24.6776 16.019C25.5376 17.0073 26.7269 17.576 27.9822 17.9921C27.4222 17.8121 26.8366 17.7243 26.2484 17.732C26.2258 17.7327 26.2039 17.7398 26.1853 17.7526C26.1667 17.7654 26.1521 17.7833 26.1433 17.8041C26.1345 17.8249 26.1319 17.8478 26.1358 17.8701C26.1397 17.8923 26.1499 17.913 26.1652 17.9297C27.8678 19.6323 30.4893 19.3757 32.7225 19.7328C31.0095 20.0241 29.2895 19.1711 27.5557 19.4554C27.5389 19.4605 27.5233 19.4692 27.5103 19.4811C27.4973 19.4929 27.4871 19.5075 27.4804 19.5238C27.4738 19.5401 27.4709 19.5577 27.4719 19.5752C27.4729 19.5928 27.4779 19.6099 27.4864 19.6253C28.1799 20.7107 29.723 20.9604 30.9089 21.1233C32.0954 21.3004 33.2955 21.3689 34.4944 21.3279C34.0158 21.4413 33.5287 21.5155 33.038 21.5499C32.0359 21.6053 31.0268 21.5811 30.0281 21.7059C29.9449 21.7059 29.8617 21.8307 29.9484 21.9001C32.0844 23.6339 34.7649 23.4952 37.3067 22.9924C36.5107 23.4414 35.6162 23.6867 34.7025 23.7067C33.6187 23.8253 32.5248 23.8171 31.4429 23.6825C29.456 23.3738 27.15 22.5347 26.2415 20.6171C25.4023 18.859 23.7587 17.5794 23.235 15.6375C23.2024 15.3042 23.0996 14.9816 22.9334 14.6909C22.6652 14.3811 22.3679 14.0978 22.0456 13.8448C21.8515 13.6853 21.6677 13.5258 21.4978 13.3593L21.7336 13.394C21.4076 13.1651 21.5359 12.9709 21.8203 12.7455C22.0401 12.5765 22.2719 12.4235 22.5138 12.2878C22.6379 12.4525 22.8012 12.5837 22.9888 12.6693Z" fill="#B88659"/>
</g>
<g style="mix-blend-mode:multiply">
<path d="M29.6294 18.4741C29.3797 18.4186 29.1335 18.3458 28.8908 18.2729L29.6294 18.4741Z" fill="#B88659"/>
</g>
<g style="mix-blend-mode:screen">
<path d="M49.6898 19.5213C49.6898 19.4416 49.6343 19.3479 49.5476 19.3792C48.653 19.7016 48.1605 20.6102 47.3318 21.0402C47.7652 20.3466 48.3513 19.6254 48.3721 18.7966C48.3723 18.4268 48.2918 18.0614 48.136 17.7259C47.9803 17.3905 47.7532 17.0932 47.4705 16.8547C46.822 16.2714 46.1115 15.7609 45.3518 15.3324C44.3531 14.7291 43.3509 14.1396 42.3072 13.5986C40.0071 12.416 37.5709 11.5193 35.0529 10.9285C34.3975 10.7794 33.7456 10.6442 33.0867 10.5402C34.0681 10.5991 35.046 10.6927 36.0065 10.7794C37.5288 10.9147 39.6926 11.147 41.2079 11.9619C43.2043 12.5818 45.1079 13.4682 46.8671 14.5973C47.8282 15.1658 48.6457 15.9476 49.2563 16.8825C49.3618 17.0666 49.419 17.2744 49.4227 17.4866C49.4263 17.6988 49.3763 17.9085 49.2771 18.0961C49.4112 18.0557 49.5547 18.0584 49.6872 18.1038C49.8197 18.1492 49.9346 18.2351 50.0157 18.3493C50.4908 18.9422 49.7383 20.0137 49.3777 20.5686C49.5039 20.2265 49.6081 19.8767 49.6898 19.5213Z" fill="#B88659"/>
</g>
<g style="mix-blend-mode:multiply">
<path d="M53.4104 10.0338C54.631 7.85961 58.1021 6.74997 58.0431 6.32692C57.8774 5.64258 57.6677 4.96962 57.4155 4.31223C57.7255 4.40984 58.0225 4.54492 58.2998 4.71447H58.22C58.2025 4.71501 58.1853 4.71945 58.1697 4.72748C58.1541 4.7355 58.1405 4.74691 58.1298 4.76087C58.1192 4.77482 58.1118 4.79097 58.1082 4.80814C58.1046 4.82531 58.1049 4.84307 58.109 4.86012C58.4107 5.57792 59.4406 6.44136 58.2859 6.9407C57.5906 7.21531 56.9754 7.66003 56.4966 8.23412C56.4411 8.30694 56.4654 8.43871 56.5798 8.43178C58.5009 8.28613 60.4219 7.96365 62.3465 8.1509C61.6252 8.25146 60.8901 8.20638 60.1653 8.30695C59.1404 8.43398 58.1366 8.69513 57.1797 9.08369C56.6179 9.31949 55.8897 9.62811 55.6262 10.2211C55.605 10.2639 55.5898 10.3094 55.5811 10.3563C55.3037 9.96448 53.237 10.3459 53.4104 10.0338Z" fill="#C89E49"/>
</g>
</svg>
