<svg width="28" height="28" viewBox="0 0 28 28" fill="none" xmlns="http://www.w3.org/2000/svg">
<circle cx="13.6111" cy="13.6111" r="13.1111" fill="white" stroke="#3AB783"/>
<path d="M7.11108 16.324V10.4979C7.12142 10.4677 7.1298 10.4369 7.13617 10.4057C7.22209 9.76793 7.53746 9.18334 8.02325 8.76129C8.50905 8.33925 9.13199 8.10869 9.7755 8.11274C12.711 8.10979 15.6464 8.11078 18.5817 8.11569C18.8115 8.1156 19.0403 8.1441 19.263 8.20054C19.8316 8.34597 20.3355 8.67687 20.6949 9.14088C21.0543 9.60489 21.2486 10.1755 21.2472 10.7624C21.2512 12.4969 21.2512 14.2315 21.2472 15.9662C21.2468 16.1179 21.2381 16.2695 21.2211 16.4203C21.0879 17.6136 20.0159 18.6424 18.8134 18.6966C18.1018 18.7287 17.3877 18.7125 16.6739 18.7136C16.4889 18.7087 16.309 18.7746 16.1711 18.898C15.8081 19.2167 15.4378 19.5251 15.0682 19.8379C14.5263 20.2931 13.8184 20.2879 13.2791 19.8283C12.9217 19.5244 12.5616 19.2234 12.2068 18.9165C12.055 18.7806 11.8571 18.7077 11.6535 18.7128C11.0507 18.7176 10.448 18.7088 9.84595 18.7154C8.46892 18.7309 7.49251 17.8047 7.20921 16.767C7.16863 16.6209 7.14318 16.4715 7.11108 16.324ZM12.4078 12.529H9.64749C9.58773 12.529 9.52761 12.529 9.46822 12.5341C9.31531 12.5469 9.17202 12.614 9.0642 12.7231C8.95638 12.8323 8.89113 12.9764 8.88023 13.1295C8.85367 13.4578 9.05212 13.7533 9.36198 13.8278C9.46574 13.8487 9.57158 13.8575 9.67737 13.854C11.4994 13.8554 13.3213 13.8554 15.143 13.854C15.2169 13.8548 15.2908 13.8517 15.3644 13.8447C15.5215 13.8299 15.6677 13.7578 15.7752 13.6421C15.8826 13.5265 15.9438 13.3755 15.9472 13.2177C15.9601 12.8178 15.6746 12.5319 15.2522 12.5308C14.3035 12.5275 13.3555 12.529 12.4078 12.529ZM17.609 15.1808H16.3806C15.9133 15.1978 15.6167 15.6143 15.7576 16.0551C15.8494 16.3435 16.0933 16.504 16.4585 16.5051C17.2208 16.5073 17.9844 16.5073 18.7492 16.5051C18.8043 16.5105 18.8599 16.506 18.9134 16.4918C19.0351 16.445 19.169 16.4055 19.2678 16.3258C19.4737 16.1602 19.5331 15.8644 19.4412 15.608C19.3982 15.4828 19.3168 15.3744 19.2087 15.2981C19.1006 15.2217 18.9712 15.1814 18.8388 15.1827C18.429 15.1757 18.0196 15.1808 17.6105 15.1808H17.609ZM13.0688 15.1808C12.8575 15.1808 12.6457 15.1786 12.4344 15.1808C12.0375 15.1856 11.7571 15.4494 11.749 15.8216C11.7405 16.2 12.0002 16.4855 12.3956 16.4988C12.8457 16.5132 13.2972 16.5128 13.7472 16.4988C14.1438 16.487 14.4053 16.2037 14.3986 15.8256C14.392 15.4475 14.1128 15.186 13.7173 15.1805C13.5026 15.1775 13.2865 15.1797 13.0703 15.1797L13.0688 15.1808ZM18.3836 12.5304C18.2317 12.5304 18.0797 12.5267 17.9281 12.5304C17.5515 12.5415 17.2792 12.8093 17.2715 13.1715C17.2634 13.5404 17.5157 13.827 17.8912 13.8459C18.2121 13.8621 18.5352 13.8617 18.8562 13.8459C19.2324 13.8274 19.4862 13.5415 19.4792 13.1741C19.4722 12.8067 19.2011 12.5422 18.8248 12.5301C18.6795 12.5256 18.5319 12.5293 18.3851 12.5293L18.3836 12.5304ZM9.64528 16.508C9.70946 16.504 9.77402 16.5029 9.83783 16.4959C10.0024 16.4811 10.155 16.4037 10.2641 16.2796C10.3732 16.1556 10.4306 15.9944 10.4244 15.8293C10.4253 15.6642 10.3627 15.505 10.2494 15.3849C10.1362 15.2648 9.98096 15.1929 9.81607 15.1841C9.70555 15.1761 9.5946 15.1761 9.48408 15.1841C9.38842 15.19 9.29525 15.2169 9.21125 15.263C9.12725 15.3092 9.05452 15.3733 8.9983 15.451C8.94207 15.5286 8.90374 15.6177 8.88607 15.7118C8.86839 15.806 8.87182 15.903 8.89609 15.9957C8.97761 16.3339 9.22771 16.5044 9.64528 16.508Z" fill="#3AB783"/>
</svg>
