<svg width="60" height="50" viewBox="0 0 60 50" fill="none" xmlns="http://www.w3.org/2000/svg">
<path d="M42.9264 18.7343C45.4357 17.6102 45.9785 22.492 44.6145 25.2278C42.9444 28.5782 40.6096 28.1577 40.7143 25.1414" fill="#CC1515"/>
<path d="M29.6876 31.421C25.231 35.0093 23.8021 42.0244 24.2996 42.9403C24.7971 43.8562 30.1547 32.9707 30.1547 32.9707C25.9014 39.8883 25.0417 47.0355 25.5735 49.9705C27.9292 49.2327 30.608 35.7978 31.4468 33.3931C28.6375 41.7681 28.0296 45.213 29.1166 46.2253C32.4424 43.3084 32.6231 31.4305 32.6231 28.868" fill="#20255F"/>
<path d="M32.0313 30.5319C30.6339 33.3708 30.3413 41.4192 31.5265 41.5451C32.7117 41.671 32.9692 33.6503 32.9692 33.6503C32.9692 33.6503 32.1915 38.929 33.6238 39.5388C34.5495 38.929 34.2239 33.2591 33.5751 30.9113" fill="#910921"/>
<path d="M32.8682 13.4879C32.2432 15.3258 27.6131 18.8744 27.4962 25.9858C27.3931 32.2842 32.4194 32.7978 39.3746 30.0424C46.3299 27.2871 44.3804 18.7017 41.5512 15.2303" fill="#910921"/>
<path d="M36.1687 22.6849C35.5426 24.6519 33.4981 29.3922 34.2263 30.2614C34.9546 31.1305 39.6161 30.4189 42.0716 28.0412C43.9514 26.2214 44.0863 22.8656 43.9132 21.8465C43.7401 22.823 43.1801 21.6765 43.1801 21.6765C43.1221 23.0777 42.256 24.1405 41.6794 22.484C41.5559 24.4366 39.1619 25.2007 38.7929 22.0587C38.0225 23.9192 36.1687 22.6849 36.1687 22.6849Z" fill="#AF0E2D"/>
<path d="M27.506 28.5645C24.9699 30.1079 22.0327 29.8113 22.0327 29.0426C22.0327 28.5114 25.101 28.4239 27.0911 26.3435C27.8844 25.6609 28.956 26.7233 28.4341 27.7134C27.9122 28.7036 27.506 28.5645 27.506 28.5645Z" fill="#20255F"/>
<path d="M28.7498 28.3932C27.4224 31.3831 25.4755 31.6397 25.7445 32.3239C26.0134 33.0081 29.9938 31.6406 31.3205 28.6505" fill="#20255F"/>
<path d="M30.0058 28.6657C28.2701 31.5624 22.4838 32.8752 21.2189 30.7525C22.97 30.5341 25.6942 29.9685 27.5428 27.4013C28.8471 26.1138 30.4262 27.9642 30.0058 28.6657Z" fill="#20255F"/>
<path d="M34.0644 24.867C33.2097 31.2223 27.9625 32.5873 29.5245 30.2791C26.9242 32.1716 27.0333 29.9342 28.7504 28.3932C26.192 29.7763 24.55 27.9317 27.4728 26.7361C25.5483 27.4388 24.9077 26.1538 27.1923 25.1507C28.5869 23.5794 29.2264 21.5323 32.1687 21.7141C35.111 21.8959 34.0644 24.867 34.0644 24.867Z" fill="#EF9300"/>
<path d="M31.898 17.2965C29.5123 16.8427 27.1183 19.4861 26.7004 23.2143C26.3469 26.3684 27.8572 25.3207 28.737 23.5275C26.9219 28.3117 29.7412 27.3714 31.0681 24.6376C29.9071 27.7984 31.8136 27.5421 32.3173 25.15C32.8921 27.7984 34.8548 26.9774 35.3721 22.6729C35.8344 18.8201 33.9076 17.6787 31.898 17.2965Z" fill="#CC1515"/>
<path d="M32.8427 16.4933C30.4194 16.104 27.6265 19.0832 26.941 21.8948C26.2797 24.6062 27.6098 23.7923 29.0956 21.6691C28.3299 23.3675 28.1551 25.1584 28.5977 25.5147C29.0956 25.915 30.3699 24.8749 31.6358 22.603C31.1485 23.9071 30.3695 25.5549 31.0292 25.8089C31.6889 26.063 32.2335 22.7943 32.2335 22.7943C32.3985 24.2377 32.3634 24.9819 32.9245 25.0443C34.0652 25.1717 35.0685 20.1176 34.5914 18.6514C34.5574 20.293 33.2502 21.4819 33.2502 21.4819C33.9799 19.3478 34.2728 16.7228 32.8427 16.4933Z" fill="#E82A2A"/>
<path d="M32.4076 16.5638C30.7111 16.2055 26.8691 19.5199 29.6188 20.3475C32.3685 21.1752 34.4067 16.9857 32.4076 16.5638Z" fill="#FF3939"/>
<path d="M30.3848 20.8766C29.4411 20.6848 28.5166 22.9712 29.4784 23.1976C30.4401 23.424 32.3357 21.273 30.3848 20.8766Z" fill="#FF3939"/>
<path d="M28.9279 19.4962C28.3235 19.6311 26.8674 21.3808 27.746 21.839C28.6246 22.2973 30.3393 19.7861 29.0703 19.4962" fill="#FF3939"/>
<path d="M33.3351 18.4704C32.8725 18.3169 32.3635 19.6771 32.8854 19.838C33.4073 19.9989 33.7973 18.6238 33.3351 18.4704Z" fill="#FF3939"/>
<path d="M32.3177 20.6954C31.9793 20.7207 31.4324 21.6128 31.9804 21.7258C32.5285 21.8388 32.849 20.6559 32.3177 20.6954Z" fill="#FF3939"/>
<path d="M33.3349 27.0828C32.5349 29.5453 30.4127 31.2649 29.3824 30.9464C29.6299 30.0123 31.34 29.1208 32.4321 26.7007C32.5971 26.8069 32.3658 28.1412 31.2331 29.5241C32.3087 28.6112 32.9393 26.8069 33.3349 27.0828Z" fill="#FFC41F"/>
<path d="M31.4641 27.2458C30.9136 29.0225 28.4989 31.6606 27.1771 30.9935C26.9513 29.7223 29.3078 28.0159 30.1528 26.3113C30.0292 26.8995 30.6398 27.2458 30.6398 27.2458C30.4336 27.9954 28.2083 30.2459 28.2083 30.2459C29.7332 29.609 30.9076 27.4012 30.9076 27.4012C31.1014 27.3856 31.2903 27.3329 31.4641 27.2458Z" fill="#FFC41F"/>
<path d="M29.2793 27.2458C28.3651 28.5799 25.9676 28.8945 25.9336 28.0205C25.8996 27.1465 27.5926 27.0102 27.9519 26.5159C27.8165 26.8915 28.0139 27.0697 28.0139 27.0697C27.5424 27.4012 26.4769 27.925 26.4769 27.925C27.2393 28.0172 28.3109 27.2462 28.3109 27.2462C28.7646 27.2746 29.2793 27.2458 29.2793 27.2458Z" fill="#FFC41F"/>
<path d="M27.8506 26.0709C27.4035 26.8704 25.6619 26.8704 25.781 26.3395C25.9001 25.8087 27.0255 25.618 27.6064 25.2782C27.6721 25.4904 27.6064 25.7026 27.6064 25.7026C27.3422 26 26.3945 26.2973 26.3945 26.2973C26.9302 26.4034 27.8506 26.0709 27.8506 26.0709Z" fill="#FFC41F"/>
<path d="M25.6461 27.7134C24.2031 28.3503 22.0605 28.7448 22.033 29.0418C22.0056 29.3388 23.8576 29.4003 25.775 28.7048C25.4123 28.406 25.6461 27.7134 25.6461 27.7134Z" fill="#1B65BC"/>
<path d="M25.3029 29.7223C24.1764 30.5854 21.5207 30.8598 20.8796 30.5159C20.7876 31.474 25.0007 31.9448 27.3086 29.7223C26.8414 29.8209 26.5116 29.7223 26.5116 29.7223C26.0172 30.3306 24.263 30.6418 24.263 30.6418C24.8358 30.3863 25.3029 29.7223 25.3029 29.7223Z" fill="#1B65BC"/>
<path d="M27.2416 32.254C26.3506 32.874 25.554 33.3481 25.7739 33.546C25.9937 33.744 27.3922 33.312 28.4105 32.4833C27.6129 32.8156 27.2416 32.254 27.2416 32.254Z" fill="#1B65BC"/>
<path d="M32.4746 32.9246C31.8827 31.8328 30.0016 40.9572 31.555 41.0471C32.1793 40.6281 32.993 33.8822 32.4746 32.9246Z" fill="#CC1515"/>
<path d="M33.6394 32.9535C33.1627 33.0419 32.2477 38.9295 33.6394 38.9295C35.0312 38.9295 33.6394 32.9535 33.6394 32.9535Z" fill="#CC1515"/>
<path d="M28.8034 33.0987C26.953 35.3066 24.3557 38.6594 24.3017 41.9718C25.7133 41.236 28.1557 35.6435 28.8034 33.0987Z" fill="#1B5B9B"/>
<path d="M29.5115 33.905C27.9659 36.1616 24.2019 47.0191 25.9208 48.5292C27.4327 46.6424 29.5115 33.905 29.5115 33.905Z" fill="#1B5B9B"/>
<path d="M30.4574 37.4318C29.8262 39.3754 28.6956 45.6378 29.3769 45.5461C30.0582 45.4544 30.9527 42.3123 30.9527 42.3123C30.0995 41.9726 30.4574 37.4318 30.4574 37.4318Z" fill="#1B5B9B"/>
<path d="M39.9076 25.4141C38.7195 25.8327 35.3722 30.097 38.7526 29.6661C42.1329 29.2351 43.3401 26.3904 43.0663 25.6261C42.7924 24.8618 41.5972 24.8196 39.9076 25.4141Z" fill="#BC0F39"/>
<path d="M37.5788 25.3714C36.7587 25.7738 36.9402 27.6462 37.8481 26.9774C38.756 26.3086 38.8767 24.7347 37.5788 25.3714Z" fill="#BC0F39"/>
<path d="M42.7087 23.9281C41.8857 24.0555 41.1133 24.9471 42.2208 25.0318C43.3284 25.1164 43.5319 23.8007 42.7087 23.9281Z" fill="#BC0F39"/>
<path d="M39.8255 24.4776C39.1659 24.6497 39.2896 25.3714 39.9078 25.414C40.5261 25.4566 40.4848 24.3054 39.8255 24.4776Z" fill="#BC0F39"/>
<path d="M40.4564 3.86758C39.3045 3.61408 37.1061 1.44272 39.1774 0.0240101C36.931 -0.302459 35.577 2.79318 36.6084 3.67232C35.1719 3.04904 35.1582 2.4294 35.6159 1.70695C34.0041 2.18883 34.1007 4.39604 35.147 5.01896C34.2834 4.59131 32.83 5.35689 32.6775 6.6877C33.1502 6.21237 34.0674 6.6917 34.0674 6.6917C32.9297 8.34316 32.7902 10.5029 33.3284 11.7154" fill="#CC1515"/>
<path d="M43.1483 14.991C42.0894 15.7764 42.9173 18.1787 42.9012 19.4717C42.881 21.1011 41.6347 22.0034 41.4543 20.6509C41.0601 22.6856 39.6919 22.3797 39.6443 20.5053C38.1909 23.473 36.3229 21.1825 37.2655 18.8557C34.8493 20.4998 34.2489 18.3097 36.0818 16.6767C34.3869 19.2358 33.1906 17.259 33.9034 15.0871C33.9034 15.0871 31.8472 16.1686 31.3508 15.6623C30.644 14.9419 32.4743 14.173 32.6782 12.1823C32.7551 11.4308 32.6782 8.44613 34.0681 6.69095" fill="#CC1515"/>
<path d="M34.1653 11.2549C33.2339 6.92383 37.0834 2.52122 42.4884 3.86787C47.7526 5.17957 47.9568 10.4737 48.1715 12.3823C49.1272 15.1101 46.809 17.3941 43.1041 16.7103C39.6696 16.0755 35.1061 15.6319 34.1653 11.2549Z" fill="#CC1515"/>
<path d="M42.1616 4.08542C39.5722 3.84066 36.1628 6.5172 36.0006 8.84471C35.6657 9.55024 34.3432 12.9975 37.7759 14.5916C41.3719 16.2618 43.9432 16.7025 46.5347 15.662C48.8229 14.7435 48.2076 13.1905 47.9838 12.2695C48.0127 6.80054 45.5504 4.40607 42.1616 4.08542Z" fill="#E82A2A"/>
<path d="M48.1707 12.463C47.8397 11.817 45.7613 12.9584 46.4614 14.1826C47.1615 15.4067 48.7605 13.6161 48.1707 12.463Z" fill="#F45671"/>
<path d="M36.4656 11.271C37.4575 10.2373 39.8057 12.8474 38.7749 13.4858C37.744 14.1242 35.3404 12.4434 36.4656 11.271Z" fill="#F45671"/>
<path d="M42.9576 4.49452C38.676 3.99263 38.0662 9.95534 43.1781 11.0543C48.2901 12.1533 47.9742 5.08286 42.9576 4.49452Z" fill="#FF3939"/>
<path d="M38.6075 0.174255C37.5068 0.21611 35.7981 3.80709 39.2199 3.34705C38.1896 2.83023 38.2766 0.805539 38.6075 0.174255Z" fill="#E82A2A"/>
<path d="M35.2201 2.23257C34.4858 2.79671 35.197 5.81118 36.4609 3.96355C35.5228 3.71898 35.2201 2.23257 35.2201 2.23257Z" fill="#E82A2A"/>
<path d="M39.2053 18.2757C38.6131 17.9399 36.3072 21.483 37.8852 21.8425C39.4632 22.2019 40.192 18.8367 39.2053 18.2757Z" fill="#D82323"/>
<path d="M41.0882 18.3075C40.4753 18.0187 39.5095 21.6705 40.67 21.6801C41.4403 21.6867 41.6999 18.5972 41.0882 18.3075Z" fill="#D82323"/>
<path d="M35.1373 5.31814C34.0991 4.71597 33.4099 4.81024 32.9948 6.38381C33.7414 5.45936 34.7698 6.12249 35.1373 5.31814Z" fill="#E82A2A"/>
<path d="M37.2469 16.6958C36.7806 16.4387 34.4102 18.0951 35.2378 19.051C36.0653 20.0069 37.7122 16.9537 37.2469 16.6958Z" fill="#D82323"/>
<path d="M47.1819 7.64995C46.7517 6.8456 45.2084 7.10146 45.3899 10.6224C45.8469 13.4323 47.5592 12.3876 48.1071 11.7614C48.0849 9.57637 47.4181 8.17841 47.1819 7.64995Z" fill="#E8E3BA"/>
<path d="M42.4398 10.8133C43.0437 8.20813 41.4016 5.73613 39.2214 6.38889C36.3289 7.2562 35.5119 11.4999 40.9231 12.9529" fill="#E8E3BA"/>
<path d="M39.6201 7.50242C37.8523 8.07383 37.7836 11.6735 40.058 11.5733C43.0092 11.441 41.4841 6.89952 39.6201 7.50242Z" fill="#F7AAC8"/>
<path d="M39.4861 7.78865C38.1333 8.38754 37.7223 11.7347 39.8316 11.554C42.5699 11.3161 41.1599 7.04872 39.4861 7.78865Z" fill="#E3DBE6"/>
<path d="M39.4994 8.25783C38.1158 8.74644 38.3391 11.7656 40.2233 11.4164C42.2533 11.0388 41.1949 7.66112 39.4994 8.25783Z" fill="#709DE5"/>
<path d="M39.4565 8.77197C38.3451 9.16286 38.4289 11.716 40.0362 11.306C41.6434 10.896 40.8164 8.29428 39.4565 8.77197Z" fill="#000066"/>
<path d="M41.1009 8.83898C40.6805 8.44191 40.345 9.51485 40.5008 9.68755C40.6566 9.86025 41.4893 9.20221 41.1009 8.83898Z" fill="#E3DBE6"/>
<path d="M39.3811 10.1369C39.1975 10.1573 39.1873 10.5571 39.432 10.4885C39.6768 10.4199 39.5873 10.1158 39.3811 10.1369Z" fill="#E3DBE6"/>
<path d="M46.8592 7.88775C48.158 8.22441 48.4255 12.0199 46.8057 11.6729C44.8331 11.2516 45.4046 7.51178 46.8592 7.88775Z" fill="#F7AAC8"/>
<path d="M46.8194 8.11476C48.1468 8.43741 48.3266 11.9909 46.7575 11.6562C44.8466 11.2479 45.4052 7.77137 46.8194 8.11476Z" fill="#E3DBE6"/>
<path d="M46.2568 8.45792C45.1005 8.65172 45.2021 11.6702 46.5997 11.6282C48.2543 11.5805 47.6717 8.22262 46.2568 8.45792Z" fill="#709DE5"/>
<path d="M46.099 8.72503C45.1407 8.88371 45.2262 11.3886 46.385 11.3546C47.7568 11.3135 47.2726 8.53067 46.099 8.72503Z" fill="#000066"/>
<path d="M47.459 9.02297C47.1317 8.62643 46.723 9.6537 46.8428 9.84187C46.9626 10.03 47.7734 9.40694 47.459 9.02297Z" fill="#E3DBE6"/>
<path d="M45.9927 9.88399C45.8343 9.87762 45.7945 10.2554 46.0076 10.225C46.2207 10.1946 46.1709 9.89236 45.9927 9.88399Z" fill="#E3DBE6"/>
<path d="M44.2474 15.8949C44.2474 15.8949 42.8762 17.6111 41.8816 17.3032C40.2833 16.8092 39.2921 13.8566 40.0598 12.1813C40.8962 10.356 43.2055 9.12275 44.6677 9.42811C47.329 9.98387 48.038 14.6494 44.9973 17.3061C44.6024 16.887 44.2474 15.8949 44.2474 15.8949Z" fill="#EF9300"/>
<path d="M41.2955 14.7689C41.2046 15.606 41.5468 16.2807 42.0809 16.615C42.5215 16.8909 43.2484 16.4784 43.2484 16.4784C42.5085 16.4216 41.659 15.8367 41.2955 14.7689Z" fill="#FFC41F"/>
<path d="M40.9954 12.1856C40.3555 12.1153 40.4837 13.1118 41.2643 14.0207C42.0449 14.9295 43.4682 14.8951 44.7541 16.1627C44.1722 15.0295 41.9953 14.8441 41.3445 13.8259C40.617 12.6858 41.3929 12.2307 40.9954 12.1856Z" fill="#BC5108"/>
<path d="M41.4073 13.901C41.6618 15.4955 42.4775 16.1668 43.0438 16.3059C43.5529 16.4305 43.9722 15.6129 43.9722 15.6129C43.496 15.0311 41.4073 13.901 41.4073 13.901Z" fill="#660014"/>
<path d="M41.9849 14.0054C42.5317 14.0319 43.1502 15.102 42.4695 15.6614C41.8273 15.2628 41.2954 13.9137 41.9849 14.0054Z" fill="#DB3A5D"/>
<path d="M41.3008 11.8963C40.8462 12.7674 40.9059 14.0049 42.4213 14.6915C43.9367 15.3781 43.1216 17.6446 43.5458 18.0399C43.97 18.4351 45.7605 17.295 46.3279 16.2747C47.0308 15.0087 47.6964 11.2856 45.7882 10.0785C43.88 8.87144 41.7265 11.0812 41.3008 11.8963Z" fill="#EF9300"/>
<path d="M45.0288 9.87566C43.4785 9.40852 41.8436 10.5854 41.5448 12.1793C41.3645 13.1396 42.654 14.0694 43.3012 14.6854C44.0585 15.4047 43.8396 17.1475 44.3769 17.4696C44.8901 17.779 46.1249 16.186 46.4273 15.4624C47.0617 13.9449 47.2914 10.5579 45.0288 9.87566Z" fill="#FFC41F"/>
<path d="M46.1207 11.4767C47.13 12.3937 46.7845 15.329 45.4853 16.5639C46.7635 14.8699 45.5481 11.3342 46.1207 11.4767Z" fill="#FFE655"/>
<path d="M44.2349 19.0011C44.8701 18.6735 46.1857 22.4687 44.6311 24.6242C44.9314 22.7515 43.5521 19.353 44.2349 19.0011Z" fill="#E82A2A"/>
<path d="M51.135 34.3535C50.6977 31.7512 54.0889 29.9948 55.2478 31.5272C56.6197 33.3404 53.4005 32.8962 51.135 34.3535Z" fill="#2BA537"/>
<path d="M10.9936 26.2406C12.2632 23.8648 14.8731 24.621 14.9418 25.9407C15.0105 27.2604 11.5151 25.5318 10.9936 26.2406Z" fill="#2BA537"/>
<path d="M0 30.2344C1.9231 30.2344 9.7113 30.6029 10.2306 30.4188C10.7499 30.2346 10.3141 28.5713 9.9706 27.3686C9.62711 26.1659 12.718 22.2732 13.2673 20.9293C12.649 23.0521 10.6307 26.1656 11.3862 27.793C12.1417 29.4204 12.9243 30.6934 13.9544 31.1178C14.9845 31.5421 44.2654 30.1456 53.3993 35.2787C47.4937 33.2651 28.7282 32.6487 21.1153 34.7539C19.6044 35.6738 24.8337 40.7293 24.8337 40.7293C21.7425 38.1816 19.649 35.8663 17.7261 35.5127C15.8032 35.1591 0 37.3669 0 37.3669" fill="#BC532E"/>
<path d="M45.7752 33.0322C48.0735 33.4637 49.1448 36.6247 49.4196 38.5116C48.8701 36.6718 46.2738 33.9428 44.4129 33.0901" fill="#BC532E"/>
<path d="M51.6788 34.4247C55.3626 32.6269 61.1734 35.4901 59.5109 38.6884C57.8483 41.8867 52.7235 34.6924 51.6788 34.4247Z" fill="#2BA537"/>
<path d="M21.4563 37.1823C21.8516 38.5211 18.7652 40.3884 20.6101 42.9554C22.455 45.5224 23.964 39.8037 21.4563 37.1823Z" fill="#2BA537"/>
<path d="M51.371 34.4825C53.8242 36.1224 54.3302 39.951 51.7723 39.5374C49.2145 39.1237 52.5126 36.58 51.371 34.4825Z" fill="#2BA537"/>
<path d="M12.9676 21.6165C13.2007 20.9996 9.69962 18.6474 11.0505 17.5176C12.4013 16.3879 14.0991 18.4053 13.1627 21.2939C13.8746 19.9367 15.5176 17.3178 17.1631 18.5529C19.1893 20.0732 13.8493 20.9294 13.3627 21.4749C15.7378 21.0462 16.5759 23.3621 15.2914 23.5051C14.1799 23.629 14.0371 21.5619 12.9676 21.6165Z" fill="#2BA537"/>
<path d="M10.259 27.6636C9.85009 26.0622 6.34957 23.863 5.45003 25.614C4.28283 27.884 9.78136 27.0239 10.259 27.6636Z" fill="#2BA537"/>
<path d="M23.2183 39.0303C26.47 39.7219 29.8602 43.1551 27.293 45.0997C24.7259 47.0443 24.7673 41.4971 23.2183 39.0303Z" fill="#2BA537"/>
<path d="M21.7786 37.3794C23.31 37.9215 25.9255 35.9104 26.5383 37.4605C27.3353 39.4768 23.2366 39.496 21.7786 37.3794Z" fill="#2BA537"/>
<path d="M48.4076 36.4209C48.3315 36.0177 46.5093 37.4053 47.1479 38.702C47.7865 39.9988 48.7497 38.2296 48.4076 36.4209Z" fill="#2BA537"/>
<path d="M49.1439 37.5295C49.4819 39.0906 47.5324 40.8434 49.0575 42.0905C50.5825 43.3376 50.9908 39.6782 49.1439 37.5295Z" fill="#2BA537"/>
<path d="M0.283129 30.5403C-0.132911 30.7345 0.456055 32.5095 0.456055 32.5095L10.9065 32.7759C10.9065 32.7759 0.155481 33.0595 0.0691087 34.1144C0.0523798 34.3215 3.38997 35.0803 4.35189 35.0918C8.28899 35.1378 15.6708 33.4105 17.7132 33.636C19.1564 33.7957 22.1067 38.127 22.4789 38.2375C22.8511 38.3479 19.9765 35.0008 20.3722 33.575C20.9784 32.6469 44.1776 32.0475 50.6296 34.1138C44.9158 31.4054 14.4687 31.1962 13.7824 30.9769C13.0962 30.7576 11.1822 28.5384 11.0913 27.1239C11.0003 25.7093 12.1312 23.1145 12.1312 23.1145C12.1312 23.1145 10.2174 26.101 10.4174 27.1633C10.6174 28.2257 11.4608 30.5167 11.292 30.6954C10.8983 31.1114 1.09757 30.1602 0.283129 30.5403Z" fill="#DD713A"/>
<path d="M0.402512 36.5587C0.402512 36.5587 16.3959 34.2246 17.704 34.2821C19.0121 34.3396 20.017 36.1991 20.017 36.1991C20.017 36.1991 18.835 35.2528 17.5076 35.1212C16.1802 34.9897 0.402512 36.5587 0.402512 36.5587Z" fill="#A83F2D"/>
<path d="M46.4159 33.5527C47.4104 33.3426 48.6525 35.3329 49.0021 36.8602C48.2223 35.3349 45.58 33.73 46.4159 33.5527Z" fill="#DD713A"/>
<path d="M18.8514 31.4783C16.5477 31.3596 13.7582 32.1836 18.846 32.2396C29.5986 32.3576 28.3343 31.9669 18.8514 31.4783Z" fill="#F98E5F"/>
<path d="M52.9826 34.3535C55.7718 32.8522 60.3833 35.5264 59.3547 37.7993C58.5955 39.4761 55.4399 37.5349 53.811 34.9541C54.8686 34.9541 56.9303 35.6798 57.7831 36.3477C56.9643 34.9639 54.1785 34.3535 52.9826 34.3535Z" fill="#3AC144"/>
<path d="M51.4328 33.0868C50.9829 32.3361 53.6855 30.2843 54.9913 31.267C56.297 32.2497 53.2758 33.5069 51.883 33.551C52.3543 32.5796 53.6188 31.7549 53.6188 31.7549C52.483 32.071 51.4328 33.0868 51.4328 33.0868Z" fill="#3AC144"/>
<path d="M52.072 36.0068C51.3265 36.4868 50.6402 39.3422 52.4188 39.3166C54.1973 39.2909 53.3825 36.5674 52.6973 35.9531C52.5473 36.0233 52.9545 36.7319 52.5046 38.2655C52.5046 37.2597 52.072 36.0068 52.072 36.0068Z" fill="#3AC144"/>
<path d="M47.7462 36.9333C46.9304 37.1517 46.5449 38.3846 47.4876 38.8306C48.4302 39.2766 48.5126 37.6325 48.1326 37.1526C47.7662 37.2851 47.4876 38.3227 47.4876 38.3227C47.4028 37.6161 47.7462 36.9333 47.7462 36.9333Z" fill="#3AC144"/>
<path d="M49.7162 38.9066C50.7227 39.527 50.6009 42.0983 49.4193 41.988C48.2377 41.8778 48.259 39.5346 49.3091 38.9066C49.6728 39.3384 49.6948 40.884 49.6948 40.884C49.9521 40.1555 49.7162 38.9066 49.7162 38.9066Z" fill="#3AC144"/>
<path d="M21.5794 39.0374C20.6156 38.9408 19.5428 41.9672 21.3223 43.0262C23.1017 44.0851 22.9951 40.1127 22.5871 39.3169C22.2436 39.1397 21.6014 41.7865 21.6014 41.7865C21.7721 40.3096 21.8579 39.156 21.5794 39.0374Z" fill="#3AC144"/>
<path d="M25.1795 39.9156C27.0653 40.2876 28.9874 42.8932 27.6192 44.3503C26.2511 45.8074 23.9025 42.5749 24.648 40.4046C25.8438 41.0597 26.7009 42.937 26.7009 42.937C26.7439 41.6124 25.1795 39.9156 25.1795 39.9156Z" fill="#3AC144"/>
<path d="M23.7868 38.2787C25.1798 39.515 26.9453 38.9194 26.7804 37.7489C26.6154 36.5785 24.5305 36.8533 23.7868 37.7489C24.8798 38.146 26.1656 38.0448 26.1656 38.0448C25.5441 38.4994 23.7868 38.2787 23.7868 38.2787Z" fill="#3AC144"/>
<path d="M14.129 20.3355C13.7653 19.1526 16.2772 17.5876 17.1639 18.5521C17.8772 19.329 16.1218 20.4827 14.4994 20.6787C14.6527 20.1486 15.6466 19.2338 16.2269 19.018C15.2624 19.0362 14.129 20.3355 14.129 20.3355Z" fill="#3AC144"/>
<path d="M11.6794 17.3386C12.8695 17.1541 13.8154 18.524 13.1963 20.2448C12.8541 18.6989 11.9994 18.0154 11.9994 18.0154C12.5918 18.8525 12.7913 20.3545 12.7913 20.3545C11.4721 20.1309 10.15 17.5752 11.6794 17.3386Z" fill="#3AC144"/>
<path d="M14.2381 21.527C14.9173 21.3604 16.3962 22.7281 15.6825 23.2762C14.9688 23.8243 13.9334 22.2015 14.065 21.8828C14.1967 21.5642 15.0179 22.1996 15.2051 22.6613C15.2862 22.1083 14.2381 21.527 14.2381 21.527Z" fill="#3AC144"/>
<path d="M12.0175 25.2656C13.1069 24.2798 14.9985 24.6383 14.7902 25.7608C14.5818 26.8832 12.5847 26.0945 12.1917 25.8518C12.3974 25.5768 13.4948 25.1543 14.0526 25.4574C13.5222 24.9419 12.0175 25.2656 12.0175 25.2656Z" fill="#3AC144"/>
<path d="M9.28199 26.5345C9.13489 25.2754 6.10696 24.2691 5.44944 25.6141C4.79192 26.9591 8.05878 27.5294 9.04597 26.835C8.13388 26.1098 6.51445 25.776 6.42608 25.776C7.32416 25.564 9.28199 26.5345 9.28199 26.5345Z" fill="#3AC144"/>
<path d="M57.6974 36.4645C56.6831 35.9018 56.3831 36.5713 57.2688 37.2834C58.1546 37.9955 59.1834 37.2892 57.6974 36.4645Z" fill="#5FE065"/>
<path d="M54.7542 31.2739C53.7541 30.8124 53.1478 31.8156 54.0685 32.0928C54.9891 32.3699 56.0397 31.868 54.7542 31.2739Z" fill="#5FE065"/>
<path d="M27.6965 42.7754C27.4613 41.2004 26.6069 41.3924 26.8353 42.3432C27.0637 43.2941 27.8456 43.7741 27.6965 42.7754Z" fill="#5FE065"/>
<path d="M35.7675 31.3144C35.6868 30.3734 37.3298 30.2136 38.8769 30.9299C40.424 31.6462 40.7851 33.251 40.051 33.4121C39.3169 33.5731 39.5659 32.4609 39.1404 32.1113C39.8059 32.5504 39.5021 33.6989 38.7663 33.5884C38.0421 33.4792 38.3523 32.6991 37.4893 32.0687C36.8383 31.5918 35.781 31.6575 35.7675 31.3144Z" fill="#EF9300"/>
<path d="M40.0088 31.7492C40.4768 32.4105 40.5967 33.0286 40.1232 33.1708C39.8089 33.2654 39.6777 32.0518 39.3343 31.9011C38.991 31.7504 39.2876 32.1266 39.4096 32.4081C39.5316 32.6896 39.4625 33.3164 39.0078 33.2587C38.5863 33.2055 38.4828 31.9648 37.8782 31.5721C36.5119 30.6844 37.7402 30.4227 38.5646 30.7423C39.1361 30.9641 39.7004 31.3124 40.0088 31.7492Z" fill="#FFC41F"/>
<path d="M40.3361 32.8796C40.4923 33.107 40.349 33.7398 39.9277 33.7325C40.0263 33.6202 39.8466 33.1866 39.8332 33.0079C39.859 32.7917 40.2447 32.7462 40.3361 32.8796Z" fill="#BCB6A7"/>
<path d="M39.2242 32.9312C39.3801 33.1598 39.2375 33.792 38.8162 33.7845C38.9144 33.6726 38.7349 33.2386 38.7211 33.0595C38.7471 32.8431 39.133 32.7974 39.2242 32.9312Z" fill="#BCB6A7"/>
<path d="M40.2647 32.9846C40.4648 32.9895 40.4102 33.419 40.208 33.5123C40.0058 33.6057 39.9114 32.9759 40.2647 32.9846Z" fill="#E5DFD1"/>
<path d="M39.1619 33.0453C39.362 33.0506 39.3074 33.4803 39.1054 33.5731C38.9034 33.6659 38.809 33.0373 39.1619 33.0453Z" fill="#E5DFD1"/>
<path d="M32.588 31.2998C32.5824 30.2165 34.36 30.0649 35.961 30.9193C37.5621 31.7736 37.8109 33.626 37.0088 33.7967C36.2067 33.9674 36.5687 32.6939 36.1418 32.2832C36.8182 32.8015 36.3936 34.1159 35.613 33.9747C34.8448 33.8349 35.245 32.9438 34.3722 32.2018C33.7137 31.6404 32.5729 31.6947 32.588 31.2998Z" fill="#EF9300"/>
<path d="M37.1053 31.8837C37.5512 32.6534 37.6265 33.3668 37.1053 33.5215C36.7598 33.6237 36.7235 32.226 36.3673 32.0458C36.011 31.8656 36.2974 32.3042 36.4036 32.6305C36.5098 32.9568 36.3827 33.6756 35.8994 33.6001C35.4512 33.5309 35.4466 32.1022 34.8311 31.6387C33.4402 30.5905 34.7817 30.3141 35.6394 30.6979C36.2356 30.9638 36.8117 31.3758 37.1053 31.8837Z" fill="#FFC41F"/>
<path d="M37.3588 33.1906C37.5068 33.4554 37.2992 34.1796 36.8475 34.1634C36.9628 34.0361 36.8071 33.5345 36.8077 33.3282C36.8542 33.0798 37.2723 33.035 37.3588 33.1906Z" fill="#BCB6A7"/>
<path d="M36.1616 33.2277C36.3096 33.4934 36.1019 34.2175 35.6502 34.2007C35.7655 34.0733 35.6097 33.5716 35.6104 33.3654C35.6571 33.1172 36.0745 33.0719 36.1616 33.2277Z" fill="#BCB6A7"/>
<path d="M37.2743 33.3092C37.489 33.3189 37.3926 33.8119 37.1681 33.9141C36.9435 34.0164 36.8951 33.2927 37.2743 33.3092Z" fill="#E5DFD1"/>
<path d="M36.0842 33.3577C36.2991 33.3677 36.2024 33.8605 35.9778 33.9637C35.7532 34.0669 35.7058 33.3413 36.0842 33.3577Z" fill="#E5DFD1"/>
</svg>
