<svg width="28" height="28" class="rounded-5" viewBox="0 0 28 28" fill="none" xmlns="http://www.w3.org/2000/svg">
<circle cx="13.6111" cy="13.6111" r="13.1111" fill="#EFF0F0" stroke="#FF6F60"/>
<g clip-path="url(#clip0_235_318)">
<path d="M7.57642 11.6516H10.9554L14.7429 8.25583C14.8392 8.18146 14.956 8.13345 15.0801 8.11721C15.2043 8.10098 15.3309 8.11716 15.4456 8.16392C15.5604 8.21069 15.6588 8.2862 15.7297 8.38194C15.8007 8.47769 15.8413 8.58987 15.8472 8.70587V19.5069C15.8413 19.6229 15.8007 19.7351 15.7297 19.8309C15.6588 19.9266 15.5604 20.0021 15.4456 20.0489C15.3309 20.0957 15.2043 20.1118 15.0801 20.0956C14.956 20.0794 14.8392 20.0314 14.7429 19.957L10.9775 16.4384H7.57642V11.6516Z" fill="#FF6F60"/>
<path d="M19.6458 14.1473C19.6458 14.5095 19.5686 14.8681 19.4186 15.2026C19.2687 15.5371 19.0489 15.8408 18.7719 16.0965C18.4949 16.3521 18.1661 16.5545 17.8045 16.6922C17.4428 16.8299 17.0553 16.9001 16.6643 16.8987V11.3959C17.0553 11.3945 17.4428 11.4647 17.8045 11.6024C18.1661 11.7401 18.4949 11.9425 18.7719 12.1981C19.0489 12.4538 19.2687 12.7575 19.4186 13.092C19.5686 13.4265 19.6458 13.7851 19.6458 14.1473Z" fill="#FF6F60"/>
</g>
<defs>
<clipPath id="clip0_235_318">
<rect width="13" height="13" fill="black" transform="translate(7.11108 7.11108)"/>
</clipPath>
</defs>
</svg>
