<svg width="24" height="24" viewBox="0 0 24 24" fill="none" xmlns="http://www.w3.org/2000/svg">
<circle cx="12" cy="12" r="11.5" fill="white" stroke="#00A6DC"/>
<g clip-path="url(#clip0_43_5873)">
<path d="M6.67969 10.2724H9.65871L12.9979 7.2786C13.0828 7.21303 13.1858 7.1707 13.2952 7.15639C13.4047 7.14207 13.5163 7.15634 13.6174 7.19757C13.7186 7.2388 13.8053 7.30537 13.8679 7.38978C13.9304 7.47419 13.9663 7.5731 13.9715 7.67537V17.1979C13.9663 17.3002 13.9304 17.3991 13.8679 17.4835C13.8053 17.5679 13.7186 17.6345 13.6174 17.6757C13.5163 17.717 13.4047 17.7312 13.2952 17.7169C13.1858 17.7026 13.0828 17.6603 12.9979 17.5947L9.6782 14.4927H6.67969V10.2724Z" fill="#00A6DC"/>
<path d="M17.3203 12.4727C17.3203 12.792 17.2523 13.1082 17.1201 13.4031C16.9879 13.698 16.7941 13.9658 16.5499 14.1912C16.3057 14.4165 16.0158 14.595 15.697 14.7164C15.3781 14.8378 15.0365 14.8996 14.6918 14.8984V10.047C15.0365 10.0458 15.3781 10.1077 15.697 10.229C16.0158 10.3504 16.3057 10.5289 16.5499 10.7543C16.7941 10.9796 16.9879 11.2475 17.1201 11.5423C17.2523 11.8372 17.3203 12.1534 17.3203 12.4727Z" fill="#00A6DC"/>
</g>
<defs>
<clipPath id="clip0_43_5873">
<rect width="11.4612" height="11.4612" fill="white" transform="translate(6.26941 6.26936)"/>
</clipPath>
</defs>
</svg>