<svg width="16" height="18" viewBox="0 0 16 18" fill="none" xmlns="http://www.w3.org/2000/svg">
<path d="M7.30596 3.25643V2.03069H7.14261C6.80114 2.03069 6.45967 2.03341 6.1179 2.03069C5.76799 2.02678 5.50398 1.75945 5.50699 1.41918C5.50722 1.3398 5.52325 1.26126 5.55416 1.18814C5.58507 1.11502 5.63024 1.0488 5.68703 0.993327C5.74382 0.937858 5.81109 0.894258 5.88491 0.865073C5.95873 0.835887 6.03763 0.8217 6.117 0.823342C7.31732 0.82093 8.51774 0.82093 9.71826 0.823342C9.79741 0.822985 9.87587 0.838226 9.94913 0.868189C10.0224 0.898152 10.0891 0.942253 10.1453 0.997974C10.2015 1.05369 10.2462 1.11994 10.2768 1.19294C10.3074 1.26593 10.3234 1.34424 10.3237 1.4234C10.3241 1.50256 10.3089 1.58101 10.2789 1.65428C10.2489 1.72755 10.2048 1.7942 10.1491 1.85042C10.0934 1.90665 10.0271 1.95135 9.95415 1.98197C9.88115 2.01259 9.80284 2.02853 9.72368 2.02888C9.33188 2.0331 8.94008 2.02888 8.53712 2.02888V3.25794C10.0552 3.4014 11.4027 3.95776 12.5956 4.95323C12.7216 4.82062 12.8403 4.69254 12.9624 4.56776C13.1432 4.38482 13.321 4.20188 13.5049 4.02316C13.7644 3.76939 14.1378 3.76698 14.3807 4.01321C14.6182 4.25432 14.6149 4.62291 14.365 4.87789C14.0946 5.15436 13.8201 5.42681 13.5416 5.69524C13.4576 5.77571 13.4576 5.82755 13.5302 5.91676C14.4283 7.02164 14.9684 8.28505 15.1034 9.69946C15.3274 12.0436 14.5986 14.0665 12.9033 15.701C11.3931 17.156 9.554 17.8037 7.46359 17.6925C4.27703 17.5231 1.52327 15.1582 0.846965 12.0385C0.118817 8.67806 1.80266 5.30706 4.92471 3.8806C5.63923 3.55628 6.40175 3.35036 7.1824 3.2709C7.22007 3.26909 7.25804 3.26276 7.30596 3.25643ZM7.93285 4.44269C4.60645 4.44269 1.89579 7.13738 1.89428 10.4475C1.89428 13.7838 4.58746 16.4939 7.90693 16.4936C8.69988 16.4946 9.48525 16.3393 10.2181 16.0364C10.9509 15.7335 11.6168 15.289 12.1776 14.7285C12.7385 14.1679 13.1833 13.5022 13.4865 12.7696C13.7898 12.0369 13.9455 11.2516 13.9449 10.4586C13.9467 7.15425 11.2387 4.44329 7.93285 4.44178V4.44269Z" fill="white"/>
<path d="M7.92739 5.64396C10.6161 5.6545 12.7559 7.81966 12.7435 10.5171C12.7312 13.1596 10.5516 15.304 7.88942 15.2922C5.22005 15.2808 3.08382 13.1057 3.09738 10.4098C3.10733 7.78711 5.28906 5.63401 7.92739 5.64396ZM7.3183 8.96251C7.3183 9.45468 7.3183 9.94684 7.3183 10.4393C7.31564 10.5249 7.33065 10.6101 7.36239 10.6897C7.39412 10.7692 7.4419 10.8414 7.50274 10.9016C8.09858 11.4987 8.69111 12.0993 9.29629 12.687C9.40344 12.7834 9.53596 12.847 9.67815 12.8703C9.9292 12.9128 10.1676 12.7576 10.2752 12.527C10.3849 12.2916 10.3379 12.0382 10.1375 11.8365C9.63414 11.3314 9.12882 10.8283 8.62149 10.3272C8.58693 10.2956 8.55977 10.2568 8.54195 10.2135C8.52413 10.1702 8.51609 10.1235 8.51841 10.0767C8.52203 9.21819 8.52203 8.35944 8.51841 7.50049C8.51841 7.13009 8.26525 6.85824 7.92468 6.85492C7.57538 6.8513 7.3192 7.12255 7.31799 7.50109C7.3183 7.98783 7.3183 8.47487 7.3183 8.96251Z" fill="white"/>
</svg>
