<svg width="28" height="28" viewBox="0 0 28 28" fill="none" xmlns="http://www.w3.org/2000/svg">
<circle cx="13.6111" cy="13.6111" r="13.1111" fill="white" stroke="#3AB783"/>
<path d="M8 14.226V9.25814C8.00845 9.22225 8.01689 9.18636 8.02639 9.15258C8.07483 8.92334 8.14191 8.69845 8.22696 8.48014C8.69567 7.49945 9.48634 6.99591 10.5726 6.99169C13.161 6.9843 15.7452 6.99169 18.3389 6.99169C18.4397 6.9894 18.5405 6.99293 18.6408 7.00224C19.2712 7.06455 19.8549 7.36229 20.2754 7.83602C20.6959 8.30975 20.9223 8.92463 20.9094 9.55794C20.9094 11.0158 20.9168 12.4747 20.9094 13.9325C20.9095 14.2221 20.8642 14.5099 20.7753 14.7855C20.6098 15.2907 20.2869 15.7297 19.8537 16.038C19.4206 16.3463 18.9001 16.5078 18.3685 16.4988C17.8005 16.4988 17.2337 16.4988 16.6657 16.4988H16.5359C16.5496 16.5407 16.5757 16.5776 16.6108 16.6043L18.4139 18.3123C18.4734 18.3669 18.5291 18.4255 18.5807 18.4876C18.6479 18.5749 18.696 18.6754 18.7219 18.7825C18.7478 18.8896 18.7509 19.001 18.731 19.1094C18.7111 19.2178 18.6686 19.3208 18.6063 19.4117C18.5441 19.5026 18.4634 19.5794 18.3695 19.6372C18.0381 19.8282 17.6834 19.7797 17.3783 19.4925C16.7048 18.8592 16.033 18.224 15.3631 17.5871L15.2438 17.4752C15.2438 17.5523 15.2438 17.5966 15.2438 17.641C15.2438 18.0991 15.2438 18.5573 15.2385 19.0133C15.2318 19.1655 15.1796 19.3123 15.0885 19.4345C14.9973 19.5566 14.8716 19.6486 14.7276 19.6984C14.6099 19.7424 14.4834 19.7572 14.3587 19.7416C14.2341 19.726 14.1151 19.6805 14.0119 19.6089C13.9087 19.5374 13.8243 19.4419 13.766 19.3306C13.7078 19.2193 13.6773 19.0956 13.6772 18.97C13.6667 18.5203 13.6772 18.0706 13.6772 17.6209C13.6772 17.5818 13.6772 17.5428 13.6698 17.4858C13.6297 17.5196 13.6044 17.5407 13.5812 17.5628L11.681 19.3574C11.5975 19.4403 11.5097 19.5189 11.4182 19.5928C11.3168 19.6682 11.1986 19.7179 11.0738 19.7377C10.949 19.7575 10.8213 19.7467 10.7016 19.7063C10.5819 19.666 10.4737 19.5972 10.3863 19.5059C10.299 19.4147 10.235 19.3036 10.1999 19.1822C10.1092 18.8476 10.2168 18.5731 10.4639 18.3377C11.0754 17.7613 11.6859 17.1839 12.2954 16.6054C12.3271 16.5748 12.3619 16.5473 12.3946 16.5188L12.3788 16.4914H12.2447C11.681 16.4914 11.1184 16.4914 10.5557 16.4914C10.0214 16.5009 9.49804 16.3396 9.06174 16.0311C8.62544 15.7226 8.29897 15.2829 8.12984 14.776C8.0773 14.5949 8.03396 14.4114 8 14.226ZM14.4499 14.2101H18.0307C18.0887 14.2101 18.1478 14.2101 18.207 14.2101C18.3119 14.2019 18.4131 14.1672 18.5011 14.1093C18.5891 14.0515 18.661 13.9723 18.7101 13.8791C18.7592 13.7859 18.7839 13.6819 18.7819 13.5766C18.78 13.4713 18.7514 13.3682 18.6989 13.277C18.5574 13.0299 18.3294 12.9603 18.0592 12.9603H10.8481C10.7932 12.9603 10.7425 12.9603 10.6845 12.9698C10.5937 12.9797 10.5062 13.0094 10.4282 13.057C10.3502 13.1045 10.2836 13.1687 10.2332 13.2449C10.1828 13.3211 10.1498 13.4074 10.1366 13.4978C10.1234 13.5882 10.1302 13.6804 10.1567 13.7678C10.2422 14.0581 10.4807 14.2186 10.8344 14.2186C12.0392 14.2144 13.2444 14.2115 14.4499 14.2101ZM14.4499 12.3681H17.2083C17.5366 12.3681 17.8649 12.3765 18.1922 12.3628C18.2891 12.3585 18.3837 12.3315 18.4683 12.2839C18.5528 12.2363 18.625 12.1694 18.6788 12.0887C18.7327 12.008 18.7668 11.9157 18.7784 11.8193C18.7899 11.723 18.7786 11.6253 18.7453 11.5341C18.6503 11.2565 18.416 11.1118 18.0592 11.1118C15.6551 11.1118 13.2514 11.1118 10.8481 11.1118C10.7932 11.1118 10.7425 11.1118 10.6845 11.1213C10.5923 11.1307 10.5033 11.1605 10.4241 11.2087C10.3449 11.2569 10.2775 11.3223 10.2269 11.3999C10.1763 11.4776 10.1437 11.5656 10.1316 11.6575C10.1194 11.7494 10.128 11.8429 10.1567 11.931C10.2453 12.2129 10.4734 12.3691 10.8164 12.3691L14.4499 12.3681ZM15.9088 10.526H16.955C17.3772 10.526 17.7995 10.5323 18.2154 10.5175C18.2984 10.5116 18.3794 10.4888 18.4533 10.4505C18.5272 10.4121 18.5925 10.3591 18.6451 10.2947C18.6978 10.2303 18.7368 10.1557 18.7596 10.0757C18.7825 9.99565 18.7888 9.91179 18.7781 9.82924C18.7295 9.47349 18.4761 9.26764 18.0771 9.26764H13.749C13.6861 9.26801 13.6234 9.2726 13.5611 9.28137C13.4232 9.30368 13.2968 9.37171 13.2022 9.47452C13.1076 9.57734 13.0504 9.70896 13.0396 9.84824C13.0153 10.2399 13.294 10.5239 13.711 10.5249C14.4457 10.5281 15.1773 10.526 15.9078 10.526H15.9088Z" fill="#3AB783"/>
</svg>
